<?xml version="1.0" encoding="utf-8"?>
<!-- Generator: Adobe Illustrator 16.0.0, SVG Export Plug-In . SVG Version: 6.00 Build 0)  -->
<!DOCTYPE svg PUBLIC "-//W3C//DTD SVG 1.1//EN" "http://www.w3.org/Graphics/SVG/1.1/DTD/svg11.dtd">
<svg version="1.1" id="Layer_1" xmlns="http://www.w3.org/2000/svg" xmlns:xlink="http://www.w3.org/1999/xlink" x="0px" y="0px"
	 width="136.913px" height="136.914px" viewBox="0 0 136.913 136.914" enable-background="new 0 0 136.913 136.914"
	 xml:space="preserve">
<g>
	<g>
		<g>
			<circle fill="#49A0AE" cx="68.456" cy="68.457" r="63.333"/>
		</g>
		<g>
			<g>
				<g>
					<path fill="#F7F2F3" d="M102.107,79.188c0,3.232-6.768,5.853-9.998,5.853L71.623,84.95V53.978c0-3.232,2.33-5.778,6.34-5.854
						c4.012-0.075,9.686,3.59,12.512,6.175C98.309,61.467,102.107,79.188,102.107,79.188z"/>
					<path fill="#9DDAEC" d="M93.891,64.717l-18.25,0.047V54.426c0-2.637,1.598-3.729,3.633-3.345
						c2.035,0.386,6.852,2.818,9.201,5.302C92.809,60.967,93.891,64.717,93.891,64.717z"/>
					<path fill="#F7F2F3" d="M75.738,86.327H28.223c-4.293,0-4.965-3.482-4.965-7.775V48.878c0-4.295,3.482-5.718,7.775-5.718h36.93
						c4.295,0,7.775,1.423,7.775,5.718V86.327z"/>
					<path fill="#EDC92C" d="M67.975,43.103h-4V39.77c0-1.105,0.895-2.002,2-2.002l0,0c1.104,0,2,0.896,2,2.002V43.103z"/>
					<path fill="#F37C2A" d="M66.037,43.103h-2.063V39.77c0-1.105,0.895-2.002,2-2.002l0,0L66.037,43.103z"/>
					<path fill="#F7F2F3" d="M116.514,81.755c0,2.524-2.047,4.572-4.572,4.572H85.457c-2.525,0-4.572-2.048-4.572-4.572V69.51
						c0-2.524,2.047-4.572,4.572-4.572l26.484,2.978c2.525,0,4.572,2.049,4.572,4.572V81.755z"/>
					<path fill="#EFECEC" d="M116.473,84.138c0,1.333-1.082,2.414-2.414,2.414H26.057c-1.332,0-2.412-1.081-2.412-2.414v-1.339
						c0-1.332,92.828-1.332,92.828,0V84.138z"/>
					<g>
						<g>
							<circle fill="#202121" cx="45.28" cy="85.768" r="8.071"/>
						</g>
						<circle fill="#5E5F5E" cx="45.281" cy="85.768" r="4.803"/>
						<circle fill="#A19F9F" cx="45.28" cy="85.768" r="1.796"/>
					</g>
					<g>
						<g>
							<circle fill="#202121" cx="101.659" cy="85.768" r="8.071"/>
						</g>
						<circle fill="#5E5F5E" cx="101.66" cy="85.768" r="4.803"/>
						<circle fill="#A19F9F" cx="101.659" cy="85.768" r="1.796"/>
					</g>
				</g>
				<rect x="23.086" y="73.582" fill="#D62127" width="93.471" height="2.7"/>
			</g>
			<g>
				<path fill="#D62127" d="M41.637,50.429l-0.396,0.002l-0.398-0.002c-0.666,0-1.906,0-1.906,1.42v15.735
					c0,1.421,1.24,1.421,1.906,1.421l0.398-0.002l0.396,0.002c0.443,0,0.869-0.015,1.225-0.188c0.313-0.151,0.684-0.488,0.684-1.232
					V51.849C43.545,50.429,42.256,50.429,41.637,50.429z"/>
				<path fill="#D62127" d="M49.746,55.967l-0.178-0.354l-0.174-0.359c-0.295-0.597-0.844-1.709-2.115-1.082l-14.115,6.955
					c-1.273,0.629-0.725,1.742-0.432,2.339l0.178,0.356l0.174,0.357c0.195,0.396,0.398,0.772,0.711,1.015
					c0.273,0.214,0.74,0.398,1.408,0.069l14.113-6.957C50.59,57.678,50.02,56.521,49.746,55.967z"/>
				<path fill="#D62127" d="M49.367,64.233l0.176-0.355l0.18-0.354c0.299-0.597,0.854-1.705-0.416-2.342L35.24,54.133
					c-1.27-0.639-1.826,0.472-2.125,1.065l-0.178,0.358l-0.178,0.353c-0.197,0.396-0.377,0.785-0.381,1.18
					c-0.004,0.348,0.131,0.832,0.795,1.164l14.068,7.05C48.512,65.94,49.09,64.786,49.367,64.233z"/>
			</g>
		</g>
	</g>
</g>
</svg>
