<?xml version="1.0" encoding="utf-8"?>
<!-- Generator: Adobe Illustrator 16.0.0, SVG Export Plug-In . SVG Version: 6.00 Build 0)  -->
<!DOCTYPE svg PUBLIC "-//W3C//DTD SVG 1.1//EN" "http://www.w3.org/Graphics/SVG/1.1/DTD/svg11.dtd">
<svg version="1.1" id="Layer_1" xmlns="http://www.w3.org/2000/svg" xmlns:xlink="http://www.w3.org/1999/xlink" x="0px" y="0px"
	 width="136.914px" height="136.914px" viewBox="0 0 136.914 136.914" enable-background="new 0 0 136.914 136.914"
	 xml:space="preserve">
<g>
	<g>
		<circle fill="#F2BE3E" cx="68.457" cy="68.456" r="63.333"/>
	</g>
	<g>
		<polygon fill="#F7D98B" points="104.202,31.869 52.146,60.736 49.478,63.231 75.155,87.67 76.995,85.592 		"/>
		<polygon fill="#626463" points="104.361,31.571 81.645,44.198 92.516,55.071 		"/>
		<g>
			<path fill="#E84849" d="M77.462,81.795l-7.741,0.443l-37.896,37.865c2.141,1.52,4.371,2.92,6.696,4.17L75.155,87.67
				L77.462,81.795z"/>
			<path fill="#E84849" d="M22.824,112.348L61.348,73.86l0.344-7.834l-7.54,0.642L16.348,104.44
				C18.293,107.25,20.461,109.892,22.824,112.348z"/>
			<path fill="#F06668" d="M54.151,66.667l1.061-7.124l-5.148,3.033L13.204,99.403c0.972,1.73,2.02,3.411,3.144,5.037L54.151,66.667
				z"/>
			<path fill="#F06668" d="M31.824,120.104l37.896-37.865l-0.1-8.285l-8.273-0.094l-38.523,38.488
				C25.572,115.205,28.584,117.801,31.824,120.104z"/>
		</g>
	</g>
</g>
</svg>
