<?xml version="1.0" encoding="utf-8"?>
<!-- Generator: Adobe Illustrator 16.0.0, SVG Export Plug-In . SVG Version: 6.00 Build 0)  -->
<!DOCTYPE svg PUBLIC "-//W3C//DTD SVG 1.1//EN" "http://www.w3.org/Graphics/SVG/1.1/DTD/svg11.dtd">
<svg version="1.1" id="Layer_1" xmlns="http://www.w3.org/2000/svg" xmlns:xlink="http://www.w3.org/1999/xlink" x="0px" y="0px"
	 width="136.913px" height="136.914px" viewBox="0 0 136.913 136.914" enable-background="new 0 0 136.913 136.914"
	 xml:space="preserve">
<g>
	<g>
		<g>
			<g>
				<g>
					<circle fill="#F3EA83" cx="68.456" cy="68.458" r="63.333"/>
				</g>
			</g>
		</g>
	</g>
	<g>
		<g>
			<g>
				<path fill="#786E57" d="M118.787,88.83c0,1.505-1.221,2.725-2.727,2.725h-95.35c-1.504,0-2.725-1.22-2.725-2.725V51.014
					c0-1.506,1.221-2.726,2.725-2.726h95.35c1.506,0,2.727,1.22,2.727,2.726V88.83z"/>
			</g>
			<g>
				<path fill="#EDDAAB" d="M107,88.126c0,1.505-1.221,2.725-2.725,2.725H20.127c-1.506,0-2.727-1.22-2.727-2.725V50.312
					c0-1.507,1.221-2.727,2.727-2.727h84.148c1.504,0,2.725,1.22,2.725,2.727V88.126z"/>
			</g>
			<g>
				<path fill="#E3E1DC" d="M117.893,88.126c0,1.505-1.219,2.725-2.725,2.725h-11.607V47.585h11.607c1.506,0,2.725,1.22,2.725,2.727
					V88.126z"/>
			</g>
			<g>
				<path fill="#786E57" d="M54.215,62.077c-1.326-2.656-5.516-0.939-6.551-0.424c0,0-0.271,0.147-0.75,0.408
					c-3.566-2.382-11.076-7.164-13.611-6.992c-0.494,0.034-2.049,0.722-1.721,1.022c2.613,2.387,7.414,6.683,9.943,8.941
					c-4.727,2.639-10.865,6.15-13.406,7.984c-1.658-1.064-4.01-2.45-4.908-2.389c-0.213,0.014-0.881,0.311-0.74,0.439
					c1.051,0.961,2.924,2.637,4.053,3.646c-0.23,0.363-0.416,0.834-0.135,1.171c0.258,0.311,0.686,0.467,1.051,0.548
					c0.123,1.488,0.346,4.108,0.482,5.572c0.02,0.19,0.658-0.165,0.799-0.327c0.592-0.685,0.9-3.424,1.049-5.392
					c3.049-0.912,9.676-3.67,14.66-5.809c0.27,3.224,0.846,10.09,1.195,13.78c0.045,0.442,1.527-0.384,1.854-0.76
					c1.717-1.983,2.406-11.393,2.629-15.488c0.381-0.169,0.594-0.264,0.594-0.264C51.738,67.231,55.539,64.734,54.215,62.077z"/>
			</g>
			<g>
				<path fill="#D8BF8A" d="M81.51,57.142c0,1.067-0.867,1.933-1.934,1.933H68.682c-1.066,0-1.932-0.865-1.932-1.933l0,0
					c0-1.067,0.865-1.932,1.932-1.932h10.895C80.643,55.21,81.51,56.075,81.51,57.142L81.51,57.142z"/>
			</g>
			<g>
				<path fill="#D8BF8A" d="M99.781,57.142c0,1.067-0.865,1.933-1.934,1.933H86.955c-1.066,0-1.932-0.865-1.932-1.933l0,0
					c0-1.067,0.865-1.932,1.932-1.932h10.893C98.916,55.21,99.781,56.075,99.781,57.142L99.781,57.142z"/>
			</g>
			<g>
				<path fill="#D8BF8A" d="M81.51,81.33c0,1.067-0.867,1.933-1.934,1.933H68.682c-1.066,0-1.932-0.865-1.932-1.933l0,0
					c0-1.067,0.865-1.933,1.932-1.933h10.895C80.643,79.397,81.51,80.262,81.51,81.33L81.51,81.33z"/>
			</g>
			<g>
				<path fill="#D8BF8A" d="M99.781,81.33c0,1.067-0.865,1.933-1.934,1.933H86.955c-1.066,0-1.932-0.865-1.932-1.933l0,0
					c0-1.067,0.865-1.933,1.932-1.933h10.893C98.916,79.397,99.781,80.262,99.781,81.33L99.781,81.33z"/>
			</g>
			<g>
				<g>
					<path fill="#D8BF8A" d="M68.859,67.157h28.988c1.068,0,1.934-0.865,1.934-1.933s-0.865-1.933-1.934-1.933H68.859
						c-1.068,0-1.934,0.865-1.934,1.933S67.791,67.157,68.859,67.157z"/>
				</g>
				<g>
					<path fill="#D8BF8A" d="M97.848,71.139H84.287H68.859c-1.068,0-1.934,0.865-1.934,1.933s0.865,1.934,1.934,1.934h28.988
						c1.068,0,1.934-0.866,1.934-1.934S98.916,71.139,97.848,71.139z"/>
				</g>
			</g>
		</g>
		<g>
			<g>
				<path fill="#786E57" d="M117.906,56.264h-6.561c-0.84,0-1.521-0.683-1.521-1.522l0,0c0-0.842,0.682-1.523,1.521-1.523h6.561
					V56.264z"/>
			</g>
			<g>
				<path fill="#786E57" d="M117.906,62.062h-6.561c-0.84,0-1.521-0.683-1.521-1.522l0,0c0-0.841,0.682-1.523,1.521-1.523h6.561
					V62.062z"/>
			</g>
			<g>
				<path fill="#786E57" d="M117.906,68.211h-6.561c-0.84,0-1.521-0.683-1.521-1.523l0,0c0-0.841,0.682-1.522,1.521-1.522h6.561
					V68.211z"/>
			</g>
		</g>
		<g>
			<rect x="103.061" y="47.585" fill="#D9C390" width="1" height="43.266"/>
		</g>
		<g>
			<path fill="#786E57" d="M115.154,76.601c0.824,0,1.494,0.669,1.494,1.494v8.417c0,0.825-0.67,1.494-1.494,1.494l0,0
				c-0.824,0-1.494-0.669-1.494-1.494v-8.417C113.66,77.27,114.33,76.601,115.154,76.601L115.154,76.601z"/>
		</g>
	</g>
</g>
</svg>
