<?xml version="1.0" encoding="utf-8"?>
<!-- Generator: Adobe Illustrator 16.0.0, SVG Export Plug-In . SVG Version: 6.00 Build 0)  -->
<!DOCTYPE svg PUBLIC "-//W3C//DTD SVG 1.1//EN" "http://www.w3.org/Graphics/SVG/1.1/DTD/svg11.dtd">
<svg version="1.1" id="Layer_1" xmlns="http://www.w3.org/2000/svg" xmlns:xlink="http://www.w3.org/1999/xlink" x="0px" y="0px"
	 width="136.914px" height="136.913px" viewBox="0 0 136.914 136.913" enable-background="new 0 0 136.914 136.913"
	 xml:space="preserve">
<g>
	<g>
		<g>
			<circle fill="#49A0AE" cx="68.457" cy="68.455" r="63.333"/>
		</g>
	</g>
	<g>
		<g>
			<g>
				<g>
					<path fill="#DCD2CC" d="M103.267,106.525c-0.021,0-0.041,0-0.063-0.002c-0.305-0.018-3.012-0.219-4.539-1.365
						c-1.514-1.135-2.547-3.646-2.66-3.928c-0.205-0.514,0.045-1.094,0.557-1.299c0.51-0.203,1.094,0.043,1.301,0.555
						c0.25,0.625,1.098,2.395,2.002,3.072c0.893,0.67,2.805,0.926,3.465,0.969c0.551,0.035,0.969,0.512,0.934,1.063
						C104.229,106.119,103.79,106.525,103.267,106.525z"/>
				</g>
				<g>
					<path fill="#DCD2CC" d="M31.931,106.525c-0.523,0-0.963-0.406-0.996-0.936c-0.035-0.551,0.383-1.027,0.934-1.063
						c0.662-0.043,2.572-0.299,3.465-0.969c0.904-0.678,1.754-2.447,2.004-3.072c0.205-0.512,0.787-0.758,1.301-0.555
						c0.512,0.205,0.762,0.785,0.557,1.299c-0.113,0.281-1.146,2.793-2.662,3.928c-1.527,1.146-4.234,1.348-4.537,1.365
						C31.974,106.525,31.952,106.525,31.931,106.525z"/>
				</g>
				<path fill="#E5DCD6" d="M100.042,101.527H35.155c-7.168,0-12.557-26.336-12.557-26.336h90.002
					C112.601,75.191,107.21,101.525,100.042,101.527z"/>
				<path fill="#DDD3CC" d="M112.231,71.988H23.134c-1.768,0-2.41,0.875-2.41,1.953c0,1.076,0.643,1.951,2.41,1.951h89.098
					c1.768,0,2.408-0.875,2.408-1.951C114.64,72.863,113.999,71.988,112.231,71.988z"/>
			</g>
			<g>
				<g>
					<path fill="#E5DCD6" d="M107.64,74.566c-0.828,0-1.5-0.672-1.5-1.5v-43c0-0.049,0.004-0.1,0.008-0.148
						c0.021-0.369-0.031-2.363-3.475-2.867c-0.82-0.119-1.387-0.881-1.268-1.701c0.121-0.818,0.891-1.381,1.701-1.268
						c5.096,0.746,6.172,4.234,6.033,6.049v42.936C109.14,73.895,108.468,74.566,107.64,74.566z"/>
				</g>
				<path fill="#E5DCD6" d="M102.036,32.924l1.58-7.986c0.119-0.598-0.27-0.988-0.869-0.869l-7.988,1.584
					c-0.596,0.117-1.178,0.697-1.297,1.297l7.275,7.273C101.335,34.105,101.917,33.523,102.036,32.924z"/>
				<path fill="#D5CEC9" d="M102.036,32.924l-7.277-7.271c-0.596,0.117-1.178,0.697-1.297,1.297l7.275,7.273
					C101.335,34.105,101.917,33.523,102.036,32.924z"/>
			</g>
		</g>
		<g>
			<g>
				<path fill="#A2D4DE" d="M75.056,61.479c0,0-2.213,0.178-3.498,1.404c-0.561,0.533-0.582,1.42-0.047,1.98
					c0.533,0.559,1.42,0.58,1.98,0.047C74.114,64.316,75.056,61.479,75.056,61.479z"/>
				<path fill="#8CC3CC" d="M73.478,64.488c-0.008,0.336-0.666,0.604-1.002,0.594c-0.338-0.008-0.9-0.27-0.891-0.605
					C71.593,64.141,73.485,64.152,73.478,64.488z"/>
			</g>
			<g>
				<path fill="#A2D4DE" d="M67.208,61.652c0,0-2.213,0.176-3.5,1.404c-0.559,0.535-0.58,1.42-0.047,1.98
					c0.533,0.559,1.422,0.58,1.98,0.047C66.265,64.488,67.208,61.652,67.208,61.652z"/>
				<path fill="#8CC3CC" d="M65.63,64.662c-0.01,0.336-0.668,0.604-1.004,0.594c-0.336-0.006-0.898-0.268-0.889-0.604
					C63.743,64.314,65.638,64.324,65.63,64.662z"/>
			</g>
			<g>
				<path fill="#A2D4DE" d="M90.882,61.479c0,0-2.215,0.178-3.5,1.404c-0.561,0.533-0.582,1.42-0.047,1.98
					c0.533,0.559,1.42,0.58,1.98,0.047C89.938,64.316,90.882,61.479,90.882,61.479z"/>
				<path fill="#8CC3CC" d="M89.302,64.488c-0.008,0.336-0.666,0.604-1.002,0.594c-0.338-0.008-0.9-0.27-0.891-0.605
					C87.417,64.141,89.31,64.152,89.302,64.488z"/>
			</g>
			<g>
				<path fill="#A2D4DE" d="M82.708,61.652c0,0-2.213,0.176-3.5,1.404c-0.561,0.535-0.58,1.42-0.049,1.98
					c0.535,0.559,1.424,0.58,1.982,0.047C81.765,64.488,82.708,61.652,82.708,61.652z"/>
				<path fill="#8CC3CC" d="M81.13,64.662c-0.01,0.336-0.668,0.604-1.004,0.594c-0.336-0.006-0.898-0.268-0.891-0.604
					C79.243,64.314,81.136,64.324,81.13,64.662z"/>
			</g>
			<g>
				<path fill="#A2D4DE" d="M74.634,53.717c0,0-2.215,0.176-3.5,1.404c-0.561,0.533-0.582,1.418-0.047,1.979
					c0.533,0.561,1.422,0.58,1.982,0.047C73.69,56.553,74.634,53.717,74.634,53.717z"/>
				<path fill="#8CC3CC" d="M73.054,56.725c-0.008,0.338-0.666,0.604-1.002,0.596s-0.898-0.27-0.891-0.605
					C71.169,56.377,73.062,56.389,73.054,56.725z"/>
			</g>
			<g>
				<path fill="#A2D4DE" d="M66.911,53.889c0,0-2.213,0.178-3.5,1.404c-0.561,0.535-0.58,1.422-0.049,1.982
					c0.535,0.557,1.424,0.578,1.982,0.045C65.968,56.727,66.911,53.889,66.911,53.889z"/>
				<path fill="#8CC3CC" d="M65.333,56.898c-0.01,0.336-0.668,0.604-1.004,0.596s-0.898-0.27-0.889-0.605
					C63.446,56.551,65.339,56.563,65.333,56.898z"/>
			</g>
			<g>
				<path fill="#A2D4DE" d="M91.179,53.717c0,0-2.213,0.176-3.5,1.404c-0.561,0.533-0.58,1.418-0.047,1.979
					c0.535,0.561,1.422,0.58,1.982,0.047C90.235,56.553,91.179,53.717,91.179,53.717z"/>
				<path fill="#8CC3CC" d="M89.601,56.725c-0.01,0.338-0.666,0.604-1.004,0.596c-0.336-0.008-0.898-0.27-0.889-0.605
					C87.714,56.377,89.606,56.389,89.601,56.725z"/>
			</g>
			<g>
				<path fill="#A2D4DE" d="M81.942,53.889c0,0-2.215,0.178-3.502,1.404c-0.559,0.535-0.58,1.422-0.047,1.982
					c0.535,0.557,1.422,0.578,1.98,0.045C80.997,56.727,81.942,53.889,81.942,53.889z"/>
				<path fill="#8CC3CC" d="M80.362,56.898c-0.01,0.336-0.666,0.604-1.002,0.596c-0.338-0.008-0.9-0.27-0.891-0.605
					C78.478,56.551,80.37,56.563,80.362,56.898z"/>
			</g>
			<g>
				<path fill="#A2D4DE" d="M80.728,46.4c0,0-2.215,0.176-3.5,1.404c-0.561,0.533-0.582,1.418-0.047,1.979
					c0.533,0.561,1.42,0.58,1.98,0.047C79.784,49.236,80.728,46.4,80.728,46.4z"/>
				<path fill="#8CC3CC" d="M79.147,49.408c-0.008,0.338-0.666,0.604-1.002,0.596c-0.338-0.008-0.9-0.27-0.891-0.605
					C77.263,49.061,79.155,49.072,79.147,49.408z"/>
			</g>
			<g>
				<path fill="#A2D4DE" d="M73.343,46.572c0,0-2.213,0.178-3.5,1.404c-0.559,0.535-0.58,1.422-0.047,1.982
					c0.533,0.557,1.422,0.578,1.98,0.045C72.399,49.41,73.343,46.572,73.343,46.572z"/>
				<path fill="#8CC3CC" d="M71.765,49.582c-0.01,0.336-0.668,0.604-1.004,0.596s-0.898-0.27-0.887-0.605
					C69.878,49.234,71.772,49.246,71.765,49.582z"/>
			</g>
			<g>
				<path fill="#A2D4DE" d="M95.37,46.4c0,0-2.215,0.176-3.5,1.404c-0.561,0.533-0.58,1.418-0.047,1.979
					c0.535,0.561,1.422,0.58,1.982,0.047C94.427,49.236,95.37,46.4,95.37,46.4z"/>
				<path fill="#8CC3CC" d="M93.79,49.408c-0.008,0.338-0.666,0.604-1,0.596c-0.338-0.008-0.9-0.27-0.893-0.605
					C91.905,49.061,93.798,49.072,93.79,49.408z"/>
			</g>
			<g>
				<path fill="#A2D4DE" d="M87.745,46.572c0,0-2.213,0.178-3.5,1.404c-0.561,0.535-0.58,1.422-0.049,1.982
					c0.535,0.557,1.424,0.578,1.982,0.045C86.802,49.41,87.745,46.572,87.745,46.572z"/>
				<path fill="#8CC3CC" d="M86.167,49.582c-0.01,0.336-0.668,0.604-1.002,0.596c-0.338-0.008-0.9-0.27-0.891-0.605
					C84.28,49.234,86.173,49.246,86.167,49.582z"/>
			</g>
			<g>
				<path fill="#A2D4DE" d="M86.179,38.709c0,0-2.215,0.176-3.5,1.404c-0.561,0.533-0.582,1.42-0.047,1.98
					c0.533,0.559,1.422,0.58,1.982,0.045C85.235,41.545,86.179,38.709,86.179,38.709z"/>
				<path fill="#8CC3CC" d="M84.599,41.717c-0.008,0.338-0.666,0.604-1.002,0.596s-0.898-0.27-0.891-0.605
					C82.714,41.369,84.606,41.381,84.599,41.717z"/>
			</g>
			<g>
				<path fill="#A2D4DE" d="M79.474,38.883c0,0-2.213,0.176-3.5,1.404c-0.559,0.533-0.58,1.42-0.047,1.98
					c0.533,0.559,1.422,0.578,1.98,0.047C78.53,41.719,79.474,38.883,79.474,38.883z"/>
				<path fill="#8CC3CC" d="M77.896,41.893c-0.01,0.336-0.668,0.604-1.004,0.594c-0.336-0.008-0.898-0.27-0.889-0.605
					C76.009,41.545,77.901,41.555,77.896,41.893z"/>
			</g>
			<g>
				<path fill="#A2D4DE" d="M99.425,38.313c0,0-2.215,0.176-3.5,1.404c-0.561,0.533-0.582,1.42-0.047,1.98
					c0.533,0.559,1.42,0.58,1.98,0.047C98.481,41.148,99.425,38.313,99.425,38.313z"/>
				<path fill="#8CC3CC" d="M97.845,41.32c-0.008,0.338-0.666,0.604-1.002,0.596c-0.338-0.008-0.9-0.27-0.891-0.605
					C95.96,40.973,97.853,40.984,97.845,41.32z"/>
			</g>
			<g>
				<path fill="#A2D4DE" d="M92.767,38.883c0,0-2.215,0.176-3.502,1.404c-0.559,0.533-0.58,1.42-0.047,1.98
					c0.535,0.559,1.422,0.578,1.98,0.047C91.821,41.719,92.767,38.883,92.767,38.883z"/>
				<path fill="#8CC3CC" d="M91.187,41.893c-0.01,0.336-0.668,0.604-1.004,0.594c-0.336-0.008-0.898-0.27-0.889-0.605
					C89.302,41.545,91.194,41.555,91.187,41.893z"/>
			</g>
			<g>
				<path fill="#A2D4DE" d="M87.558,32.213c0,0-2.215,0.176-3.5,1.404c-0.561,0.533-0.582,1.418-0.047,1.979
					c0.533,0.561,1.422,0.58,1.98,0.047C86.614,35.049,87.558,32.213,87.558,32.213z"/>
				<path fill="#8CC3CC" d="M85.978,35.221c-0.008,0.338-0.666,0.604-1.002,0.596s-0.898-0.27-0.891-0.605
					C84.093,34.873,85.985,34.885,85.978,35.221z"/>
			</g>
			<g>
				<path fill="#A2D4DE" d="M93.749,32.188c0,0-2.215,0.176-3.502,1.404c-0.559,0.535-0.58,1.422-0.047,1.98
					c0.535,0.559,1.424,0.58,1.98,0.047C92.804,35.023,93.749,32.188,93.749,32.188z"/>
				<path fill="#8CC3CC" d="M92.169,35.197c-0.01,0.336-0.668,0.604-1.004,0.594c-0.336-0.006-0.898-0.268-0.889-0.604
					C90.284,34.85,92.177,34.861,92.169,35.197z"/>
			</g>
		</g>
	</g>
</g>
</svg>
