<?xml version="1.0" encoding="utf-8"?>
<!-- Generator: Adobe Illustrator 16.0.0, SVG Export Plug-In . SVG Version: 6.00 Build 0)  -->
<!DOCTYPE svg PUBLIC "-//W3C//DTD SVG 1.1//EN" "http://www.w3.org/Graphics/SVG/1.1/DTD/svg11.dtd">
<svg version="1.1" id="Layer_1" xmlns="http://www.w3.org/2000/svg" xmlns:xlink="http://www.w3.org/1999/xlink" x="0px" y="0px"
	 width="136.913px" height="136.913px" viewBox="0 0 136.913 136.913" enable-background="new 0 0 136.913 136.913"
	 xml:space="preserve">
<g>
	<g>
		<g>
			<g>
				<g>
					<circle fill="#49A0AE" cx="68.456" cy="68.457" r="63.333"/>
				</g>
			</g>
		</g>
	</g>
	<g>
		<path fill="#636463" d="M72.816,28.829c0,0.715-0.58,1.294-1.293,1.294h-4.502c-0.713,0-1.293-0.579-1.293-1.294v-8.327
			c0-0.714,0.58-1.293,1.293-1.293h4.502c0.713,0,1.293,0.579,1.293,1.293V28.829z"/>
		<path fill="#5E5F5E" d="M69.342,30.123h-2.32c-0.713,0-1.293-0.579-1.293-1.294v-8.327c0-0.714,0.58-1.293,1.293-1.293h2.32
			V30.123z"/>
		<rect x="51.385" y="28.051" fill="#ECE9E9" width="35.223" height="29.836"/>
		<rect x="51.385" y="28.051" fill="#E7E7E7" width="17.75" height="29.836"/>
		<rect x="53.457" y="30.013" fill="#E4DEDF" width="31.078" height="10.786"/>
		<rect x="54.492" y="31.159" fill="#B1D4D7" width="29.008" height="8.493"/>
		<rect x="54.492" y="31.159" fill="#A7CACB" width="14.504" height="8.493"/>
		<polygon fill="#E5DBC5" points="90.268,103.055 48.139,103.055 34.395,54.156 69.203,50.014 104.012,54.156 		"/>
		<polygon fill="#E8E1D3" points="90.268,103.055 69.203,103.055 69.203,50.014 104.012,54.156 		"/>
		<g>
			<path fill="#A7CACB" d="M27.691,104.366c0,0,34.189-20.519,73.693,0H27.691z"/>
			<path fill="#B1D4D7" d="M113.957,105.263c0,0-18.094-18.233-50.141,0H113.957z"/>
			<path fill="#9CC0C1" d="M71.758,105.332c0,0-26.576-18.232-50.139,0H71.758z"/>
		</g>
		<path fill="#5F6060" d="M89.365,69.824l-1.639,2.159l0.945-0.038c-0.143,1.303-1.201,2.385-2.594,2.646l-0.275-6.942l1.25-0.05
			c0.271-0.012,0.475-0.264,0.461-0.574c-0.012-0.311-0.232-0.545-0.506-0.534l-1.25,0.051l-0.057-1.413
			c0.697-0.286,1.156-0.979,1.127-1.743c-0.039-0.997-0.893-1.776-1.904-1.734c-1.008,0.04-1.799,0.883-1.758,1.88
			c0.031,0.799,0.596,1.47,1.359,1.671l0.055,1.386l-1.127,0.045c-0.271,0.011-0.475,0.262-0.463,0.572
			c0.014,0.312,0.234,0.547,0.508,0.535l1.125-0.044l0.275,6.911c-1.346-0.205-2.402-1.17-2.639-2.406l0.883-0.035l-1.689-2.025
			l-1.639,2.158l1.012-0.041c0.404,2.038,2.119,3.547,4.229,3.71c0.113,0.202,0.295,0.322,0.5,0.313
			c0.199-0.007,0.367-0.134,0.465-0.336c2.148-0.265,3.838-1.948,4.088-4.057l0.947-0.038L89.365,69.824z M84.975,62.883
			c0.326-0.012,0.6,0.234,0.613,0.552c0.008,0.17-0.068,0.328-0.195,0.438c-0.213-0.17-0.523-0.139-0.701,0.063
			c-0.168-0.092-0.277-0.26-0.285-0.454C84.395,63.166,84.648,62.896,84.975,62.883z"/>
		<polygon fill="#E5DBC5" points="35.082,56.603 34.395,54.156 69.203,50.014 104.012,54.156 103.188,57.087 69.48,52.775 		"/>
		<polygon fill="#D7D0BC" points="35.082,56.603 34.395,54.156 69.203,50.014 69.195,52.808 		"/>
	</g>
</g>
</svg>
