<?xml version="1.0" encoding="utf-8"?>
<!-- Generator: Adobe Illustrator 16.0.0, SVG Export Plug-In . SVG Version: 6.00 Build 0)  -->
<!DOCTYPE svg PUBLIC "-//W3C//DTD SVG 1.1//EN" "http://www.w3.org/Graphics/SVG/1.1/DTD/svg11.dtd">
<svg version="1.1" id="Layer_1" xmlns="http://www.w3.org/2000/svg" xmlns:xlink="http://www.w3.org/1999/xlink" x="0px" y="0px"
	 width="136.914px" height="136.914px" viewBox="0 0 136.914 136.914" enable-background="new 0 0 136.914 136.914"
	 xml:space="preserve">
<g>
	<g>
		<circle fill="#49A0AE" cx="68.457" cy="68.456" r="63.333"/>
		<g>
			<path fill="#565453" d="M88.274,67.144c-5.516,1.838-19.649,23.861-28.383,25.355c-8.177,1.4-30.757,3.83-37.345-7.047
				c0,0-1.992-3.678,4.29-5.822l17.313-5.67c0,0,4.596,5.975,13.329,1.686c0,0,16.7-12.41,21.756-19.15
				C79.234,56.495,93.79,65.306,88.274,67.144z"/>
			<path fill="#D73D3D" d="M54.038,70.888c0,0,4.973-0.604,11.254-5.811c6.282-5.211,18.691-16.396,37.384-32.023L91.413,59.138
				l-42.25,22.375l-5.014-8.318C44.149,73.194,49.413,72.013,54.038,70.888z"/>
			<rect x="95.149" y="90.585" fill="#565453" width="2.662" height="1.455"/>
			<path fill="#E84849" d="M102.676,33.054c0,0,13.636,12.41,0.613,32.941c0,0-4.29,5.975-4.749,10.725l-0.713,14.182l-2.673-0.016
				L94.25,74.573c0,0-0.614-9.037-6.129-7.199c-5.516,1.838-19.496,22.863-28.229,24.359c-8.177,1.4-30.757,3.828-37.345-7.047
				c0,0-1.992-3.678,4.29-5.822l17.313-5.67c0,0,5.231,7.082,13.329,1.686c15.56-10.367,32.935-26.992,38.06-33.117
				C95.538,41.763,99.163,37.638,102.676,33.054z"/>
		</g>
	</g>
</g>
</svg>
