<?xml version="1.0" encoding="utf-8"?>
<!-- Generator: Adobe Illustrator 16.0.0, SVG Export Plug-In . SVG Version: 6.00 Build 0)  -->
<!DOCTYPE svg PUBLIC "-//W3C//DTD SVG 1.1//EN" "http://www.w3.org/Graphics/SVG/1.1/DTD/svg11.dtd">
<svg version="1.1" id="Layer_1" xmlns="http://www.w3.org/2000/svg" xmlns:xlink="http://www.w3.org/1999/xlink" x="0px" y="0px"
	 width="136.914px" height="136.914px" viewBox="0 0 136.914 136.914" enable-background="new 0 0 136.914 136.914"
	 xml:space="preserve">
<g>
	<g>
		<circle fill="#EB9682" cx="68.457" cy="68.457" r="63.333"/>
		<g>
			<path fill="#255860" d="M108.167,35.447c0,5.492-2.311,9.945-11.178,9.945s-17.902-6.631-17.902-9.945
				c0-3.885,9.035-9.947,17.902-9.947S108.167,29.953,108.167,35.447z"/>
			<path fill="#1C4C51" d="M108.167,35.447c0,5.492-2.311,9.945-11.178,9.945s-17.902-6.631-17.902-9.945
				C79.086,31.563,108.167,29.953,108.167,35.447z"/>
			<ellipse fill="#A2D1C9" cx="65.162" cy="81.102" rx="36.413" ry="30.311"/>
			<path fill="#B2B2B2" d="M71.739,45.365V35.83c0-3.146-2.551-8.908-5.697-8.908H63.43c-3.145,0-5.697,5.762-5.697,8.908v9.535
				c-3.367,1.699-5.682,5.182-5.682,9.211v27.951c0,5.699,4.619,10.32,10.32,10.32H67.1c5.699,0,10.32-4.621,10.32-10.32V54.576
				C77.42,50.547,75.106,47.064,71.739,45.365z"/>
			<path fill="#C3C3C3" d="M64.594,26.922H63.43c-3.145,0-5.697,5.762-5.697,8.908v9.535c-3.367,1.699-5.682,5.182-5.682,9.211
				v27.951c0,5.699,4.619,10.32,10.32,10.32h2.223V26.922z"/>
			<path fill="#B2B2B2" d="M79.94,32.889H53.795c-1.412,0-2.557,1.145-2.557,2.559c0,1.412,1.145,2.557,2.557,2.557H79.94
				c1.412,0,1.516-1.145,1.516-2.557C81.456,34.033,81.352,32.889,79.94,32.889z"/>
			<ellipse fill="#CAE8E4" cx="65.163" cy="81.102" rx="35.047" ry="29.174"/>
			<path fill="#BAE2DD" d="M65.163,110.275c-19.355,0-35.047-13.061-35.047-29.174c0-16.111,15.691-29.174,35.047-29.174
				S84.518,110.275,65.163,110.275z"/>
			<path fill="#6BA297" d="M98.102,81.127c0,15.143-14.748,27.42-32.939,27.42c-18.193,0-32.939-12.277-32.939-27.42H98.102z"/>
			<path fill="#CAE8E4" d="M40.094,76.777c-3.064-3.064,0.301-11.547,3.363-14.609c3.064-3.064,10.48-5.971,13.543-2.908
				S43.159,79.84,40.094,76.777z"/>
			<g>
				<path fill="#C3C3C3" d="M53.795,32.889c-0.865,0-1.621,0.432-2.082,1.09c0.35,0.35,0.574,0.824,0.574,1.359
					c0,0.578-0.26,1.09-0.662,1.443c0.447,0.732,1.25,1.223,2.17,1.223h10.799v-5.115H53.795z"/>
				<path fill="#888888" d="M52.288,35.338c0-0.535-0.225-1.01-0.574-1.359c-0.152,0.221-0.273,0.465-0.354,0.725
					c0.205,0.146,0.34,0.383,0.34,0.654c0,0.289-0.156,0.539-0.387,0.682c0.064,0.268,0.172,0.516,0.313,0.742
					C52.028,36.428,52.288,35.916,52.288,35.338z"/>
			</g>
		</g>
	</g>
</g>
</svg>
