<?xml version="1.0" encoding="utf-8"?>
<!-- Generator: Adobe Illustrator 16.0.0, SVG Export Plug-In . SVG Version: 6.00 Build 0)  -->
<!DOCTYPE svg PUBLIC "-//W3C//DTD SVG 1.1//EN" "http://www.w3.org/Graphics/SVG/1.1/DTD/svg11.dtd">
<svg version="1.1" id="Layer_1" xmlns="http://www.w3.org/2000/svg" xmlns:xlink="http://www.w3.org/1999/xlink" x="0px" y="0px"
	 width="136.914px" height="136.914px" viewBox="0 0 136.914 136.914" enable-background="new 0 0 136.914 136.914"
	 xml:space="preserve">
<g>
	<g>
		<g>
			<g>
				<g>
					<circle fill="#F3EA83" cx="68.457" cy="68.457" r="63.333"/>
				</g>
			</g>
		</g>
	</g>
	<g>
		<g>
			<g>
				<path fill="#626463" d="M54.463,120.557c0,1.254-1.018,2.271-2.271,2.271l0,0c-1.254,0-2.271-1.018-2.271-2.271v-5.61
					c0-1.255,1.017-2.271,2.271-2.271l0,0c1.254,0,2.271,1.016,2.271,2.271V120.557z"/>
				<path fill="#626463" d="M82.784,120.557c0,1.254-1.017,2.271-2.271,2.271l0,0c-1.254,0-2.271-1.018-2.271-2.271v-5.61
					c0-1.255,1.017-2.271,2.271-2.271l0,0c1.255,0,2.271,1.016,2.271,2.271V120.557z"/>
			</g>
			<g>
				<path fill="#626463" d="M94.043,69.921v2.008c1.323,0.565,2.251,1.878,2.251,3.408v5.23c0,1.53-0.928,2.844-2.251,3.409v2.007
					c2.599,0,4.708-2.108,4.708-4.706V74.63C98.751,72.029,96.642,69.921,94.043,69.921z"/>
			</g>
			<g>
				<g>
					<path fill="none" d="M70.265,16.785h-8.247c-1.792,0-3.244,1.452-3.244,3.244v19.206H73.51V20.029
						C73.51,18.237,72.057,16.785,70.265,16.785z"/>
					<path fill="#626463" d="M58.773,20.029c0-1.792,1.452-3.244,3.244-3.244h8.247c1.792,0,3.245,1.452,3.245,3.244v19.206h2.126
						V18.264c0-2.309-1.872-4.18-4.182-4.18H60.827c-2.308,0-4.18,1.871-4.18,4.18v20.971h2.126V20.029z"/>
				</g>
				<path fill="#626463" d="M76.648,16.195c0,1.165-0.747,2.109-1.669,2.109H57.219c-0.922,0-1.669-0.944-1.669-2.109l0,0
					c0-1.166,0.747-2.11,1.669-2.11h17.761C75.901,14.084,76.648,15.029,76.648,16.195L76.648,16.195z"/>
			</g>
			<path fill="#67B8CB" d="M94.54,113.5c0,3.356-2.721,6.077-6.076,6.077H44.241c-3.356,0-6.077-2.721-6.077-6.077V45.226
				c0-3.356,2.721-6.076,6.077-6.076h44.223c3.355,0,6.076,2.72,6.076,6.076V113.5z"/>
			<g>
				<path fill="#40ABB6" d="M89.034,108.271c0,2.7-2.189,4.889-4.891,4.889H48.561c-2.7,0-4.891-2.188-4.891-4.889V78.897
					c0-2.7,2.19-4.89,4.891-4.89h35.583c2.701,0,4.891,2.189,4.891,4.89V108.271z"/>
				<path fill="#58B4C3" d="M89.034,111.225c0,2.7-2.189,4.89-4.891,4.89H48.561c-2.7,0-4.891-2.189-4.891-4.89l0.739-29.374
					c0-2.7,2.19-4.89,4.89-4.89h33.938c2.7,0,4.889,2.189,4.889,4.89L89.034,111.225z"/>
				<g>
					<path fill="#40ABB6" d="M81.206,82.169H51.33c-0.373,0-0.676,0.661-0.676,1.478c0,0.814,0.303,1.477,0.676,1.477h29.876
						c0.373,0,0.676-0.662,0.676-1.477C81.882,82.831,81.579,82.169,81.206,82.169z"/>
					<path fill="#28868C" d="M81.206,83.309H51.33c-0.373,0-0.676,0.151-0.676,0.338s0.303,0.338,0.676,0.338h29.876
						c0.373,0,0.676-0.151,0.676-0.338S81.579,83.309,81.206,83.309z"/>
					<path fill="#258B90" d="M81.679,84.536c0-0.008,0-0.016,0-0.022c0-0.474-0.249-0.855-0.558-0.855s-0.558,0.382-0.558,0.855
						c0,0.007,0.001,0.015,0.001,0.022c-0.099,0.123-0.161,0.277-0.161,0.448c0,0.396,0.322,0.717,0.718,0.717
						c0.397,0,0.718-0.321,0.718-0.717C81.839,84.813,81.776,84.659,81.679,84.536z"/>
				</g>
			</g>
			<g>
				<g>
					<path fill="#40ABB6" d="M89.034,63.54c0,2.7-2.189,4.889-4.891,4.889H48.561c-2.7,0-4.891-2.188-4.891-4.889V49.862
						c0-2.699,2.19-4.89,4.891-4.89h35.583c2.701,0,4.891,2.19,4.891,4.89V63.54z"/>
					<path fill="#58B4C3" d="M89.034,63.54c0,2.7-2.189,4.889-4.891,4.889H48.561c-2.7,0-4.891-2.188-4.891-4.889l0.739-11.227
						c0-2.7,2.19-4.89,4.89-4.89h33.938c2.7,0,4.889,2.189,4.889,4.89L89.034,63.54z"/>
				</g>
				<g>
					<path fill="#40ABB6" d="M81.206,49.89H51.33c-0.373,0-0.676,0.66-0.676,1.476s0.303,1.479,0.676,1.479h29.876
						c0.373,0,0.676-0.663,0.676-1.479S81.579,49.89,81.206,49.89z"/>
					<path fill="#28868C" d="M81.206,51.029H51.33c-0.373,0-0.676,0.15-0.676,0.337s0.303,0.338,0.676,0.338h29.876
						c0.373,0,0.676-0.151,0.676-0.338S81.579,51.029,81.206,51.029z"/>
					<path fill="#258B90" d="M81.679,52.255c0-0.008,0-0.016,0-0.024c0-0.473-0.249-0.854-0.558-0.854s-0.558,0.382-0.558,0.854
						c0,0.009,0.001,0.017,0.001,0.024c-0.099,0.123-0.161,0.276-0.161,0.447c0,0.396,0.322,0.717,0.718,0.717
						c0.397,0,0.718-0.32,0.718-0.717C81.839,52.532,81.776,52.378,81.679,52.255z"/>
				</g>
			</g>
		</g>
		<g>
			<g>
				<path fill="#258B90" d="M44.479,46.869l-0.188-0.435c1.431-0.627,2.201-1.576,2.201-2.175c0-0.649-0.918-1.194-1.271-1.351
					l0.19-0.434c0.063,0.027,1.555,0.691,1.556,1.782C46.967,45.084,46.143,46.138,44.479,46.869z"/>
			</g>
			<g>
				<path fill="#31A3A8" d="M42.968,42.168c0,0-3.802,6.111-3.26,7.627l3.998,11.197c0.54,1.514,1.68,1.977,3.194,1.436l5.941-2.121
					c1.515-0.541,2.01-1.588,1.469-3.102l-3.998-11.198C49.771,44.494,42.968,42.168,42.968,42.168z M45.047,47.373
					c-0.59,0.211-1.238-0.096-1.448-0.685s0.097-1.236,0.686-1.448c0.589-0.21,1.237,0.098,1.447,0.686
					C45.942,46.514,45.635,47.163,45.047,47.373z"/>
			</g>
			<g>
				<path fill="#4EA5AE" d="M42.823,42.408c0,0-3.666,5.931-3.138,7.409l3.901,10.929c0.529,1.479,1.55,1.963,3.028,1.435
					l5.799-2.071c1.479-0.527,1.962-1.548,1.434-3.027l-3.903-10.929C49.417,44.675,42.823,42.408,42.823,42.408z M44.805,47.485
					c-0.575,0.205-1.208-0.094-1.413-0.669s0.095-1.208,0.669-1.413c0.576-0.205,1.207,0.096,1.413,0.67
					C45.678,46.647,45.379,47.28,44.805,47.485z"/>
			</g>
			<g>
				<path fill="#258B90" d="M44.479,46.869c-0.023,0.008-0.051,0.014-0.078,0.013c-0.132,0-0.237-0.105-0.237-0.237
					c0-0.178,0.04-4.389,3.127-6.817c2.145-1.688,5.206-2.068,9.1-1.132c0.127,0.029,0.206,0.158,0.175,0.286
					c-0.03,0.127-0.158,0.204-0.285,0.174c-3.747-0.901-6.673-0.55-8.697,1.044c-2.907,2.288-2.945,6.404-2.945,6.445
					C44.637,46.748,44.571,46.834,44.479,46.869z"/>
			</g>
			<path fill="#FFFFFF" d="M42.268,51.417c-0.277-0.778,0.081-1.619,0.804-1.876l4.302-1.537c0.722-0.257,1.532,0.166,1.81,0.943
				l2.81,7.87c0.279,0.779-0.081,1.619-0.802,1.877l-4.302,1.536c-0.722,0.258-1.532-0.164-1.812-0.942L42.268,51.417z"/>
			<path fill="#94D6E2" d="M43.301,50.411c-0.228,0.082-0.348,0.334-0.266,0.563l2.89,8.095c0.082,0.229,0.334,0.348,0.563,0.266
				s0.349-0.333,0.267-0.562l-2.891-8.095C43.781,50.449,43.529,50.33,43.301,50.411z"/>
			<path fill="#94D6E2" d="M45.085,49.774c-0.229,0.082-0.347,0.333-0.266,0.563l2.89,8.093c0.083,0.229,0.334,0.349,0.563,0.267
				c0.228-0.082,0.348-0.332,0.266-0.562l-2.891-8.095C45.566,49.811,45.314,49.692,45.085,49.774z"/>
			<path fill="#94D6E2" d="M46.87,49.136c-0.229,0.082-0.348,0.334-0.266,0.563l2.89,8.094c0.082,0.229,0.333,0.348,0.563,0.266
				c0.228-0.081,0.348-0.333,0.266-0.562l-2.89-8.094C47.351,49.174,47.099,49.055,46.87,49.136z"/>
		</g>
	</g>
</g>
</svg>
