<?xml version="1.0" encoding="utf-8"?>
<!-- Generator: Adobe Illustrator 16.0.0, SVG Export Plug-In . SVG Version: 6.00 Build 0)  -->
<!DOCTYPE svg PUBLIC "-//W3C//DTD SVG 1.1//EN" "http://www.w3.org/Graphics/SVG/1.1/DTD/svg11.dtd">
<svg version="1.1" id="Layer_1" xmlns="http://www.w3.org/2000/svg" xmlns:xlink="http://www.w3.org/1999/xlink" x="0px" y="0px"
	 width="136.913px" height="136.913px" viewBox="0 0 136.913 136.913" enable-background="new 0 0 136.913 136.913"
	 xml:space="preserve">
<g>
	<g>
		<g>
			<g>
				<g>
					<circle fill="#4ABC96" cx="68.456" cy="68.457" r="63.333"/>
				</g>
			</g>
		</g>
	</g>
	<g>
		<g>
			<path fill="#EF5E8F" d="M82.455,24.291l-3.971-1.77l-11.125-4.885l-0.838-0.359c-0.09-0.031-0.18-0.064-0.271-0.092
				c-0.512-0.146-1.055-0.225-1.619-0.225c-3.033,0-5.494,2.281-5.494,5.096c0,0.504,0.082,0.988,0.229,1.445L66.9,72.76
				l2.668-0.408l-6.971-45.563l-0.502-3.279c-0.549-3.729,3.115-3.633,4.955-3.068l3.059,1.314l7.277,3.232l0.01-0.023l3.969,1.77
				c0.6,0.268,1.33-0.063,1.631-0.736S83.055,24.559,82.455,24.291z"/>
		</g>
		<rect x="65.355" y="75.738" fill="#CFE6E9" width="4.627" height="43.09"/>
		<ellipse fill="#CFE6E9" cx="67.958" cy="118.539" rx="16.194" ry="1.158"/>
		<path opacity="0.8" fill="#CFE6E9" d="M69.867,77.762h-4.398c-0.416,0-24.984-25.883-24.984-30.652
			c0-3.277,3.107-3.664,6.941-3.664h40.486c3.832,0,6.939,0,6.939,3.664C94.852,51.957,70.283,77.762,69.867,77.762z"/>
		<path fill="#F1F8F9" d="M67.668,75.643c-2.891,0-14.459-14.219-14.459-14.219l28.773-0.145
			C81.982,61.279,70.561,75.643,67.668,75.643z"/>
		<g>
			<g>
				<g>
					<path fill="#F4E028" d="M91.832,35.914c5.428,2.852,7.559,9.498,4.861,14.967l1.799,0.945
						c3.217-6.459,0.699-14.332-5.719-17.705c-6.42-3.371-14.332-0.975-17.822,5.34l1.799,0.945
						C79.721,35.082,86.404,33.063,91.832,35.914z"/>
				</g>
				<g>
					<path fill="#F9F29A" d="M91.832,35.914c-5.428-2.852-12.111-0.832-15.082,4.492l5.688,3.063l1.447-0.023l1.746,0.047
						l2.367,2.822l8.695,4.566C99.391,45.412,97.26,38.766,91.832,35.914z"/>
				</g>
			</g>
			<g>
				<path fill="#F4E028" d="M87.348,44.738c-0.045,0-0.09-0.012-0.133-0.035c-0.143-0.072-0.197-0.248-0.123-0.389l2.824-5.377
					c0.076-0.141,0.25-0.197,0.391-0.121c0.143,0.074,0.197,0.25,0.123,0.391l-2.824,5.375
					C87.553,44.68,87.453,44.738,87.348,44.738z"/>
			</g>
			<g>
				<path fill="#F4E028" d="M88.895,46.506c-0.123,0-0.238-0.08-0.275-0.205c-0.049-0.152,0.037-0.314,0.189-0.361l5.799-1.805
					c0.154-0.049,0.314,0.037,0.363,0.189c0.047,0.154-0.039,0.314-0.191,0.363l-5.799,1.805
					C88.951,46.502,88.922,46.506,88.895,46.506z"/>
			</g>
			<g>
				<path fill="#F4E028" d="M84.49,43.465l-1.555-5c-0.049-0.152,0.037-0.314,0.189-0.361c0.154-0.049,0.314,0.039,0.363,0.189
					l1.615,5.191L84.49,43.465z"/>
			</g>
		</g>
	</g>
</g>
</svg>
