<?xml version="1.0" encoding="utf-8"?>
<!-- Generator: Adobe Illustrator 16.0.0, SVG Export Plug-In . SVG Version: 6.00 Build 0)  -->
<!DOCTYPE svg PUBLIC "-//W3C//DTD SVG 1.1//EN" "http://www.w3.org/Graphics/SVG/1.1/DTD/svg11.dtd">
<svg version="1.1" id="Layer_1" xmlns="http://www.w3.org/2000/svg" xmlns:xlink="http://www.w3.org/1999/xlink" x="0px" y="0px"
	 width="136.913px" height="136.913px" viewBox="0 0 136.913 136.913" enable-background="new 0 0 136.913 136.913"
	 xml:space="preserve">
<g>
	<g>
		<g>
			<g>
				<g>
					<g>
						<g>
							<g>
								<circle fill="#344E5D" cx="68.456" cy="68.455" r="63.333"/>
							</g>
						</g>
					</g>
				</g>
			</g>
		</g>
	</g>
	<g>
		<g>
			<g>
				<g>
					<g>
						<g>
							<g>
								<path fill="#83CECA" d="M82.127,46.68c-2.713-9.422-7.09-15.543-12.033-15.543c-5.234,0-9.836,6.865-12.496,17.244
									c3.662,0.867,7.596,2.148,11.648,3.828C73.723,49.805,78.094,47.941,82.127,46.68z"/>
							</g>
						</g>
					</g>
				</g>
				<g>
					<g>
						<g>
							<g>
								<path fill="#039A88" d="M69.303,53.314l-0.439-0.182c-3.949-1.637-7.818-2.908-11.496-3.779l-0.99-0.234l0.252-0.988
									c2.889-11.268,7.922-17.994,13.465-17.994c5.281,0,10.018,5.928,12.994,16.266l0.271,0.939l-0.934,0.291
									c-4.051,1.27-8.326,3.105-12.705,5.457L69.303,53.314z M58.826,47.652c3.342,0.848,6.822,2.006,10.365,3.453
									c4.012-2.129,7.939-3.834,11.699-5.078c-2.676-8.719-6.68-13.891-10.797-13.891C65.736,32.137,61.461,38.053,58.826,47.652z
									"/>
							</g>
						</g>
					</g>
				</g>
			</g>
			<g>
				<g>
					<g>
						<g>
							<g>
								<path fill="#83CECA" d="M58.059,91.436c2.713,9.42,7.092,15.541,12.035,15.541c5.232,0,9.834-6.865,12.492-17.242
									c-3.66-0.867-7.594-2.15-11.648-3.83C66.463,88.311,62.092,90.172,58.059,91.436z"/>
							</g>
						</g>
					</g>
				</g>
				<g>
					<g>
						<g>
							<g>
								<path fill="#039A88" d="M70.094,107.977c-5.281,0-10.02-5.928-12.996-16.264l-0.27-0.939l0.932-0.291
									c4.068-1.277,8.344-3.113,12.705-5.459l0.418-0.225l0.438,0.182c3.955,1.637,7.822,2.91,11.496,3.781l0.992,0.234
									l-0.254,0.986C80.67,101.25,75.637,107.977,70.094,107.977z M59.297,92.088c2.676,8.717,6.68,13.889,10.797,13.889
									c4.357,0,8.633-5.916,11.266-15.514c-3.34-0.848-6.82-2.008-10.365-3.455C66.998,89.131,63.068,90.836,59.297,92.088z"/>
							</g>
						</g>
					</g>
				</g>
			</g>
			<g>
				<g>
					<g>
						<g>
							<g>
								<path fill="#83CECA" d="M45.73,70.281c-7.035,7.854-10.127,15.365-7.271,19.686c2.725,4.123,10.246,4.4,19.6,1.469
									c-1.154-4.01-2.004-8.621-2.471-13.615C51.859,75.396,48.535,72.844,45.73,70.281z"/>
							</g>
						</g>
					</g>
				</g>
				<g>
					<g>
						<g>
							<g>
								<path fill="#039A88" d="M47.078,94.387L47.078,94.387c-4.512,0-7.779-1.338-9.453-3.869
									c-3.066-4.641-0.383-12.26,7.361-20.904l0.674-0.752l0.746,0.682c2.807,2.564,6.08,5.066,9.727,7.439l0.406,0.264
									l0.045,0.48c0.457,4.883,1.275,9.402,2.436,13.434l0.271,0.938l-0.934,0.293C54.131,93.715,50.334,94.387,47.078,94.387z
									 M45.814,71.701c-6.395,7.389-8.893,14.127-6.521,17.715c1.625,2.455,5.129,2.971,7.785,2.971
									c2.775,0,6.131-0.559,9.756-1.623c-1.02-3.77-1.756-7.924-2.195-12.369C51.381,76.252,48.418,74.004,45.814,71.701z"/>
							</g>
						</g>
					</g>
				</g>
			</g>
			<g>
				<g>
					<g>
						<g>
							<g>
								<path fill="#83CECA" d="M94.457,67.834c7.033-7.854,10.125-15.365,7.27-19.686c-2.725-4.123-10.246-4.4-19.6-1.469
									c1.156,4.012,2.006,8.621,2.471,13.615C88.326,62.717,91.65,65.271,94.457,67.834z"/>
							</g>
						</g>
					</g>
				</g>
				<g>
					<g>
						<g>
							<g>
								<path fill="#039A88" d="M94.529,69.252l-0.746-0.68c-2.818-2.572-6.092-5.076-9.73-7.439l-0.406-0.264l-0.045-0.482
									c-0.453-4.881-1.273-9.398-2.436-13.432l-0.27-0.938l0.932-0.293c4.229-1.324,8.023-1.998,11.281-1.998
									c4.51,0,7.779,1.338,9.451,3.869c3.066,4.641,0.385,12.26-7.357,20.904L94.529,69.252z M85.547,59.721
									c3.25,2.137,6.215,4.383,8.828,6.693c6.393-7.389,8.889-14.127,6.518-17.715c-1.623-2.457-5.129-2.973-7.783-2.973
									c-2.775,0-6.133,0.561-9.756,1.625C84.373,51.121,85.111,55.275,85.547,59.721z"/>
							</g>
						</g>
					</g>
				</g>
			</g>
			<g>
				<g>
					<g>
						<g>
							<g>
								<path fill="#83CECA" d="M77.027,55.859c2.672,1.404,5.201,2.893,7.57,4.436c-0.465-4.994-1.314-9.604-2.471-13.615
									c-4.033,1.262-8.404,3.125-12.881,5.529C71.807,53.271,74.412,54.486,77.027,55.859z"/>
							</g>
						</g>
					</g>
				</g>
				<g>
					<g>
						<g>
							<g>
								<path fill="#039A88" d="M85.785,62.26l-1.732-1.127c-2.393-1.559-4.914-3.035-7.49-4.389
									c-2.508-1.316-5.1-2.533-7.699-3.611l-1.945-0.807l1.855-0.998c4.492-2.412,8.885-4.297,13.055-5.604l0.977-0.305
									l0.283,0.982c1.197,4.152,2.039,8.795,2.506,13.799L85.785,62.26z M71.578,52.119c1.998,0.883,3.98,1.838,5.914,2.854
									c2.01,1.057,3.986,2.186,5.896,3.369c-0.434-3.713-1.086-7.195-1.945-10.391C78.266,49.008,74.959,50.404,71.578,52.119z"/>
							</g>
						</g>
					</g>
				</g>
			</g>
			<g>
				<g>
					<g>
						<g>
							<g>
								<path fill="#83CECA" d="M63.158,82.256c-2.672-1.404-5.199-2.895-7.57-4.436c0.467,4.994,1.316,9.605,2.471,13.615
									c4.033-1.264,8.404-3.125,12.879-5.531C68.379,84.844,65.773,83.629,63.158,82.256z"/>
							</g>
						</g>
					</g>
				</g>
				<g>
					<g>
						<g>
							<g>
								<path fill="#039A88" d="M57.381,92.697l-0.283-0.984c-1.193-4.15-2.037-8.793-2.506-13.799L54.4,75.855l1.732,1.127
									c2.414,1.568,4.936,3.045,7.49,4.387c2.51,1.32,5.1,2.533,7.697,3.611l1.947,0.807l-1.855,0.998
									c-4.473,2.406-8.865,4.291-13.055,5.605L57.381,92.697z M56.799,79.773c0.434,3.713,1.086,7.195,1.943,10.391
									c3.189-1.063,6.496-2.459,9.865-4.17c-1.998-0.881-3.979-1.838-5.914-2.854C60.697,82.092,58.721,80.963,56.799,79.773z"/>
							</g>
						</g>
					</g>
				</g>
			</g>
			<g>
				<g>
					<g>
						<g>
							<g>
								<path fill="#83CECA" d="M55.504,61.213c0.385-4.65,1.107-8.982,2.094-12.832c-10.424-2.475-18.639-1.594-21.074,3.041
									c-2.408,4.586,1.42,11.75,9.207,18.859C48.441,67.256,51.738,64.178,55.504,61.213z"/>
							</g>
						</g>
					</g>
				</g>
				<g>
					<g>
						<g>
							<g>
								<path fill="#039A88" d="M45.803,71.701l-0.746-0.682c-8.572-7.824-12.004-15.139-9.418-20.063
									c1.693-3.223,5.74-4.926,11.703-4.926c3.111,0,6.641,0.463,10.486,1.375l0.992,0.236l-0.254,0.986
									c-0.998,3.895-1.691,8.156-2.064,12.666l-0.037,0.436l-0.342,0.268c-3.67,2.891-6.916,5.902-9.646,8.951L45.803,71.701z
									 M47.342,48.031c-5.1,0-8.627,1.369-9.934,3.855c-1.998,3.809,1.16,10.264,8.264,16.975
									c2.572-2.781,5.551-5.523,8.873-8.164c0.357-4.084,0.975-7.969,1.838-11.568C53.07,48.4,50.033,48.031,47.342,48.031z"/>
							</g>
						</g>
					</g>
				</g>
			</g>
			<g>
				<g>
					<g>
						<g>
							<g>
								<path fill="#83CECA" d="M94.457,67.834c-2.713,3.027-6.01,6.104-9.775,9.068c-0.385,4.648-1.107,8.98-2.096,12.832
									c10.424,2.471,18.641,1.594,21.076-3.041C106.07,82.107,102.242,74.943,94.457,67.834z"/>
							</g>
						</g>
					</g>
				</g>
				<g>
					<g>
						<g>
							<g>
								<path fill="#039A88" d="M92.846,92.082c-0.002,0-0.002,0-0.002,0c-3.111,0-6.641-0.463-10.488-1.375l-0.99-0.234
									l0.252-0.986c1-3.893,1.695-8.154,2.068-12.668l0.035-0.434l0.344-0.27c3.674-2.893,6.92-5.902,9.648-8.949l0.674-0.752
									l0.746,0.682c8.568,7.824,12,15.139,9.416,20.063C102.855,90.379,98.809,92.082,92.846,92.082z M83.803,88.986
									c3.313,0.727,6.35,1.096,9.041,1.096c5.1,0,8.627-1.369,9.934-3.854c2-3.809-1.16-10.264-8.26-16.975
									c-2.57,2.779-5.551,5.52-8.875,8.164C85.283,81.504,84.666,85.387,83.803,88.986z"/>
							</g>
						</g>
					</g>
				</g>
			</g>
			<g>
				<g>
					<g>
						<g>
							<g>
								<path fill="#83CECA" d="M78.314,81.494c-2.465,1.629-4.936,3.098-7.377,4.41c4.055,1.68,7.988,2.963,11.648,3.83
									c0.988-3.852,1.711-8.184,2.096-12.832C82.684,78.471,80.557,80.01,78.314,81.494z"/>
							</g>
						</g>
					</g>
				</g>
				<g>
					<g>
						<g>
							<g>
								<path fill="#039A88" d="M83.311,90.934l-0.955-0.227c-3.777-0.896-7.748-2.201-11.801-3.879l-1.947-0.809l1.857-0.996
									c2.467-1.326,4.922-2.793,7.299-4.363c2.172-1.438,4.291-2.967,6.301-4.545l1.803-1.416l-0.188,2.285
									c-0.383,4.625-1.098,8.998-2.125,12.998L83.311,90.934z M73.268,85.76c2.936,1.135,5.814,2.063,8.588,2.766
									c0.711-2.959,1.252-6.121,1.613-9.434c-1.494,1.115-3.035,2.199-4.602,3.236C77.035,83.537,75.16,84.688,73.268,85.76z"/>
							</g>
						</g>
					</g>
				</g>
			</g>
			<g>
				<g>
					<g>
						<g>
							<g>
								<path fill="#83CECA" d="M61.871,56.619c2.465-1.627,4.936-3.096,7.375-4.41c-4.053-1.68-7.986-2.961-11.648-3.828
									c-0.986,3.85-1.709,8.182-2.094,12.832C57.502,59.645,59.627,58.104,61.871,56.619z"/>
							</g>
						</g>
					</g>
				</g>
				<g>
					<g>
						<g>
							<g>
								<path fill="#039A88" d="M54.318,63.416l0.189-2.285c0.383-4.623,1.096-8.996,2.121-12.998l0.244-0.951l0.955,0.225
									c3.783,0.896,7.752,2.201,11.801,3.879l1.945,0.807l-1.854,0.998c-2.479,1.334-4.934,2.803-7.299,4.363
									c-2.148,1.422-4.268,2.951-6.299,4.547L54.318,63.416z M58.328,49.588c-0.709,2.961-1.248,6.123-1.609,9.436
									c1.504-1.125,3.045-2.209,4.602-3.238c1.822-1.203,3.699-2.354,5.598-3.432C63.984,51.219,61.105,50.293,58.328,49.588z"/>
							</g>
						</g>
					</g>
				</g>
			</g>
			<g>
				<g>
					<g>
						<g>
							<g>
								<path fill="#83CECA" d="M85.002,69.057c0,2.691-0.113,5.314-0.32,7.846c3.766-2.965,7.063-6.041,9.775-9.068
									c-2.807-2.563-6.131-5.117-9.859-7.539C84.859,63.107,85.002,66.039,85.002,69.057z"/>
							</g>
						</g>
					</g>
				</g>
				<g>
					<g>
						<g>
							<g>
								<path fill="#039A88" d="M83.498,79.105l0.188-2.285c0.211-2.572,0.316-5.184,0.316-7.764c0-2.9-0.135-5.816-0.4-8.67
									L83.41,58.33l1.732,1.125c3.73,2.424,7.09,4.994,9.988,7.639l0.732,0.668l-0.66,0.738c-2.807,3.133-6.139,6.223-9.902,9.188
									L83.498,79.105z M85.764,62.271c0.158,2.248,0.238,4.521,0.238,6.785c0,1.867-0.055,3.75-0.162,5.625
									c2.664-2.211,5.078-4.482,7.201-6.777C90.855,65.975,88.418,64.088,85.764,62.271z"/>
							</g>
						</g>
					</g>
				</g>
			</g>
			<g>
				<g>
					<g>
						<g>
							<g>
								<path fill="#83CECA" d="M55.184,69.057c0-2.688,0.111-5.313,0.32-7.844c-3.766,2.965-7.063,6.043-9.773,9.068
									c2.805,2.563,6.129,5.115,9.857,7.539C55.326,75.008,55.184,72.074,55.184,69.057z"/>
							</g>
						</g>
					</g>
				</g>
				<g>
					<g>
						<g>
							<g>
								<path fill="#039A88" d="M56.775,79.785l-1.732-1.127c-3.738-2.432-7.1-5.002-9.986-7.639l-0.73-0.668l0.66-0.736
									c2.809-3.137,6.139-6.227,9.9-9.188l1.803-1.42l-0.188,2.287c-0.211,2.547-0.318,5.158-0.318,7.762
									c0,2.9,0.135,5.818,0.4,8.672L56.775,79.785z M47.148,70.211c2.178,1.924,4.615,3.813,7.275,5.631
									c-0.16-2.248-0.24-4.521-0.24-6.785c0-1.879,0.055-3.762,0.162-5.621C51.684,65.645,49.271,67.914,47.148,70.211z"/>
							</g>
						</g>
					</g>
				</g>
			</g>
			<g>
				<g>
					<g>
						<g>
							<g>
								<path fill="#83CECA" d="M84.598,60.295c-2.369-1.543-4.898-3.031-7.57-4.436c-2.615-1.373-5.221-2.588-7.781-3.65
									c-2.439,1.314-4.91,2.783-7.375,4.41c-2.244,1.484-4.369,3.025-6.367,4.594c-0.209,2.531-0.32,5.156-0.32,7.844
									c0,3.018,0.143,5.951,0.404,8.764c2.371,1.541,4.898,3.031,7.57,4.436c2.615,1.373,5.221,2.588,7.779,3.648
									c2.441-1.313,4.912-2.781,7.377-4.41c2.242-1.484,4.369-3.023,6.367-4.592c0.207-2.531,0.32-5.154,0.32-7.846
									C85.002,66.039,84.859,63.107,84.598,60.295z"/>
							</g>
						</g>
					</g>
				</g>
				<g>
					<g>
						<g>
							<g>
								<path fill="#039A88" d="M70.994,87.01l-0.439-0.182c-2.652-1.1-5.299-2.342-7.861-3.688
									c-2.611-1.371-5.184-2.879-7.65-4.482l-0.406-0.264l-0.045-0.48c-0.27-2.916-0.408-5.895-0.408-8.857
									c0-2.658,0.109-5.324,0.324-7.926l0.035-0.436l0.344-0.27c2.074-1.629,4.238-3.189,6.434-4.641
									c2.414-1.594,4.92-3.094,7.453-4.457l0.418-0.225l0.438,0.182c2.656,1.102,5.303,2.344,7.863,3.688
									c2.633,1.385,5.207,2.893,7.652,4.484l0.404,0.264l0.045,0.48c0.271,2.914,0.408,5.895,0.408,8.855
									c0,2.635-0.109,5.301-0.322,7.926l-0.037,0.436l-0.342,0.27c-2.053,1.611-4.217,3.172-6.434,4.641
									c-2.428,1.604-4.938,3.104-7.455,4.457L70.994,87.01z M56.541,77.246c2.289,1.471,4.67,2.855,7.082,4.123
									c2.369,1.246,4.809,2.396,7.26,3.428c2.324-1.266,4.639-2.656,6.881-4.137c2.049-1.355,4.051-2.793,5.957-4.275
									c0.188-2.432,0.281-4.895,0.281-7.328c0-2.736-0.119-5.488-0.355-8.188c-2.271-1.461-4.652-2.848-7.084-4.125
									c-2.367-1.244-4.809-2.395-7.26-3.428c-2.338,1.273-4.65,2.664-6.881,4.137c-2.027,1.342-4.029,2.779-5.955,4.277
									c-0.188,2.408-0.283,4.871-0.283,7.326C56.184,71.793,56.305,74.547,56.541,77.246z"/>
							</g>
						</g>
					</g>
				</g>
			</g>
			<g>
				<g>
					<g>
						<g>
							<g>
								<circle fill="#039A88" cx="77.496" cy="36.834" r="4.537"/>
							</g>
						</g>
					</g>
				</g>
			</g>
			<g>
				<g>
					<g>
						<g>
							<g>
								<circle fill="#039A88" cx="45.836" cy="92.729" r="4.537"/>
							</g>
						</g>
					</g>
				</g>
			</g>
			<g>
				<g>
					<g>
						<g>
							<g>
								<path fill="#039A88" d="M85.313,72.166c-2.504,0-4.535,2.031-4.535,4.537c0,2.504,2.031,4.537,4.535,4.537
									c2.508,0,4.539-2.033,4.539-4.537C89.852,74.197,87.82,72.166,85.313,72.166z"/>
							</g>
						</g>
					</g>
				</g>
			</g>
		</g>
	</g>
</g>
</svg>
