<?xml version="1.0" encoding="utf-8"?>
<!-- Generator: Adobe Illustrator 16.0.0, SVG Export Plug-In . SVG Version: 6.00 Build 0)  -->
<!DOCTYPE svg PUBLIC "-//W3C//DTD SVG 1.1//EN" "http://www.w3.org/Graphics/SVG/1.1/DTD/svg11.dtd">
<svg version="1.1" id="Layer_1" xmlns="http://www.w3.org/2000/svg" xmlns:xlink="http://www.w3.org/1999/xlink" x="0px" y="0px"
	 width="136.913px" height="136.914px" viewBox="0 0 136.913 136.914" enable-background="new 0 0 136.913 136.914"
	 xml:space="preserve">
<g>
	<g>
		<g>
			<circle fill="#40BCA3" cx="68.456" cy="68.456" r="63.333"/>
		</g>
	</g>
	<g>
		<path fill="#E84849" d="M20.088,68.417c0-26.927,21.826-48.756,48.756-48.756c26.928,0,48.754,21.829,48.754,48.756
			c0,26.928-21.826,48.757-48.754,48.757C41.914,117.174,20.088,95.345,20.088,68.417z"/>
		<circle fill="#F6A2A3" cx="68.843" cy="68.417" r="42.122"/>
		<ellipse fill="#E9E9EA" cx="68.843" cy="68.417" rx="38.741" ry="37.847"/>
		<ellipse fill="#E9E9EA" cx="68.844" cy="70.985" rx="38.742" ry="37.847"/>
		<g>
			<circle fill="#626463" cx="69.14" cy="68.075" r="6.47"/>
			<path fill="#626463" d="M69.766,69.594c-0.459,0.46-1.41,0.254-2.121-0.458l0,0c-0.713-0.713-0.918-1.663-0.457-2.122
				l15.023-15.026c0.459-0.46,1.41-0.255,2.123,0.46l0,0c0.713,0.711,0.918,1.662,0.457,2.121L69.766,69.594z"/>
			<path fill="#626463" d="M67.645,68.918c-0.527-0.525-0.527-1.379,0-1.906l0,0c0.525-0.525,1.379-0.526,1.906,0l21.785,21.787
				c0.527,0.526,0.527,1.38,0,1.907l0,0c-0.523,0.525-1.379,0.525-1.906,0L67.645,68.918z"/>
		</g>
		<g>
			<path fill="none" d="M68.844,33.138c-19.133,0-35.014,13.552-38.164,31.361h76.328C103.855,46.689,87.975,33.138,68.844,33.138z"
				/>
			<path fill="#DDDFDF" d="M68.871,34.625c30.912,0.258,38.482,28.994,38.482,28.994c-2.883-18.66-19.041-33.049-38.51-33.049
				s-35.57,14.389-38.451,33.049C30.393,63.619,37.959,34.367,68.871,34.625z"/>
		</g>
	</g>
</g>
</svg>
