<?xml version="1.0" encoding="utf-8"?>
<!-- Generator: Adobe Illustrator 16.0.0, SVG Export Plug-In . SVG Version: 6.00 Build 0)  -->
<!DOCTYPE svg PUBLIC "-//W3C//DTD SVG 1.1//EN" "http://www.w3.org/Graphics/SVG/1.1/DTD/svg11.dtd">
<svg version="1.1" id="Layer_1" xmlns="http://www.w3.org/2000/svg" xmlns:xlink="http://www.w3.org/1999/xlink" x="0px" y="0px"
	 width="136.914px" height="136.914px" viewBox="0 0 136.914 136.914" enable-background="new 0 0 136.914 136.914"
	 xml:space="preserve">
<g>
	<circle fill="#D7DABA" cx="68.457" cy="68.458" r="63.333"/>
	<g>
		<path fill="#327477" d="M99.778,101.151c0,0.967-0.782,1.748-1.746,1.748H39.313c-0.963,0-1.746-0.781-1.746-1.748V32.374
			c0-0.965,0.783-1.748,1.746-1.748h58.719c0.964,0,1.746,0.783,1.746,1.748V101.151z"/>
		<path fill="#3B7F89" d="M99.778,105.876c0,0.965-0.782,1.748-1.746,1.748H42.621l0.001-64.93h55.41
			c0.964,0,1.746,0.783,1.746,1.748V105.876z"/>
		<rect x="41.913" y="41.786" fill="#4699A1" width="1.063" height="65.838"/>
		<path fill="#2A646E" d="M42.089,30.626h-2.775c-0.963,0-1.746,0.783-1.746,1.748v73.502c0,0.965,0.783,1.748,1.746,1.748h2.775
			V30.626z"/>
		<path fill="#E9E9EA" d="M96.63,42.673H43.536c-1.811,0-3.277-1.469-3.277-3.279v-2.154c0-1.809,1.467-3.277,3.277-3.277h49.816
			c1.811,0,3.277,1.469,3.277,3.277V42.673z"/>
		<g>
			<path fill="#2A646E" d="M81.153,72.364H61.509c-2.318,0-4.205-1.887-4.205-4.205V57.964c0-2.316,1.887-4.203,4.205-4.203h19.645
				c2.318,0,4.204,1.887,4.204,4.203v10.195C85.357,70.478,83.472,72.364,81.153,72.364z"/>
		</g>
		<path fill="#2A646E" d="M87.895,82.858c0,0.754-0.587,1.365-1.312,1.365H55.492c-0.725,0-1.313-0.611-1.313-1.365l0,0
			c0-0.756,0.588-1.367,1.313-1.367h31.091C87.308,81.491,87.895,82.103,87.895,82.858L87.895,82.858z"/>
		<path fill="#2A646E" d="M87.895,87.929c0,0.754-0.587,1.365-1.312,1.365H55.492c-0.725,0-1.313-0.611-1.313-1.365l0,0
			c0-0.754,0.588-1.367,1.313-1.367h31.091C87.308,86.562,87.895,87.175,87.895,87.929L87.895,87.929z"/>
		<path fill="#2A646E" d="M82.371,95.47c0,0.506-0.396,0.918-0.883,0.918H60.587c-0.488,0-0.884-0.412-0.884-0.918l0,0
			c0-0.506,0.396-0.918,0.884-0.918h20.901C81.976,94.552,82.371,94.964,82.371,95.47L82.371,95.47z"/>
	</g>
</g>
</svg>
