<?xml version="1.0" encoding="utf-8"?>
<!-- Generator: Adobe Illustrator 16.0.0, SVG Export Plug-In . SVG Version: 6.00 Build 0)  -->
<!DOCTYPE svg PUBLIC "-//W3C//DTD SVG 1.1//EN" "http://www.w3.org/Graphics/SVG/1.1/DTD/svg11.dtd">
<svg version="1.1" id="Layer_1" xmlns="http://www.w3.org/2000/svg" xmlns:xlink="http://www.w3.org/1999/xlink" x="0px" y="0px"
	 width="136.914px" height="136.914px" viewBox="0 0 136.914 136.914" enable-background="new 0 0 136.914 136.914"
	 xml:space="preserve">
<g>
	<g>
		<g>
			<circle fill="#EDC92C" cx="68.456" cy="68.456" r="63.333"/>
		</g>
	</g>
	<g>
		<g>
			<g>
				<path fill="#E84849" d="M68.457,5.123c-34.979,0-63.334,28.354-63.334,63.333c0,29.071,19.594,53.549,46.291,60.995
					c9.814-3.102,18.337-8.791,18.158-20.854c-0.125-8.35-0.332-30.779-0.334-31.006l2-0.02c0.002,0.227,0.207,22.652,0.334,30.994
					c0.178,11.996-7.52,18.217-16.695,21.746c4.377,0.957,8.916,1.477,13.58,1.477c34.977,0,63.332-28.354,63.332-63.333
					C131.789,33.477,103.434,5.123,68.457,5.123z"/>
				<path fill="#357180" d="M71.572,108.568c-0.127-8.342-0.332-30.77-0.334-30.994l-2,0.018c0.002,0.227,0.209,22.658,0.334,31.006
					c0.18,12.063-8.344,17.752-18.158,20.854c1.143,0.318,2.295,0.609,3.463,0.863C64.053,126.785,71.75,120.564,71.572,108.568z"/>
			</g>
			<path fill="#A2D4DE" d="M45.572,74.583c0-22.092,3.5-50.002,24.332-50.002c20.834,0,24.334,27.91,24.334,50.002
				c0,22.092-10.895,19-24.334,19C56.467,93.583,45.572,96.675,45.572,74.583z"/>
			<path fill="#67B8CB" d="M45.572,73.583h48.666c0,22.092-10.895,29-24.334,29C56.467,102.583,45.572,95.675,45.572,73.583z"/>
			<rect x="69.57" y="97.667" fill="#357180" width="0.668" height="4.916"/>
			<path fill="#357180" d="M65.904,85.292c0-7.663,0.5-13.875,3.917-13.875c4.248,0,3.916,6.212,3.916,13.875
				c0,7.662,0.082,12.875-3.916,12.875C66.238,98.167,65.904,92.956,65.904,85.292z"/>
			<path fill="#1A3940" d="M67.072,85.042c0-3.093,0.248-5.599,2.75-5.599c2.916,0,2.75,2.506,2.75,5.599
				c0,3.092,0.166,5.598-2.75,5.598C67.154,90.64,67.072,88.134,67.072,85.042z"/>
		</g>
	</g>
</g>
</svg>
