<?xml version="1.0" encoding="utf-8"?>
<!-- Generator: Adobe Illustrator 16.0.0, SVG Export Plug-In . SVG Version: 6.00 Build 0)  -->
<!DOCTYPE svg PUBLIC "-//W3C//DTD SVG 1.1//EN" "http://www.w3.org/Graphics/SVG/1.1/DTD/svg11.dtd">
<svg version="1.1" id="Layer_1" xmlns="http://www.w3.org/2000/svg" xmlns:xlink="http://www.w3.org/1999/xlink" x="0px" y="0px"
	 width="136.913px" height="136.914px" viewBox="0 0 136.913 136.914" enable-background="new 0 0 136.913 136.914"
	 xml:space="preserve">
<g>
	<g>
		<g>
			<circle fill="#E84849" cx="68.457" cy="68.456" r="63.333"/>
		</g>
	</g>
	<g>
		<path fill="#D7D7D7" d="M40.448,59.479v52.02c0,0.613,0.498,1.111,1.111,1.111h53.793c0.613,0,1.111-0.498,1.111-1.111v-52.02
			H40.448z"/>
		<rect x="40.399" y="59.448" fill="#CDCCCB" width="56.113" height="10.352"/>
		<polygon fill="#E1E2D4" points="86.974,47.452 49.94,47.452 40.399,59.448 96.513,59.448 		"/>
		<polygon fill="#D0D1D1" points="86.974,44.12 49.94,44.118 51.692,21.86 85.218,21.86 		"/>
		<rect x="49.94" y="44.119" fill="#C3C3C3" width="37.033" height="3.324"/>
		<g>
			<ellipse fill="#C0C0C0" cx="54.234" cy="55.61" rx="6.386" ry="2.291"/>
			<ellipse fill="#B2B2B2" cx="54.234" cy="55.61" rx="4.45" ry="1.598"/>
		</g>
		<g>
			<ellipse fill="#C0C0C0" cx="83.356" cy="55.61" rx="5.611" ry="2.014"/>
			<path fill="#B2B2B2" d="M87.267,55.61c0,0.775-1.75,1.402-3.912,1.402c-2.156,0-3.91-0.627-3.91-1.402s1.754-1.4,3.91-1.4
				C85.517,54.21,87.267,54.835,87.267,55.61z"/>
		</g>
		<g>
			<ellipse fill="#C0C0C0" cx="79.872" cy="50.415" rx="5.223" ry="1.875"/>
			<ellipse fill="#B2B2B2" cx="79.872" cy="50.415" rx="3.641" ry="1.307"/>
		</g>
		<g>
			<ellipse fill="#C0C0C0" cx="57.04" cy="50.169" rx="3.965" ry="1.422"/>
			<ellipse fill="#B2B2B2" cx="57.04" cy="50.169" rx="2.764" ry="0.992"/>
		</g>
		<g>
			<g>
				<circle fill="#909090" cx="50.46" cy="64.335" r="1.936"/>
				<ellipse fill="#616262" cx="50.46" cy="64.335" rx="0.58" ry="1.354"/>
			</g>
			<g>
				<circle fill="#909090" cx="59.458" cy="64.335" r="1.936"/>
				<ellipse fill="#616262" cx="59.458" cy="64.335" rx="0.58" ry="1.354"/>
			</g>
			<g>
				<circle fill="#909090" cx="68.456" cy="64.335" r="1.936"/>
				
					<ellipse transform="matrix(0.7071 0.7071 -0.7071 0.7071 65.542 -29.5625)" fill="#616262" cx="68.456" cy="64.335" rx="0.58" ry="1.355"/>
			</g>
			<path fill="#616262" d="M68.638,63.028c0,0.119-0.096,0.217-0.219,0.217c-0.119,0-0.217-0.098-0.217-0.217
				s0.098-0.219,0.217-0.219C68.542,62.81,68.638,62.909,68.638,63.028z"/>
			<g>
				<circle fill="#909090" cx="77.452" cy="64.335" r="1.936"/>
				<ellipse fill="#616262" cx="77.454" cy="64.335" rx="0.58" ry="1.354"/>
			</g>
			<g>
				<circle fill="#909090" cx="86.45" cy="64.335" r="1.936"/>
				<ellipse fill="#616262" cx="86.451" cy="64.335" rx="0.581" ry="1.354"/>
			</g>
		</g>
		<g>
			<rect x="49.106" y="77.413" fill="#C0C0C0" width="38.701" height="24.658"/>
			<rect x="50.964" y="79.46" fill="#CDCDCE" width="34.986" height="20.564"/>
			<rect x="50.964" y="79.46" fill="#C9C9C8" width="17.572" height="20.564"/>
			<g>
				<g>
					<g>
						<path fill="#969595" d="M81.421,81.851h-26.51c-0.16,0-0.289-0.109-0.289-0.244s0.129-0.244,0.289-0.244h26.51
							c0.16,0,0.291,0.109,0.291,0.244S81.581,81.851,81.421,81.851z"/>
					</g>
					<g>
						<path fill="#969595" d="M81.421,84.169h-26.51c-0.16,0-0.289-0.109-0.289-0.242c0-0.137,0.129-0.244,0.289-0.244h26.51
							c0.16,0,0.291,0.107,0.291,0.244C81.712,84.06,81.581,84.169,81.421,84.169z"/>
					</g>
					<g>
						<path fill="#969595" d="M81.421,86.487h-26.51c-0.16,0-0.289-0.109-0.289-0.244s0.129-0.244,0.289-0.244h26.51
							c0.16,0,0.291,0.109,0.291,0.244S81.581,86.487,81.421,86.487z"/>
					</g>
				</g>
				<g>
					<g>
						<path fill="#969595" d="M81.421,88.806h-26.51c-0.16,0-0.289-0.109-0.289-0.244s0.129-0.244,0.289-0.244h26.51
							c0.16,0,0.291,0.109,0.291,0.244S81.581,88.806,81.421,88.806z"/>
					</g>
					<g>
						<path fill="#969595" d="M81.421,91.124h-26.51c-0.16,0-0.289-0.107-0.289-0.244c0-0.135,0.129-0.244,0.289-0.244h26.51
							c0.16,0,0.291,0.109,0.291,0.244C81.712,91.017,81.581,91.124,81.421,91.124z"/>
					</g>
					<g>
						<path fill="#969595" d="M81.421,93.442h-26.51c-0.16,0-0.289-0.109-0.289-0.244s0.129-0.244,0.289-0.244h26.51
							c0.16,0,0.291,0.109,0.291,0.244S81.581,93.442,81.421,93.442z"/>
					</g>
				</g>
				<g>
					<g>
						<path fill="#969595" d="M81.421,95.7h-26.51c-0.16,0-0.289-0.109-0.289-0.244s0.129-0.244,0.289-0.244h26.51
							c0.16,0,0.291,0.109,0.291,0.244S81.581,95.7,81.421,95.7z"/>
					</g>
					<g>
						<path fill="#969595" d="M81.421,98.019h-26.51c-0.16,0-0.289-0.107-0.289-0.244c0-0.135,0.129-0.244,0.289-0.244h26.51
							c0.16,0,0.291,0.109,0.291,0.244C81.712,97.911,81.581,98.019,81.421,98.019z"/>
					</g>
				</g>
			</g>
		</g>
	</g>
</g>
</svg>
