<?xml version="1.0" encoding="utf-8"?>
<!-- Generator: Adobe Illustrator 16.0.0, SVG Export Plug-In . SVG Version: 6.00 Build 0)  -->
<!DOCTYPE svg PUBLIC "-//W3C//DTD SVG 1.1//EN" "http://www.w3.org/Graphics/SVG/1.1/DTD/svg11.dtd">
<svg version="1.1" id="Layer_1" xmlns="http://www.w3.org/2000/svg" xmlns:xlink="http://www.w3.org/1999/xlink" x="0px" y="0px"
	 width="136.914px" height="136.914px" viewBox="0 0 136.914 136.914" enable-background="new 0 0 136.914 136.914"
	 xml:space="preserve">
<g>
	<g>
		<g>
			<g>
				<circle fill="#EDBF00" cx="68.457" cy="68.458" r="63.333"/>
			</g>
		</g>
	</g>
	<g>
		<g>
			<path fill="#202121" d="M92.667,104.536c0,5.816-2.082,7.898-7.898,7.898H53.176c-5.814,0-7.898-2.082-7.898-7.898V30.821
				c0-5.814,2.084-7.896,7.898-7.896h31.592c5.816,0,7.898,2.082,7.898,7.896V104.536z"/>
			<g>
				<path d="M73.889,25.921c0,0.334-0.391,0.6-0.871,0.6h-7.719c-0.482,0-0.873-0.266-0.873-0.6l0,0c0-0.33,0.391-0.598,0.873-0.598
					h7.719C73.499,25.323,73.889,25.591,73.889,25.921L73.889,25.921z"/>
				<circle cx="75.176" cy="25.966" r="0.658"/>
				<circle cx="76.932" cy="25.966" r="0.658"/>
				<path d="M84.124,26.239c0,0.488-0.395,0.887-0.885,0.887c-0.488,0-0.885-0.398-0.885-0.887c0-0.486,0.396-0.885,0.885-0.885
					C83.729,25.354,84.124,25.753,84.124,26.239z"/>
			</g>
			<path fill="none" stroke="#121212" stroke-miterlimit="10" d="M73.782,108.183c0,0.891-0.543,1.615-1.213,1.615h-7.117
				c-0.668,0-1.211-0.725-1.211-1.615v-1.146c0-0.893,0.543-1.615,1.211-1.615h7.117c0.67,0,1.213,0.723,1.213,1.615V108.183z"/>
			<linearGradient id="SVGID_2_" gradientUnits="userSpaceOnUse" x1="68.8628" y1="31.4795" x2="68.8628" y2="103.001">
				<stop  offset="0" style="stop-color:#5978BA"/>
				<stop  offset="0.703" style="stop-color:#4E9DB8"/>
				<stop  offset="1" style="stop-color:#379CC9"/>
			</linearGradient>
			<rect x="47.473" y="31.479" fill="url(#SVGID_2_)" width="42.779" height="71.521"/>
			<g>
				<circle fill="#FFFFFF" cx="68.958" cy="86.407" r="1.206"/>
				<circle fill="#FFFFFF" cx="73.346" cy="86.407" r="0.768"/>
				<circle fill="#FFFFFF" cx="76.856" cy="86.407" r="0.768"/>
				<circle fill="#FFFFFF" cx="61.06" cy="86.407" r="0.769"/>
				<circle fill="#FFFFFF" cx="64.571" cy="86.407" r="0.768"/>
			</g>
			<rect x="47.473" y="31.479" opacity="0.5" fill="#202121" width="42.76" height="3.586"/>
			<circle fill="#FFFFFF" cx="83.835" cy="33.163" r="0.913"/>
			<circle fill="#FFFFFF" cx="49.666" cy="33.163" r="0.913"/>
			<circle fill="#FFFFFF" cx="88.003" cy="33.163" r="0.913"/>
			<g>
				<defs>
					<rect id="SVGID_5_" x="47.473" y="31.479" width="42.779" height="71.521"/>
				</defs>
				<clipPath id="SVGID_3_">
					<use xlink:href="#SVGID_5_"  overflow="visible"/>
				</clipPath>
			</g>
			<g>
				<path fill="#B5DBAF" d="M57.952,79.837c0,0.814-0.66,1.475-1.475,1.475h-4.305c-0.816,0-1.477-0.66-1.477-1.475v-4.305
					c0-0.816,0.66-1.477,1.477-1.477h4.305c0.814,0,1.475,0.66,1.475,1.477V79.837z"/>
				<path fill="#F6A2A3" d="M67.715,79.837c0,0.814-0.662,1.475-1.477,1.475h-4.303c-0.816,0-1.477-0.66-1.477-1.475v-4.305
					c0-0.816,0.66-1.477,1.477-1.477h4.303c0.814,0,1.477,0.66,1.477,1.477V79.837z"/>
				<path fill="#67B8CB" d="M77.477,79.837c0,0.814-0.66,1.475-1.475,1.475h-4.305c-0.814,0-1.477-0.66-1.477-1.475v-4.305
					c0-0.816,0.662-1.477,1.477-1.477h4.305c0.814,0,1.475,0.66,1.475,1.477V79.837z"/>
				<path fill="#F5E554" d="M87.241,79.837c0,0.814-0.662,1.475-1.477,1.475h-4.305c-0.816,0-1.475-0.66-1.475-1.475v-4.305
					c0-0.816,0.658-1.477,1.475-1.477h4.305c0.814,0,1.477,0.66,1.477,1.477V79.837z"/>
			</g>
			<g>
				<defs>
					<path id="SVGID_7_" d="M87.129,59.653c0,0.814-0.658,1.475-1.475,1.475H52.391c-0.814,0-1.477-0.66-1.477-1.475V40.431
						c0-0.816,0.662-1.477,1.477-1.477h33.264c0.816,0,1.475,0.66,1.475,1.477V59.653z"/>
				</defs>
				<clipPath id="SVGID_4_">
					<use xlink:href="#SVGID_7_"  overflow="visible"/>
				</clipPath>
			</g>
			<path fill="none" stroke="#67B8CB" stroke-width="0.5" stroke-miterlimit="10" d="M87.129,67.552
				c0,0.814-0.658,1.473-1.475,1.473H52.391c-0.814,0-1.477-0.658-1.477-1.473v-1.674c0-0.814,0.662-1.475,1.477-1.475h33.264
				c0.816,0,1.475,0.66,1.475,1.475V67.552z"/>
			<g>
				<circle fill="#DBF0F5" cx="83.693" cy="66.252" r="1.095"/>
				<path fill="#DBF0F5" d="M85.674,68.247c-0.086,0.086-0.25,0.061-0.365-0.055l-1.232-1.232c-0.113-0.115-0.139-0.277-0.055-0.363
					l0.109-0.109c0.086-0.088,0.25-0.061,0.367,0.055l1.23,1.23c0.115,0.117,0.141,0.279,0.053,0.365L85.674,68.247z"/>
			</g>
			<g>
				<path fill="#67B8CB" d="M56.276,96.315c0,0.662-0.537,1.201-1.201,1.201h-3.506c-0.664,0-1.201-0.539-1.201-1.201v-3.508
					c0-0.662,0.537-1.201,1.201-1.201h3.506c0.664,0,1.201,0.539,1.201,1.201V96.315z"/>
				<path fill="#F5E554" d="M64.229,96.315c0,0.662-0.541,1.201-1.203,1.201H59.52c-0.664,0-1.201-0.539-1.201-1.201v-3.508
					c0-0.662,0.537-1.201,1.201-1.201h3.506c0.662,0,1.203,0.539,1.203,1.201V96.315z"/>
				<path fill="#B5DBAF" d="M72.178,96.315c0,0.662-0.539,1.201-1.201,1.201h-3.506c-0.662,0-1.203-0.539-1.203-1.201v-3.508
					c0-0.662,0.541-1.201,1.203-1.201h3.506c0.662,0,1.201,0.539,1.201,1.201V96.315z"/>
				<path fill="#D3D4E3" d="M80.129,96.315c0,0.662-0.537,1.201-1.201,1.201h-3.506c-0.666,0-1.201-0.539-1.201-1.201v-3.508
					c0-0.662,0.535-1.201,1.201-1.201h3.506c0.664,0,1.201,0.539,1.201,1.201V96.315z"/>
				<path fill="#F6A2A3" d="M88.028,96.315c0,0.662-0.539,1.201-1.201,1.201h-3.506c-0.666,0-1.201-0.539-1.201-1.201v-3.508
					c0-0.662,0.535-1.201,1.201-1.201h3.506c0.662,0,1.201,0.539,1.201,1.201V96.315z"/>
			</g>
		</g>
	</g>
	<g>
		<path fill="#6CC077" d="M52.391,61.128h33.264c0.816,0,1.475-0.66,1.475-1.475v-5.348l-2.754-2.754c0,0-1.564-2.018-3.018-1.936
			c-1.309,0.076-2.836,1.713-3.129,2.037l-1.832-1.832c0,0-1.832-2.363-3.535-2.268c-1.707,0.098-3.74,2.471-3.74,2.471
			l-0.559,0.559l-3.447-3.449c0,0-2.254-2.904-4.348-2.785c-2.094,0.117-4.596,3.033-4.596,3.033l-5.258,5.256v7.016
			C50.915,60.468,51.577,61.128,52.391,61.128z"/>
		<path fill="#DBF0F5" d="M60.768,44.349c2.094-0.119,4.348,2.785,4.348,2.785l3.447,3.449l0.559-0.559c0,0,2.033-2.373,3.74-2.471
			c1.703-0.096,3.535,2.268,3.535,2.268l1.832,1.832c0.293-0.324,1.82-1.961,3.129-2.037c1.453-0.082,3.018,1.936,3.018,1.936
			l2.754,2.754V40.431c0-0.816-0.658-1.477-1.475-1.477H52.391c-0.814,0-1.477,0.66-1.477,1.477v12.207l5.258-5.256
			C56.172,47.382,58.674,44.466,60.768,44.349z"/>
	</g>
</g>
</svg>
