<?xml version="1.0" encoding="utf-8"?>
<!-- Generator: Adobe Illustrator 16.0.0, SVG Export Plug-In . SVG Version: 6.00 Build 0)  -->
<!DOCTYPE svg PUBLIC "-//W3C//DTD SVG 1.1//EN" "http://www.w3.org/Graphics/SVG/1.1/DTD/svg11.dtd">
<svg version="1.1" id="Layer_1" xmlns="http://www.w3.org/2000/svg" xmlns:xlink="http://www.w3.org/1999/xlink" x="0px" y="0px"
	 width="136.913px" height="136.914px" viewBox="0 0 136.913 136.914" enable-background="new 0 0 136.913 136.914"
	 xml:space="preserve">
<g>
	<g>
		<g>
			<g>
				<circle fill="#C6B298" cx="68.457" cy="68.457" r="63.333"/>
			</g>
		</g>
	</g>
	<g>
		<path fill="#EA6A25" d="M101.577,40.146c-7.994-9.344-19.861-15.271-33.121-15.271c-24.068,0-43.582,19.512-43.582,43.582
			c0,13.645,6.271,25.818,16.086,33.809c7.5,6.109,17.068,9.775,27.496,9.775c24.072,0,43.584-19.512,43.584-43.584
			C112.04,57.646,108.095,47.764,101.577,40.146z"/>
		<g>
			<path fill="#F37C2A" d="M88.546,88.883c13.684-13.686,18.162-32.787,13.031-48.736c-7.994-9.344-19.861-15.271-33.121-15.271
				c-24.068,0-43.582,19.512-43.582,43.582c0,13.645,6.271,25.818,16.086,33.809C56.669,106.826,75.19,102.24,88.546,88.883z"/>
		</g>
		<path fill="#3A3A39" d="M111.89,71.891c0.053-0.656,0.09-1.314,0.113-1.979c-2.52-1.85-6.553-3.57-11.273-5.123
			c0.504-4.355,0.447-8.281,0.014-11.789l7.695-1.922c-0.219-0.506-0.441-1.01-0.68-1.506l-7.244,1.811
			c-1.064-6.57-3.424-11.57-5.684-15.055c-1.488-2.299-3.037-4.131-4.408-5.537c-1.607-0.939-3.275-1.789-5.004-2.521l-0.158,0.254
			c0.043,0.027,4.404,2.795,8.254,8.76c2.15,3.338,4.4,8.135,5.408,14.449c-10.922,1.549-30.094-15.658-30.279-15.826
			c-5.549-5.191-11.488-7.477-15.061-8.455c-0.891,0.322-1.764,0.68-2.625,1.059c2.436,0.461,9.877,2.316,16.586,8.592
			c0.781,0.707,18.215,16.363,29.967,16.363c0.561,0,1.104-0.049,1.637-0.123c0.395,3.266,0.447,6.91,0.006,10.941
			c-15.281-4.762-36.439-7.828-37.736-8.012c-22.34-2.65-31.951,1.391-35.816,4.242c-0.152,0.82-0.279,1.648-0.383,2.482
			c1.969-2.121,10.025-8.193,35.986-5.115c0.316,0.045,22.43,3.248,37.76,8.02l0,0l-0.006,0.072
			c-0.004,0.066-0.275,4.867-2.076,11.402c-5.25-2.332-11.471-0.475-12.205-0.238c-2.404,0.471-24.123,8.572-26.619,9.506
			l-0.047,0.018c-10.725,4.77-23.984,4.848-26.547,4.814c0.344,0.553,0.699,1.098,1.068,1.631
			c4.207-0.014,16.053-0.484,26.117-4.947c9.869-3.691,25.016-9.238,26.344-9.43l0.141-0.031c0.072-0.023,6.359-2.045,11.293,0.256
			c-0.658,2.184-1.477,4.514-2.516,6.91c-3.928,9.061-11.738,20.682-26.818,26.117c0.453,0.014,0.904,0.035,1.361,0.035
			c1.043,0,2.074-0.051,3.098-0.121c13.082-6.094,20.146-16.84,23.852-25.387c1.01-2.33,1.814-4.588,2.471-6.711
			c0.264,0.188,0.527,0.377,0.775,0.6c0.391,0.441,5.326,6.238,4.947,13.809c0.561-0.764,1.094-1.551,1.605-2.352
			c-0.572-7.252-5.154-12.338-5.379-12.58l-0.055-0.055c-0.449-0.404-0.926-0.742-1.41-1.053c1.674-5.93,2.105-10.484,2.199-11.756
			C105.632,68.082,109.792,69.93,111.89,71.891z"/>
	</g>
</g>
</svg>
