<?xml version="1.0" encoding="utf-8"?>
<!-- Generator: Adobe Illustrator 16.0.0, SVG Export Plug-In . SVG Version: 6.00 Build 0)  -->
<!DOCTYPE svg PUBLIC "-//W3C//DTD SVG 1.1//EN" "http://www.w3.org/Graphics/SVG/1.1/DTD/svg11.dtd">
<svg version="1.1" id="Layer_1" xmlns="http://www.w3.org/2000/svg" xmlns:xlink="http://www.w3.org/1999/xlink" x="0px" y="0px"
	 width="136.914px" height="136.914px" viewBox="0 0 136.914 136.914" enable-background="new 0 0 136.914 136.914"
	 xml:space="preserve">
<g>
	<g>
		<g>
			<circle fill="#4ABC96" cx="68.457" cy="68.456" r="63.333"/>
		</g>
	</g>
	<g>
		<g>
			<path fill="#37919B" d="M39.325,85.489v6.596c0,0.52,0.574,0.939,1.146,0.939h39.475c0.76,0,1.24-0.42,1.24-0.939v-6.596H39.325z
				"/>
			<path fill="#37919B" d="M78.077,52.276h-0.385H42.899h-0.385c-1.762,0-3.189,1.428-3.189,3.189V80.44
				c0,1.76,1.428,3.189,3.189,3.189h0.561h34.443h0.559c1.762,0,3.189-1.43,3.189-3.189V55.465
				C81.267,53.704,79.839,52.276,78.077,52.276z"/>
			<path fill="#2C8484" d="M81.399,79.915l-38.885-0.002c-1.762,0-3.189,0.309-3.189,0.688v6.602l38.367-0.135l3.518-0.193
				L81.399,79.915z"/>
			<path fill="#308A8E" d="M29.513,78.055l10.387,2.43l3.24-5.098c0,0,3.381-3.479,1.668-7.195
				c-1.717-3.717-5.434-3.859-5.434-3.859l-9.48,6.625L29.513,78.055z"/>
			<polygon fill="#30898E" points="81.397,79.913 81.397,75.387 43.14,75.387 39.899,80.485 			"/>
			<path fill="#37919B" d="M39.993,75.247c0-3.271-2.688-5.924-6.004-5.924c-3.314,0-6.002,2.652-6.002,5.924
				c0,2.549,1.631,4.715,3.916,5.555v14.609c0,2.234,8.09,2.234,8.09,0V75.676c0-0.049-0.014-0.096-0.014-0.145
				C39.983,75.438,39.993,75.342,39.993,75.247z"/>
			<path fill="#308A8E" d="M91.165,78.055l-10.387,2.43l-3.24-5.098c0,0-3.383-3.479-1.668-7.195
				c1.717-3.717,5.432-3.859,5.432-3.859l9.482,6.625L91.165,78.055z"/>
			<path fill="#37919B" d="M80.685,75.247c0-3.271,2.688-5.924,6.002-5.924c3.316,0,6.004,2.652,6.004,5.924
				c0,2.549-1.631,4.715-3.918,5.555v14.609c0,2.234-8.088,2.234-8.088,0V75.676c0-0.049,0.014-0.096,0.014-0.145
				C80.694,75.438,80.685,75.342,80.685,75.247z"/>
		</g>
		<g>
			<path fill="#6A7872" d="M110.583,95.536l-8.438-4.52c-0.115-0.148-0.295-0.238-0.486-0.24c-0.184-0.004-0.371,0.082-0.488,0.232
				L92.3,95.581c-0.15,0.188-0.182,0.445-0.08,0.66c0.105,0.219,0.324,0.355,0.563,0.355h17.354c0.002,0,0.006,0,0.006,0
				c0.346,0,0.623-0.277,0.623-0.623C110.765,95.803,110.694,95.647,110.583,95.536z"/>
			<g>
				<g>
					<path fill="#6A7872" d="M101.769,94.35c-0.631,0-1.143-0.512-1.143-1.145V43.368c0.008-0.15,0.424-5.885-3.193-9.803
						c-2.313-2.506-5.807-3.775-10.387-3.775c-0.631,0-1.143-0.512-1.143-1.145s0.512-1.143,1.143-1.143
						c5.254,0,9.32,1.523,12.084,4.531c4.293,4.67,3.801,11.156,3.779,11.432l0.004,49.74
						C102.913,93.838,102.401,94.35,101.769,94.35z"/>
				</g>
				<g>
					<path fill="#6A7872" d="M101.769,74.321c-1.094,0-1.982,0.887-1.982,1.982V92.18c0.018,0.262,3.998,0.309,3.959-0.166
						l0.006-15.711C103.751,75.208,102.866,74.321,101.769,74.321z"/>
				</g>
			</g>
		</g>
		<g>
			<circle fill="#9DC3C5" cx="101.745" cy="93.944" r="1.072"/>
			<circle fill="#8FB5B6" cx="101.746" cy="93.944" r="0.706"/>
		</g>
		<circle opacity="0.5" fill="#AED1D5" cx="78.399" cy="36.793" r="2.645"/>
		<g>
			<path fill="#AED1D5" d="M85.351,42.452l1.658-13.697c0.023-0.188-0.043-0.377-0.178-0.512c-0.129-0.133-0.324-0.203-0.51-0.18
				L72.3,29.645c-0.238,0.027-0.441,0.191-0.52,0.416c-0.078,0.229-0.02,0.479,0.154,0.648l12.354,12.184
				c0.002,0.002,0.004,0.004,0.004,0.004c0.246,0.242,0.639,0.238,0.881-0.006C85.29,42.768,85.354,42.608,85.351,42.452z"/>
			<circle fill="#AED1D5" cx="86.619" cy="28.694" r="2.001"/>
		</g>
	</g>
</g>
</svg>
