<?xml version="1.0" encoding="utf-8"?>
<!-- Generator: Adobe Illustrator 16.0.0, SVG Export Plug-In . SVG Version: 6.00 Build 0)  -->
<!DOCTYPE svg PUBLIC "-//W3C//DTD SVG 1.1//EN" "http://www.w3.org/Graphics/SVG/1.1/DTD/svg11.dtd">
<svg version="1.1" id="Layer_1" xmlns="http://www.w3.org/2000/svg" xmlns:xlink="http://www.w3.org/1999/xlink" x="0px" y="0px"
	 width="136.914px" height="136.914px" viewBox="0 0 136.914 136.914" enable-background="new 0 0 136.914 136.914"
	 xml:space="preserve">
<g>
	<g>
		<g>
			<circle fill="#49A0AE" cx="68.457" cy="68.458" r="63.333"/>
		</g>
	</g>
	<g>
		<g>
			<g>
				<g opacity="0.8">
					<path fill="#C4E7ED" d="M96.718,32.105L46.102,57.757c-3.615,1.832-8.575,4.045-8.537,8.557
						c-0.012,0.005,0.063,0.807-0.293,1.65s-0.906,1.424-0.906,1.424c-1.072,0.543-3.457,1.754-4.105,2.145
						c-2.277,1.373-1.898,4.457-0.414,7.385c1.557,3.07,4.07,5.174,6.359,4.103c0.667-0.313,3.021-1.501,4.045-2.019
						c0,0,0.889-0.39,1.515-0.225c0.628,0.165,1.472,0.643,1.472,0.643c0.002-0.002,0.004-0.004,0.004-0.004
						c3.862,2.99,9.688-0.149,12.145-1.395L108,54.369c2.049-1.037,4.42-4.346-0.51-14.07
						C102.369,30.188,98.766,31.068,96.718,32.105z"/>
				</g>
				<g>
					<path fill="#D6EFF2" d="M31.846,78.917c1.557,3.07,4.07,5.174,6.359,4.103c0.667-0.313,3.021-1.501,4.045-2.019
						c0,0,0.889-0.39,1.515-0.225c0.628,0.165,1.472,0.643,1.472,0.643c0.002-0.002,0.004-0.004,0.004-0.004
						c3.862,2.99,9.688-0.149,12.145-1.395L108,54.369c2.049-1.037,4.42-4.346-0.51-14.07c-2.049-4.049-23.706,6.67-38.193,14.21
						C47.606,65.796,30.956,77.162,31.846,78.917z"/>
				</g>
				<g>
					<path fill="#B5DDE1" d="M90.125,61.757L51.819,77.468c-3.426,1.735-2.462-1.688-6.055-0.292
						c-0.01,0.004-5.998,2.442-5.998,2.442c-1.016,0.516-1.969-0.584-2.581-0.215c-2.157,1.301-2.805,1.1-1.398,3.874
						c1.474,2.909,1.165-0.167,3.335-1.184c0.633-0.297,2.26-1.231,3.229-1.722c0,0,1.326-0.21,1.919-0.053
						c0.595,0.156,1.394,0.607,1.394,0.607c0.002-0.001,0.002-0.002,0.002-0.002c3.662,2.832,9.184-0.143,11.51-1.322l47.959-24.305
						C107.075,54.316,92.067,60.775,90.125,61.757z"/>
				</g>
				<g opacity="0.5">
					<path fill="#73BFCB" d="M32.582,72.554c-1.983,1.006-1.589,3.729-0.347,6.178c1.302,2.57,3.435,4.39,5.321,3.434
						c0.988-0.502,1.209-2.211-0.618-5.816C35.133,72.789,33.524,72.076,32.582,72.554z"/>
				</g>
				<g>
					<g>
						<path fill="#67B8CB" d="M36.366,69.388c-0.246,0.125-0.564,0.286-0.912,0.463c0,0,2.749,1.864,4.322,4.967
							c1.572,3.104,1.563,6.645,1.563,6.645c0.352-0.177,0.67-0.338,0.912-0.461c0,0,0.045-0.02,0.117-0.045
							c0,0,0.36-2.85-1.537-6.594c-1.897-3.742-4.376-5.076-4.376-5.076C36.399,69.353,36.366,69.388,36.366,69.388z"/>
					</g>
				</g>
				<g>
					<path fill="#67B8CB" d="M88.071,64.496l-18.845,9.551c0,0-1.269-6.313-4.318-12.328c-3.047-6.015-6.95-9.908-6.95-9.908
						l18.844-9.55c0,0,3.449,2.997,6.821,9.651C86.996,58.567,88.071,64.496,88.071,64.496z"/>
				</g>
			</g>
			<g>
				<g>
					<path fill="#C4E7ED" d="M37.118,98.613c0,0-2.234,5.254-2.034,7.17c0.159,1.521,1.521,2.623,3.042,2.465
						c1.518-0.158,2.623-1.519,2.463-3.041C40.405,103.429,37.118,98.613,37.118,98.613z"/>
				</g>
				<g>
					<path fill="#FFFFFF" d="M37.812,107.644c1.824-0.229,2.184-0.703,2.165-2.67c0,0-0.418,0.814-0.951,1.542
						C38.542,107.178,37.812,107.644,37.812,107.644z"/>
				</g>
			</g>
			<g>
				<g>
					<path fill="#C4E7ED" d="M36.723,86.51c0,0-2.455,4.427-2.455,6.136c0,1.354,1.1,2.453,2.455,2.453
						c1.354,0,2.453-1.099,2.453-2.453C39.176,91.06,36.723,86.51,36.723,86.51z"/>
				</g>
				<g>
					<path fill="#FFFFFF" d="M36.502,94.539c1.631-0.034,1.992-0.42,2.158-2.156c0,0-0.445,0.68-0.982,1.273
						C37.19,94.195,36.502,94.539,36.502,94.539z"/>
				</g>
			</g>
		</g>
	</g>
</g>
</svg>
