<?xml version="1.0" encoding="utf-8"?>
<!-- Generator: Adobe Illustrator 16.0.0, SVG Export Plug-In . SVG Version: 6.00 Build 0)  -->
<!DOCTYPE svg PUBLIC "-//W3C//DTD SVG 1.1//EN" "http://www.w3.org/Graphics/SVG/1.1/DTD/svg11.dtd">
<svg version="1.1" id="Layer_1" xmlns="http://www.w3.org/2000/svg" xmlns:xlink="http://www.w3.org/1999/xlink" x="0px" y="0px"
	 width="136.914px" height="136.913px" viewBox="0 0 136.914 136.913" enable-background="new 0 0 136.914 136.913"
	 xml:space="preserve">
<g>
	<g>
		<circle fill="#4ABC96" cx="68.457" cy="68.457" r="63.333"/>
	</g>
	<g>
		<g>
			<path fill="#357180" d="M12.618,38.563l5.623,0.266v-5.014h-2.793C14.44,35.354,13.491,36.934,12.618,38.563z"/>
			<polygon fill="#357180" points="26.439,38.82 49.931,39.02 49.931,33.814 26.439,33.814 			"/>
			<path fill="#357180" d="M94.713,33.814H67.235v5.205h24.027v88.521c1.871-0.723,3.697-1.529,5.478-2.418V35.84
				C96.74,34.725,95.833,33.814,94.713,33.814z"/>
		</g>
		<g>
			<polygon fill="#27636D" points="22.248,39.02 26.439,38.82 26.439,33.814 18.241,33.814 18.241,38.828 			"/>
		</g>
		<g>
			<path fill="#E7E7D6" d="M18.389,39.02h-0.147v68.012c0.049,0.063,0.099,0.125,0.147,0.188V39.02z"/>
		</g>
		<g>
			<polygon fill="#E7E7D6" points="62.565,95.291 60.278,90.652 57.968,90.727 55.221,95.525 			"/>
		</g>
		<g>
			<polygon fill="#E7E7D6" points="50.001,104.643 66.908,104.104 64.746,99.717 52.601,100.104 			"/>
		</g>
		<g>
			<path fill="#E7E7D6" d="M12.618,38.563c-0.082,0.15-0.155,0.305-0.234,0.457c-1.864,3.543-3.403,7.279-4.576,11.18l-1.158,4.459
				c-0.343,1.541-0.635,3.102-0.863,4.684l-0.475,4.482c-0.107,1.469-0.178,2.949-0.183,4.445l0.157,4.502
				c0.107,1.592,0.268,3.17,0.49,4.727l0.818,4.523c0.361,1.65,0.779,3.281,1.267,4.881l1.585,4.545
				c0.633,1.625,1.321,3.223,2.082,4.777l2.479,4.574c1.289,2.166,2.705,4.244,4.234,6.232V39.02v-0.191L12.618,38.563z"/>
			<path fill="#E7E7D6" d="M67.235,38.771l-17.305,0.043H26.439v77.014c0.467,0.414,3.826,3.146,3.826,3.146
				c10.618,8.039,23.845,12.816,38.19,12.816c7.018,0,13.762-1.158,20.07-3.266c0.922-0.309,1.834-0.635,2.736-0.984v-88.77H67.235z
				"/>
			<path fill="#E7E7D6" d="M22.248,39.02l-4.007-0.191v0.191h0.147v68.199c1.111,1.434,2.276,2.822,3.505,4.154V41.279h0.354h0.534
				v71.025c1.127,1.174,2.293,2.309,3.506,3.393c0.05,0.045,0.102,0.086,0.151,0.131V39.02V38.82L22.248,39.02z"/>
		</g>
		<path fill="#DCDDD8" d="M22.248,41.279h-0.354v70.094c0.116,0.127,0.237,0.246,0.354,0.371c0.177,0.189,0.355,0.375,0.534,0.561
			V41.279H22.248z"/>
		<g>
			<path fill="#B9B9BA" d="M17.032,52.742c0-1.242-0.969-2.279-2.161-2.318l-7.063-0.225c-0.439,1.463-0.823,2.951-1.158,4.459
				l8.222,0.262C16.063,54.959,17.032,53.984,17.032,52.742z"/>
		</g>
		<g>
			<path fill="#B9B9BA" d="M17.032,61.949c0-1.242-0.969-2.277-2.161-2.316l-9.085-0.291c-0.213,1.479-0.366,2.975-0.475,4.482
				l9.56,0.305C16.063,64.168,17.032,63.191,17.032,61.949z"/>
		</g>
		<g>
			<path fill="#B9B9BA" d="M17.032,70.898c0-1.242-0.969-2.279-2.161-2.316L5.129,68.27c-0.001,0.064-0.005,0.125-0.005,0.188
				c0,1.453,0.066,2.887,0.162,4.314l9.585,0.307C16.063,73.117,17.032,72.141,17.032,70.898z"/>
		</g>
		<g>
			<path fill="#B9B9BA" d="M17.032,80.104c0-1.24-0.969-2.275-2.161-2.314l-9.095-0.291c0.219,1.527,0.494,3.033,0.818,4.523
				l8.276,0.264C16.063,82.324,17.032,81.348,17.032,80.104z"/>
		</g>
		<g>
			<path fill="#B9B9BA" d="M17.032,89.443c0-1.242-0.969-2.277-2.161-2.316l-7.01-0.225c0.469,1.543,1.003,3.055,1.585,4.545
				l5.425,0.174C16.063,91.66,17.032,90.684,17.032,89.443z"/>
		</g>
		<g>
			<path fill="#B9B9BA" d="M17.032,98.648c0-1.238-0.969-2.277-2.161-2.316l-3.343-0.107c0.764,1.564,1.593,3.088,2.479,4.574
				l0.864,0.027C16.063,100.865,17.032,99.891,17.032,98.648z"/>
		</g>
		<g>
			<path fill="#B9B9BA" d="M29.989,50.424c-1.192,0.039-2.158,1.076-2.158,2.318s0.966,2.217,2.158,2.178l19.941-0.637v-4.496
				L29.989,50.424z"/>
		</g>
		<g>
			<path fill="#B9B9BA" d="M81.159,53.287c1.193-0.041,2.16-1.076,2.16-2.318c0-1.244-0.967-2.219-2.16-2.18l-13.924,0.445v4.496
				L81.159,53.287z"/>
		</g>
		<g>
			<path fill="#B9B9BA" d="M81.159,62.494c1.193-0.039,2.16-1.076,2.16-2.318s-0.967-2.217-2.16-2.178l-13.924,0.445v4.496
				L81.159,62.494z"/>
		</g>
		<g>
			<path fill="#B9B9BA" d="M29.989,59.633c-1.192,0.039-2.158,1.074-2.158,2.316s0.966,2.219,2.158,2.18l19.941-0.637v-4.496
				L29.989,59.633z"/>
		</g>
		<g>
			<path fill="#B9B9BA" d="M29.989,68.582c-1.192,0.037-2.158,1.074-2.158,2.316s0.966,2.219,2.158,2.18l19.941-0.639v-4.496
				L29.989,68.582z"/>
		</g>
		<g>
			<path fill="#B9B9BA" d="M81.159,71.441c1.193-0.039,2.16-1.074,2.16-2.316s-0.967-2.219-2.16-2.178l-13.924,0.443v4.496
				L81.159,71.441z"/>
		</g>
		<g>
			<path fill="#B9B9BA" d="M81.159,80.65c1.193-0.039,2.16-1.078,2.16-2.32s-0.967-2.215-2.16-2.176L67.235,76.6v4.496L81.159,80.65
				z"/>
		</g>
		<g>
			<path fill="#B9B9BA" d="M29.989,77.789c-1.192,0.039-2.158,1.074-2.158,2.314c0,1.244,0.966,2.221,2.158,2.182l19.941-0.637
				v-4.496L29.989,77.789z"/>
		</g>
		<g>
			<path fill="#B9B9BA" d="M81.159,89.986c1.193-0.039,2.16-1.078,2.16-2.316c0-1.242-0.967-2.217-2.16-2.178l-13.924,0.445v4.492
				L81.159,89.986z"/>
		</g>
		<g>
			<path fill="#B9B9BA" d="M29.989,87.127c-1.192,0.039-2.158,1.074-2.158,2.316c0,1.24,0.966,2.217,2.158,2.178l19.941-0.639V86.49
				L29.989,87.127z"/>
		</g>
		<g>
			<polygon fill="#B9B9BA" points="59.229,88.523 57.968,90.727 60.278,90.652 			"/>
		</g>
		<g>
			<path fill="#B9B9BA" d="M81.159,99.191c1.193-0.039,2.16-1.074,2.16-2.316c0-1.24-0.967-2.217-2.16-2.178l-13.924,0.445v4.494
				L81.159,99.191z"/>
		</g>
		<g>
			<path fill="#B9B9BA" d="M29.989,96.332c-1.192,0.039-2.158,1.078-2.158,2.316c0,1.242,0.966,2.217,2.158,2.178l19.941-0.637
				v-4.494L29.989,96.332z"/>
		</g>
		<g>
			<polygon fill="#B9B9BA" points="52.601,100.104 64.746,99.717 62.565,95.291 55.221,95.525 			"/>
		</g>
		<g>
			<path fill="#B9B9BA" d="M66.908,104.104l-16.907,0.539l-0.07,0.125v-0.123l-19.941,0.639c-1.192,0.037-2.158,1.074-2.158,2.314
				c0,1.242,0.966,2.219,2.158,2.18l51.17-1.635c1.193-0.039,2.16-1.078,2.16-2.318s-0.967-2.217-2.16-2.176l-13.924,0.443v0.676
				L66.908,104.104z"/>
		</g>
		<g>
			<path fill="#B9B9BA" d="M81.159,117.348c1.193-0.039,2.16-1.074,2.16-2.318c0-1.238-0.967-2.215-2.16-2.176l-51.17,1.635
				c-1.192,0.039-2.158,1.078-2.158,2.316c0,0.086,0.016,0.166,0.024,0.25c0.788,0.658,1.591,1.299,2.41,1.92L81.159,117.348z"/>
		</g>
		<g>
			<rect x="49.931" y="33.775" fill="#BB5538" width="17.305" height="0.039"/>
		</g>
		<polygon fill="#BB5538" points="49.931,33.814 49.931,104.645 50.001,104.643 59.229,88.523 66.908,104.104 67.235,104.092 
			67.235,33.814 		"/>
		<g>
			<polygon fill="#BB5538" points="50.001,104.643 49.931,104.645 49.931,104.768 			"/>
		</g>
		<g>
			<polygon fill="#BB5538" points="67.235,104.768 67.235,104.092 66.908,104.104 			"/>
		</g>
	</g>
</g>
</svg>
