<?xml version="1.0" encoding="utf-8"?>
<!-- Generator: Adobe Illustrator 16.0.0, SVG Export Plug-In . SVG Version: 6.00 Build 0)  -->
<!DOCTYPE svg PUBLIC "-//W3C//DTD SVG 1.1//EN" "http://www.w3.org/Graphics/SVG/1.1/DTD/svg11.dtd">
<svg version="1.1" id="Layer_1" xmlns="http://www.w3.org/2000/svg" xmlns:xlink="http://www.w3.org/1999/xlink" x="0px" y="0px"
	 width="136.914px" height="136.913px" viewBox="0 0 136.914 136.913" enable-background="new 0 0 136.914 136.913"
	 xml:space="preserve">
<g>
	<g>
		<g>
			<g>
				<g>
					<circle fill="#FFD113" cx="68.457" cy="68.457" r="63.333"/>
				</g>
			</g>
		</g>
	</g>
	<g>
		<g>
			<g>
				<path fill="#626463" d="M39.454,59.209c-11.58,0-20.968,9.387-20.968,20.969c0,11.578,9.388,20.967,20.968,20.967
					s20.968-9.389,20.968-20.967C60.422,68.596,51.034,59.209,39.454,59.209z M39.454,98.938c-10.361,0-18.761-8.4-18.761-18.76
					c0-10.363,8.399-18.762,18.761-18.762s18.761,8.398,18.761,18.762C58.215,90.537,49.815,98.938,39.454,98.938z"/>
			</g>
		</g>
		<g>
			<g>
				<path fill="#626463" d="M39.454,77.848c-1.287,0-2.33,1.043-2.33,2.33c0,1.285,1.043,2.33,2.33,2.33s2.33-1.045,2.33-2.33
					C41.784,78.891,40.741,77.848,39.454,77.848z"/>
			</g>
		</g>
		<g>
			<g>
				<g>
					<rect x="39.086" y="60.682" fill="#626463" width="0.736" height="39.236"/>
				</g>
				<g>
					<rect x="19.835" y="79.934" fill="#626463" width="39.237" height="0.734"/>
				</g>
				<g>
					
						<rect x="19.836" y="79.932" transform="matrix(0.7071 0.7071 -0.7071 0.7071 68.3349 -4.3795)" fill="#626463" width="39.237" height="0.735"/>
				</g>
				<g>
					
						<rect x="39.087" y="60.682" transform="matrix(0.7058 0.7084 -0.7084 0.7058 68.496 -4.3247)" fill="#626463" width="0.736" height="39.237"/>
				</g>
			</g>
			<g>
				<g>
					
						<rect x="39.085" y="60.682" transform="matrix(0.9231 0.3846 -0.3846 0.9231 33.9194 -8.9976)" fill="#626463" width="0.736" height="39.236"/>
				</g>
				<g>
					
						<rect x="19.834" y="79.933" transform="matrix(0.923 0.3848 -0.3848 0.923 33.9343 -8.9984)" fill="#626463" width="39.239" height="0.736"/>
				</g>
				<g>
					
						<rect x="19.835" y="79.932" transform="matrix(0.3806 0.9247 -0.9247 0.3806 98.6951 13.2536)" fill="#626463" width="39.238" height="0.735"/>
				</g>
				<g>
					
						<rect x="39.087" y="60.682" transform="matrix(0.3822 0.9241 -0.9241 0.3822 98.5823 13.1539)" fill="#626463" width="0.733" height="39.238"/>
				</g>
			</g>
		</g>
		<g>
			<g>
				<path fill="#626463" d="M100.519,59.209c-11.58,0-20.968,9.387-20.968,20.969c0,11.578,9.388,20.967,20.968,20.967
					s20.968-9.389,20.968-20.967C121.486,68.596,112.099,59.209,100.519,59.209z M100.519,98.938c-10.361,0-18.761-8.4-18.761-18.76
					c0-10.363,8.399-18.762,18.761-18.762s18.761,8.398,18.761,18.762C119.279,90.537,110.88,98.938,100.519,98.938z"/>
			</g>
		</g>
		<g>
			<g>
				<path fill="#626463" d="M100.519,77.848c-1.287,0-2.33,1.043-2.33,2.33c0,1.285,1.043,2.33,2.33,2.33s2.33-1.045,2.33-2.33
					C102.849,78.891,101.806,77.848,100.519,77.848z"/>
			</g>
		</g>
		<g>
			<g>
				<g>
					<rect x="100.15" y="60.682" fill="#626463" width="0.736" height="39.236"/>
				</g>
				<g>
					<rect x="80.899" y="79.934" fill="#626463" width="39.237" height="0.734"/>
				</g>
				<g>
					
						<rect x="80.9" y="79.932" transform="matrix(0.7071 0.7071 -0.7071 0.7071 86.2193 -47.5575)" fill="#626463" width="39.237" height="0.735"/>
				</g>
				<g>
					
						<rect x="100.15" y="60.682" transform="matrix(0.7064 0.7078 -0.7078 0.7064 86.3423 -47.5711)" fill="#626463" width="0.737" height="39.237"/>
				</g>
			</g>
			<g>
				<g>
					
						<rect x="100.15" y="60.682" transform="matrix(0.9231 0.3846 -0.3846 0.9231 38.6167 -32.4839)" fill="#626463" width="0.736" height="39.236"/>
				</g>
				<g>
					
						<rect x="80.899" y="79.933" transform="matrix(0.923 0.3848 -0.3848 0.923 38.6354 -32.4939)" fill="#626463" width="39.239" height="0.736"/>
				</g>
				<g>
					
						<rect x="80.899" y="79.932" transform="matrix(0.3806 0.9248 -0.9248 0.3806 136.5215 -43.2141)" fill="#626463" width="39.238" height="0.735"/>
				</g>
				<g>
					
						<rect x="100.152" y="60.682" transform="matrix(0.3822 0.9241 -0.9241 0.3822 136.3106 -43.2756)" fill="#626463" width="0.733" height="39.238"/>
				</g>
			</g>
		</g>
		<g>
			<path fill="#357180" d="M100.518,80.545c-0.49,0-0.938-0.328-1.066-0.824L88.17,36.559c-0.154-0.59,0.199-1.193,0.789-1.346
				c0.587-0.156,1.192,0.197,1.347,0.789l11.28,43.16c0.154,0.59-0.199,1.193-0.789,1.348
				C100.704,80.533,100.61,80.545,100.518,80.545z"/>
		</g>
		<g>
			<path fill="#357180" d="M63.854,81.158c-0.489,0-0.935-0.326-1.066-0.82l-10.79-40.711c-0.156-0.588,0.194-1.193,0.784-1.35
				c0.591-0.154,1.193,0.195,1.35,0.785l10.79,40.709c0.156,0.588-0.194,1.193-0.784,1.35
				C64.043,81.146,63.947,81.158,63.854,81.158z"/>
		</g>
		<g>
			<path fill="#357180" d="M55.026,46.58c-0.592,0-1.081-0.469-1.103-1.064c-0.021-0.609,0.454-1.121,1.063-1.143l36.05-1.287
				c0.604-0.043,1.12,0.453,1.143,1.063c0.021,0.609-0.454,1.121-1.063,1.143l-36.05,1.287C55.053,46.58,55.04,46.58,55.026,46.58z"
				/>
		</g>
		<g>
			<path fill="#357180" d="M36.879,80.422c-0.177,0-0.356-0.043-0.523-0.133c-0.536-0.289-0.737-0.957-0.447-1.494l17.901-33.23
				c0.289-0.535,0.959-0.736,1.495-0.447s0.737,0.959,0.448,1.496L37.851,79.842C37.651,80.213,37.271,80.422,36.879,80.422z"/>
		</g>
		<g>
			<path fill="#357180" d="M37.515,79.67c-0.275,0-0.539-0.154-0.666-0.42L26.404,57.318c-0.174-0.367-0.019-0.807,0.349-0.98
				c0.368-0.176,0.806-0.02,0.98,0.348l10.444,21.934c0.175,0.365,0.02,0.805-0.348,0.98C37.728,79.646,37.62,79.67,37.515,79.67z"
				/>
		</g>
		<g>
			<g>
				<path fill="#357180" d="M70.229,81.402c-0.372,0-0.749-0.113-1.074-0.348c-0.823-0.594-1.01-1.744-0.415-2.568l22.397-31.109
					c0.595-0.824,2.761,2.52,2.167,3.344L71.723,80.639C71.363,81.137,70.801,81.402,70.229,81.402z"/>
			</g>
		</g>
		<g>
			<path fill="#626463" d="M58.663,73.711c-10.095,0-23.011,2.918-23.011,6.52s12.916,6.52,23.011,6.52
				c10.096,0,13.548-2.918,13.548-6.52S68.759,73.711,58.663,73.711z"/>
		</g>
		<g>
			<path fill="#626463" d="M56.974,35.805c-0.622-0.207-1.348-0.355-2.141-0.438c-0.888-0.117-1.781-0.154-2.627-0.068
				c-0.297,0.031-0.576,0.078-0.846,0.135c-3.713,0.484-6.521,2.17-6.349,3.867c0.175,1.727,3.36,2.82,7.175,2.502
				c0.73,0.002,1.504-0.035,2.306-0.115c4.093-0.416,7.302-1.818,7.169-3.131C61.579,37.736,59.511,36.51,56.974,35.805z"/>
		</g>
		<g>
			<g>
				<circle fill="#818282" cx="65.817" cy="80.055" r="3.556"/>
			</g>
			<g>
				<circle fill="#818282" cx="65.817" cy="80.055" r="1.716"/>
				<path fill="#4B4A4B" d="M65.817,82.139c-1.149,0-2.085-0.934-2.085-2.084s0.936-2.084,2.085-2.084s2.084,0.934,2.084,2.084
					S66.967,82.139,65.817,82.139z M65.817,78.707c-0.744,0-1.349,0.604-1.349,1.348s0.604,1.35,1.349,1.35
					c0.743,0,1.349-0.605,1.349-1.35S66.561,78.707,65.817,78.707z"/>
			</g>
			<g>
				<path fill="#818282" d="M69.678,88.732c0.225,0.639,0.103,1.262-0.271,1.393l0,0c-0.374,0.131-0.859-0.279-1.083-0.918
					l-2.921-8.332c-0.224-0.639-0.102-1.264,0.272-1.393l0,0c0.374-0.131,0.859,0.279,1.083,0.918L69.678,88.732z"/>
			</g>
			<g>
				<ellipse fill="#626463" cx="69.036" cy="89.924" rx="3.157" ry="1.227"/>
			</g>
		</g>
		<g>
			<path fill="#357180" d="M49.448,56.543c0,0.768-0.453,1.391-1.012,1.391H27.101c-0.559,0-1.012-0.623-1.012-1.391l0,0
				c0-0.77,0.453-1.393,1.012-1.393h21.336C48.995,55.15,49.448,55.773,49.448,56.543L49.448,56.543z"/>
		</g>
		<g>
			<path fill="#357180" d="M102.948,37.646c-0.247,0.506-0.943,0.676-1.554,0.377l-17.791-8.701
				c-0.611-0.299-0.905-0.951-0.657-1.457l0,0c0.248-0.508,0.944-0.676,1.554-0.377l17.792,8.701
				C102.902,36.486,103.196,37.141,102.948,37.646L102.948,37.646z"/>
		</g>
		<g>
			<path fill="#626463" d="M85.151,28.545c0.044,0.715-0.077,1.303-0.267,1.314l-5.538,0.33c-0.19,0.01-0.379-0.561-0.421-1.275l0,0
				c-0.043-0.715,0.077-1.303,0.267-1.314l5.539-0.33C84.92,27.258,85.109,27.83,85.151,28.545L85.151,28.545z"/>
		</g>
		<g>
			<path fill="#626463" d="M101.171,36.277c0.661-0.273,1.259-0.35,1.33-0.176l2.112,5.131c0.072,0.176-0.407,0.541-1.067,0.813l0,0
				c-0.664,0.273-1.259,0.35-1.332,0.176l-2.111-5.133C100.03,36.914,100.508,36.549,101.171,36.277L101.171,36.277z"/>
		</g>
		<g>
			<path fill="#357180" d="M93.27,32.457c0.383,0.414,0.573,0.861,0.425,0.998l-4.314,3.982c-0.147,0.139-0.577-0.088-0.96-0.502
				l0,0c-0.384-0.414-0.574-0.861-0.425-0.998l4.314-3.982C92.456,31.818,92.888,32.043,93.27,32.457L93.27,32.457z"/>
		</g>
		<g>
			<path fill="#357180" d="M98.556,50.469h-0.841c-1.974,0-3.573,1.6-3.573,3.572c0,1.975,1.6,3.574,3.573,3.574h0.841
				C100.529,57.615,100.529,50.469,98.556,50.469z"/>
		</g>
	</g>
</g>
</svg>
