<?xml version="1.0" encoding="utf-8"?>
<!-- Generator: Adobe Illustrator 16.0.0, SVG Export Plug-In . SVG Version: 6.00 Build 0)  -->
<!DOCTYPE svg PUBLIC "-//W3C//DTD SVG 1.1//EN" "http://www.w3.org/Graphics/SVG/1.1/DTD/svg11.dtd">
<svg version="1.1" id="Layer_1" xmlns="http://www.w3.org/2000/svg" xmlns:xlink="http://www.w3.org/1999/xlink" x="0px" y="0px"
	 width="136.914px" height="136.914px" viewBox="0 0 136.914 136.914" enable-background="new 0 0 136.914 136.914"
	 xml:space="preserve">
<g>
	<g>
		<g>
			<g>
				<g>
					<path fill="#344E5D" d="M5.124,68.458c0-34.98,28.355-63.334,63.332-63.334c34.979,0,63.334,28.354,63.334,63.334
						c0,34.976-28.355,63.331-63.334,63.331C33.479,131.789,5.124,103.434,5.124,68.458z"/>
				</g>
			</g>
		</g>
	</g>
	<g>
		<path fill="#E4AEA7" d="M64.542,44.285c0-9.959-2.934-18.178-12.977-18.178c-16.027,0-21.938,17.637-21.938,27.595
			c0,0.832,0.061,1.613,0.172,2.354l-0.154,0.051l2.287,20.036l2.48,24.002h0.008c0.139,7.098,5.324,11.461,13.289,11.633
			c7.063-0.172,12.049-4.535,12.189-11.633c0,0,1.004-19.143,1.004-26.682c0-5.321,2.311-17.664,3.086-24.467
			C64.348,47.4,64.542,45.812,64.542,44.285z"/>
		<path fill="#CB7462" d="M61.034,60.964c0,0-3.957,10.37-1.553,13.876c0,0,1.201-3.807,2.904-8.315L61.034,60.964z"/>
		<path fill="#D88375" d="M50.165,41.279c0,0,4.969,6.698,6.811,10.068c3.082,5.635,5.26,15.553,5.26,15.553s1.277-3.03,1.152-6.387
			c-0.1-2.705-1.156-6.683-3.482-11.23c-2.328-4.548-9.691-13.714-9.691-13.714L50.165,41.279z"/>
		<path fill="#CB7462" d="M32.522,61.341c0,0,3.582,9.993,1.178,13.499c0,0-1.203-3.807-2.906-8.315L32.522,61.341z"/>
		<path fill="#D88375" d="M50.165,41.279c0,0-5.66,3.456-10.219,8.816C33.981,57.109,30.944,66.9,30.944,66.9
			s-2.152-3.181-1.152-6.387c0.428-1.364,3.441-8.114,7.227-12.482c5.67-6.546,13.195-12.462,13.195-12.462L50.165,41.279z"/>
		<g>
			<circle fill="#EDC92C" cx="50.254" cy="39.74" r="4.398"/>
			<circle fill="#D62127" cx="50.127" cy="35.39" r="2.422"/>
			<circle fill="#D62127" cx="53.97" cy="37.473" r="2.423"/>
			<circle fill="#D62127" cx="46.394" cy="37.725" r="2.423"/>
			<circle fill="#D62127" cx="46.609" cy="42.213" r="2.423"/>
			<circle fill="#D62127" cx="50.523" cy="44.152" r="2.423"/>
			<circle fill="#D62127" cx="54.114" cy="41.817" r="2.422"/>
			<circle fill="#EDC92C" cx="50.254" cy="39.74" r="3.105"/>
		</g>
	</g>
	<g>
		<path fill="#E4AEA7" d="M72.352,44.285c0-9.959,2.932-18.178,12.975-18.178c16.029,0,21.938,17.637,21.938,27.595
			c0,0.832-0.061,1.613-0.17,2.354l0.154,0.051l-2.287,20.036l-2.482,24.002h-0.006c-0.141,7.098-5.324,11.461-13.289,11.633
			c-7.064-0.172-12.049-4.535-12.189-11.633c0,0-1.004-19.143-1.004-26.682c0-5.321-2.311-17.664-3.086-24.467
			C72.543,47.4,72.352,45.812,72.352,44.285z"/>
		<path fill="#CB7462" d="M75.86,60.964c0,0,3.957,10.37,1.553,13.876c0,0-1.203-3.807-2.906-8.315L75.86,60.964z"/>
		<path fill="#D88375" d="M86.729,41.279c0,0-4.971,6.698-6.813,10.068c-3.08,5.635-5.26,15.553-5.26,15.553
			s-1.275-3.03-1.152-6.387c0.102-2.705,1.158-6.683,3.484-11.23s9.689-13.714,9.689-13.714L86.729,41.279z"/>
		<path fill="#CB7462" d="M104.37,61.341c0,0-3.58,9.993-1.176,13.499c0,0,1.201-3.807,2.904-8.315L104.37,61.341z"/>
		<path fill="#D88375" d="M86.729,41.279c0,0,5.66,3.456,10.219,8.816c5.965,7.014,9,16.805,9,16.805s2.154-3.181,1.152-6.387
			c-0.426-1.364-3.441-8.114-7.225-12.482c-5.672-6.546-13.197-12.462-13.197-12.462L86.729,41.279z"/>
		<g>
			<circle fill="#EDC92C" cx="86.638" cy="39.74" r="4.399"/>
			<circle fill="#D62127" cx="86.764" cy="35.39" r="2.422"/>
			<circle fill="#D62127" cx="82.922" cy="37.473" r="2.422"/>
			<circle fill="#D62127" cx="90.499" cy="37.725" r="2.422"/>
			<circle fill="#D62127" cx="90.284" cy="42.213" r="2.422"/>
			<circle fill="#D62127" cx="86.37" cy="44.152" r="2.422"/>
			<circle fill="#D62127" cx="82.778" cy="41.817" r="2.422"/>
			<circle fill="#EDC92C" cx="86.638" cy="39.74" r="3.106"/>
		</g>
	</g>
</g>
</svg>
