<?xml version="1.0" encoding="utf-8"?>
<!-- Generator: Adobe Illustrator 16.0.0, SVG Export Plug-In . SVG Version: 6.00 Build 0)  -->
<!DOCTYPE svg PUBLIC "-//W3C//DTD SVG 1.1//EN" "http://www.w3.org/Graphics/SVG/1.1/DTD/svg11.dtd">
<svg version="1.1" id="Layer_1" xmlns="http://www.w3.org/2000/svg" xmlns:xlink="http://www.w3.org/1999/xlink" x="0px" y="0px"
	 width="136.602px" height="135.696px" viewBox="0 0 136.602 135.696" enable-background="new 0 0 136.602 135.696"
	 xml:space="preserve">
<g>
	<g>
		<path fill="#E84849" d="M4.494,67.848c0-35.239,28.566-63.806,63.807-63.806s63.807,28.566,63.807,63.806
			c0,35.242-28.566,63.807-63.807,63.807S4.494,103.09,4.494,67.848z"/>
	</g>
	<g>
		<path fill="none" d="M4.494,67.848c0-35.239,28.566-63.806,63.807-63.806s63.807,28.566,63.807,63.806
			c0,35.242-28.566,63.807-63.807,63.807S4.494,103.09,4.494,67.848z"/>
	</g>
	<g>
		<g>
			<g>
				<g>
					<path fill="#E79E2D" d="M80.902,75.994L101.6,55.295c5.342-5.341-0.021-8.64-5.363-13.98L23.898,113.65
						c2.914,2.824,6.094,5.373,9.502,7.605l35.35-42.441C72.92,80.229,77.395,79.504,80.902,75.994z"/>
				</g>
			</g>
			<g>
				<g>
					<path fill="#D68A28" d="M23.898,113.65l72.338-72.336c-5.34-5.341-8.639-10.704-13.98-5.362L61.559,56.651
						c-3.508,3.507-4.234,7.979-2.82,12.153l-42.846,35.424C18.254,107.625,20.938,110.779,23.898,113.65z"/>
				</g>
			</g>
		</g>
		<g>
			<path fill="#CDCCCB" d="M96.953,40.601c-5.342-5.343-9.355-9.99-14.697-4.648L61.559,56.651
				c-2.521,2.521,16.82,21.866,19.344,19.343L101.6,55.295C106.941,49.954,102.293,45.94,96.953,40.601z"/>
		</g>
		<g>
			<path fill="#AAAAAA" d="M96.953,40.601c-5.342-5.343-9.355-9.99-14.697-4.648L61.559,56.651
				c-1.262,1.26,2.945,6.726,7.779,11.562L96.953,40.601z"/>
		</g>
		<g>
			<path fill="#B2B2B2" d="M62.855,75.014c-3.541-3.541-4.799-8.027-4.799-8.027L46.98,78.289
				c-1.363,1.361,10.975,13.594,12.338,12.23l11.18-11.18C70.498,79.34,66.398,78.557,62.855,75.014z"/>
		</g>
		<g>
			<path fill="#8D9091" d="M62.664,74.824c-3.389-3.506-4.607-7.838-4.607-7.838L46.98,78.289c-0.682,0.682,1.887,4.008,5.094,7.215
				L62.664,74.824z"/>
		</g>
		<g>
			<path fill="#3D4040" d="M87.459,23.993l-17.32,24.076c-2.521,2.521,16.822,21.866,19.344,19.345l24.078-17.323
				C118.898,44.752,92.801,18.653,87.459,23.993z"/>
		</g>
		<g>
			<path fill="#343433" d="M87.459,23.993l-17.32,24.076c-1.24,1.24,2.807,6.549,7.543,11.325l26.836-26.353
				C97.992,26.516,90.131,21.324,87.459,23.993z"/>
		</g>
		<g>
			<path fill="#1D1E1E" d="M75.264,51.612c-0.213,0-0.428-0.067-0.609-0.207c-0.438-0.336-0.52-0.964-0.184-1.401L91.75,27.477
				c0.334-0.439,0.963-0.521,1.4-0.186c0.439,0.336,0.521,0.964,0.186,1.402L76.057,51.221
				C75.859,51.478,75.563,51.612,75.264,51.612z"/>
		</g>
		<g>
			<path fill="#2E2F2F" d="M87.299,63.646c-0.301,0-0.598-0.135-0.793-0.392c-0.336-0.438-0.254-1.066,0.184-1.402l22.525-17.279
				c0.439-0.336,1.066-0.253,1.402,0.185c0.336,0.438,0.254,1.066-0.184,1.402L87.908,63.438
				C87.727,63.578,87.512,63.646,87.299,63.646z"/>
		</g>
		<g>
			<path fill="#2E2F2F" d="M83.246,59.595c-0.271,0-0.541-0.11-0.738-0.326c-0.373-0.408-0.344-1.04,0.064-1.413l21.811-19.901
				c0.408-0.372,1.041-0.343,1.412,0.065c0.373,0.407,0.344,1.04-0.064,1.412L83.92,59.333
				C83.729,59.508,83.486,59.595,83.246,59.595z"/>
		</g>
		<g>
			<path fill="#1D1E1E" d="M79.078,55.425c-0.24,0-0.482-0.087-0.674-0.262c-0.408-0.372-0.438-1.005-0.064-1.412l19.9-21.811
				c0.371-0.407,1.006-0.437,1.412-0.065c0.408,0.372,0.438,1.005,0.064,1.413l-19.9,21.811
				C79.619,55.314,79.35,55.425,79.078,55.425z"/>
		</g>
	</g>
	<g>
		<path fill="none" d="M4.494,67.848c0-35.239,28.566-63.806,63.807-63.806s63.807,28.566,63.807,63.806
			c0,35.242-28.566,63.807-63.807,63.807S4.494,103.09,4.494,67.848z"/>
	</g>
</g>
</svg>
