<?xml version="1.0" encoding="utf-8"?>
<!-- Generator: Adobe Illustrator 16.0.0, SVG Export Plug-In . SVG Version: 6.00 Build 0)  -->
<!DOCTYPE svg PUBLIC "-//W3C//DTD SVG 1.1//EN" "http://www.w3.org/Graphics/SVG/1.1/DTD/svg11.dtd">
<svg version="1.1" id="Layer_1" xmlns="http://www.w3.org/2000/svg" xmlns:xlink="http://www.w3.org/1999/xlink" x="0px" y="0px"
	 width="136.914px" height="136.914px" viewBox="0 0 136.914 136.914" enable-background="new 0 0 136.914 136.914"
	 xml:space="preserve">
<g>
	<g>
		<g>
			<g>
				<g>
					<g>
						<g>
							<g>
								<circle fill="#49A0AE" cx="68.457" cy="68.458" r="63.333"/>
							</g>
						</g>
					</g>
				</g>
			</g>
		</g>
	</g>
	<g>
		<g>
			<g>
				<g>
					<g>
						<g>
							<g>
								<g>
									<g>
										<path fill-rule="evenodd" clip-rule="evenodd" fill="#D7AF8F" d="M98.421,71.13c-2.27,6.866-11.613,13.007-20.076,8.329
											c-0.137,2.604-0.127,5.076,0.641,7.048c0.445,1.146,1.431,1.732,1.281,2.776c-3.787-0.999-2.204-6.103-2.776-10.038
											c-0.389-2.673-3.683-3.989-2.99-7.048c-1.946,0.26-3.802,0.612-5.767,0.854c0.203,2.769,3.184,3.809,4.271,6.193
											c1.043,2.288,1.348,4.686,2.563,6.834c1.17,2.069,2.817,3.163,3.845,5.34c-4.967-1.809-5.304-7.601-7.476-11.96
											c-1.221-2.45-4.014-3.42-4.271-6.193c-4.016,0.029-6.406-1.567-7.047-4.912c-1.627-1.222-3.998-1.698-3.631-4.912
											c-1.793-0.636-2.824-0.594-4.059,0.427c-4.266-0.604-8.547,0.65-10.893-2.136c-0.33-0.393-0.33-1.115-0.641-1.709
											c-0.986-1.886-2.689-3.853-2.989-5.767c-0.456-2.912,0.454-6.018,1.921-8.542c-0.18-2.602,1.098-3.744,2.35-4.913
											c1.125-3.646,3.189-6.351,5.98-8.329c0.668,0.044,1.568-0.145,1.922,0.213c1.746-1.813,3.434-3.686,7.049-3.63
											c2.781-2.628,7.006-2.353,10.892-2.35c1.046,0.001,1.972-0.482,2.99-0.428c0.549,0.03,1.138,0.594,1.708,0.641
											c0.875,0.074,1.903-0.683,2.777-0.641c0.499,0.024,1.52,0.506,2.136,0.641c1.034,0.227,1.876,0.233,2.563,0.428
											c0.634,0.179,1.083,0.853,1.709,1.067c0.261,0.091,0.856-0.253,1.067-0.213c1.969,0.367,4.2,2.14,5.553,3.203
											c0.59-0.254,0.75-0.605,1.496-0.214c2.839,1.014,4.644,3.656,6.834,5.767c2.844,2.742,6.209,6.437,5.98,11.961
											c2.049,1.045,2.801,5.962,1.494,8.329c0.915,6.42-1.484,11.313-4.912,14.096C99.222,71.467,98.922,71.198,98.421,71.13z
											 M70.229,27.347c0.585,0.183,3.069,3.289,0.641,4.058c-0.423-0.484,0.228-1.193,0-2.136c-2.491-3.064-8.872-1.668-11.96,0
											c-0.059,0.375,0.602,1.065,0,1.282c-2.188-1.478-5.719,0.615-7.262,2.349c-0.619,0.746,0.119,1.532-0.854,1.923
											c-0.756-0.17-0.253-1.598-1.281-1.495c-3.143,1.484-4.651,4.604-5.979,7.902c0.713-0.215,0.699,0.296,0.641,0.854
											c-2.619-0.391-3.164,2.362-2.563,4.485c-3.235,1.84-2.76,10.244,0.427,12.388c0.479-1.031,2.163-2.846,3.418-1.709
											c-1.443,0.692-3.092,1.181-2.99,3.418c2.225,2.452,9.359,3.004,11.96,1.067c0.866,0.131,1.257,0.736,2.35,0.641
											c0.392-0.248,0.147-1.134,1.067-0.854c-0.152,3.356,1.016,5.392,3.631,5.979c0.319,6.17,8.307,4.925,13.242,3.845
											c-0.338-1.312,1.35-0.992,1.709-2.136c-0.346-1.222-1.773-1.359-1.923-2.776c1.46,0.462,2.499,1.346,2.563,3.204
											c-0.096,0.76-0.865,0.843-1.282,1.281c4.079-0.348,9.72-2.821,8.544-7.688c-0.314-1.299-1.559-1.378-2.137-2.776
											c4.57,0.705,3.148,8.267-0.213,9.184c3.441-0.188,5.41-1.852,7.261-3.632c0.015-0.731-0.29-1.366,0-2.135
											c0.36-0.952,1.399-0.698,2.136-1.495c0.295-0.317,0.313-1.246,0.641-1.708c0.93-1.307,2.17-2.079,2.99-1.923
											c-0.967,1.596-2.93,2.195-3.203,4.485c-3.934,0.813-1.027,3.712,0.854,4.484c2.536,1.042,5.625,1.968,7.262,2.563
											c0.264-0.449,0.592-0.833,0.854-1.282c-0.571-0.282-1.251-0.457-1.067-1.495c1.045-0.19,1.003,0.706,2.135,0.428
											c0.775-1.006,1.215-2.345,1.709-3.631c0.127-0.838-1.172-0.251-0.854-1.281c1.494-0.042,1.338-2.896,1.281-5.125
											c-0.65-0.024-1.457,0.886-1.709,0c0.051-1.018,1.391-0.747,1.922-1.282c0.383-2.292,0.468-5.978-1.494-6.62
											c-0.264,0.519-0.182,1.386-0.855,1.494c-1.395-1.325,1.107-2.063,0.642-3.845c-0.01-0.702-0.913-0.51-0.854-1.281
											c0.406-2.982-1.829-5.137-3.203-7.048c-3.695-0.833-3.088,3.729-5.127,3.844c1.01-1.837,1.184-4.511,4.059-4.484
											c0.112-1.109-0.919-1.075-1.495-1.495c-1.726-1.977-3.159-4.244-5.98-5.125c0.155,0.779,1.616,2.661,0.214,2.99
											c-0.852-3.35-3.769-4.634-6.834-5.768c0.167,1.036,1.178,3.941-0.214,4.485c-0.663-0.998-0.103-3.131-0.854-4.485
											c-1.061-0.812-2.97-1.503-4.271-0.854c-0.246-0.536-0.895-0.672-1.281-1.067C73.729,28.037,72.563,27.44,70.229,27.347z
											 M89.664,66.645c-1.905,1.679-4.179,3.577-6.835,3.844c-0.549,0.056-1.123-0.477-1.709-0.427
											c-1.825,0.155-3.593,2.438-5.979,1.709c0.674,5.892,4.868,9.026,11.106,8.329c5.582-0.625,9.439-5.245,11.105-9.397
											C95.161,68.979,91.546,68.678,89.664,66.645z"/>
									</g>
								</g>
							</g>
						</g>
					</g>
					<g>
						<g>
							<g>
								<g>
									<g>
										<path fill-rule="evenodd" clip-rule="evenodd" fill="#E9C29C" d="M76.636,27.347c0.387,0.396,1.035,0.531,1.281,1.067
											c1.302-0.648,3.211,0.043,4.271,0.854c0.752,1.354,0.191,3.487,0.854,4.485c1.392-0.544,0.381-3.449,0.214-4.485
											c3.065,1.134,5.982,2.418,6.834,5.768c1.402-0.329-0.059-2.211-0.214-2.99c2.821,0.881,4.255,3.148,5.98,5.125
											c0.576,0.42,1.607,0.386,1.495,1.495c-2.875-0.026-3.049,2.647-4.059,4.484c2.039-0.115,1.432-4.677,5.127-3.844
											c1.374,1.911,3.609,4.065,3.203,7.048c-0.059,0.771,0.845,0.579,0.854,1.281c0.466,1.781-2.036,2.52-0.642,3.845
											c0.674-0.108,0.592-0.976,0.855-1.494c1.962,0.643,1.877,4.328,1.494,6.62c-0.531,0.535-1.871,0.265-1.922,1.282
											c0.252,0.886,1.059-0.024,1.709,0c0.057,2.229,0.213,5.083-1.281,5.125c-0.318,1.03,0.98,0.443,0.854,1.281
											c-0.494,1.286-0.934,2.625-1.709,3.631c-1.132,0.278-1.09-0.618-2.135-0.428c-0.184,1.038,0.496,1.213,1.067,1.495
											c-0.263,0.449-0.591,0.833-0.854,1.282c-1.637-0.596-4.726-1.521-7.262-2.563c-1.881-0.772-4.787-3.672-0.854-4.484
											c0.273-2.29,2.236-2.89,3.203-4.485c-0.82-0.156-2.061,0.616-2.99,1.923c-0.328,0.462-0.346,1.391-0.641,1.708
											c-0.736,0.797-1.775,0.543-2.136,1.495c-0.29,0.769,0.015,1.403,0,2.135c-1.851,1.78-3.819,3.443-7.261,3.632
											c3.361-0.917,4.783-8.479,0.213-9.184c0.578,1.398,1.822,1.478,2.137,2.776c1.176,4.867-4.465,7.341-8.544,7.688
											c0.417-0.438,1.187-0.521,1.282-1.281c-0.064-1.858-1.104-2.742-2.563-3.204c0.149,1.417,1.577,1.555,1.923,2.776
											c-0.359,1.144-2.047,0.824-1.709,2.136c-4.936,1.08-12.923,2.325-13.242-3.845c-2.615-0.588-3.783-2.623-3.631-5.979
											c-0.92-0.279-0.676,0.606-1.067,0.854c-1.093,0.096-1.483-0.51-2.35-0.641c-2.601,1.937-9.735,1.385-11.96-1.067
											c-0.102-2.237,1.547-2.726,2.99-3.418c-1.255-1.137-2.939,0.678-3.418,1.709c-3.187-2.144-3.662-10.548-0.427-12.388
											c-0.601-2.123-0.056-4.876,2.563-4.485c0.059-0.558,0.072-1.068-0.641-0.854c1.328-3.299,2.837-6.418,5.979-7.902
											c1.028-0.103,0.525,1.325,1.281,1.495c0.974-0.391,0.235-1.177,0.854-1.923c1.543-1.733,5.073-3.826,7.262-2.349
											c0.602-0.217-0.059-0.907,0-1.282c3.088-1.668,9.469-3.064,11.96,0c0.228,0.942-0.423,1.651,0,2.136
											c2.429-0.769-0.056-3.875-0.641-4.058C72.563,27.44,73.729,28.037,76.636,27.347z M73.646,36.104
											c-4.605,0.117-8.1,8.463-1.494,8.97c0.277,1.53,1.711,2.946,3.203,2.563c-0.935-1.06-2.449-1.538-2.777-3.203
											c-6.251-0.406-2.654-7.708,1.709-7.688c-0.289-4.561,2.803-5.742,5.34-7.476c-0.305-0.051-0.361-0.352-0.641-0.427
											C76.462,30.52,73.438,31.695,73.646,36.104z M59.55,31.191c0.678,1.174,2.168,1.535,2.35,3.204
											c3.745-0.686,7.336,0.252,9.184,2.137c-0.271-2.777-5.271-3.384-8.757-2.99C61.935,32.33,60.829,30.815,59.55,31.191z
											 M82.829,36.745c1.963-0.955,3.483,0.894,4.699,0.641C87.053,36.161,83.415,34.603,82.829,36.745z M46.948,38.24
											c0.706,0.44,1.48-0.568,2.777-0.214c1.223,0.699,1.744,2.101,2.135,3.631c3.623-0.42,5.293,1.114,5.768,3.845
											c0.98-0.083,1.375-0.485,2.135-0.428c2.607,0.2,3.313,3.692,4.699,4.485c-0.313-2.487-2.58-5.933-6.407-4.913
											c0.087-1.438-0.899-1.806-1.281-2.776c1.197-1.373,4.403,0.083,5.339-0.64c-1.538-1.406-4.723-0.801-6.193,0.213
											c-0.873-0.551-2.122-0.726-3.631-0.641C52.403,38.114,48.729,35.788,46.948,38.24z M87.741,43.792
											c0.265,2.472-1.169,3.245-3.631,2.99c-0.227,2.179-2.668,3.744-4.912,2.563c-0.671,1.754-3.621,1.025-4.484,0
											c0.595,4.172-7.941,2.48-10.465,4.912c-1.984-2.075-6.594-1.521-7.262-4.912c-1.021-0.511-3.413-1.154-4.059,0.214
											c3.473-0.86,4.518,2.23,6.407,3.631c2.681-0.261,3.693,1.147,5.126,2.136c2.306-2.892,9.233-1.161,11.105-4.485
											c0.485,0.369,1.193,0.516,2.137,0.427c0.768-0.229,1.324-0.668,1.922-1.067c2.123,1.094,4.52-0.766,5.125-2.563
											c2.596,0.034,3.978-1.148,3.631-4.058c1.111-0.383,2.476-0.515,2.563-1.922c-2.394,2.103-6.386,1.131-7.262-1.709
											C83.118,42.316,85.635,43.391,87.741,43.792z M90.091,48.706c-1.779,3.346-4.754,5.497-8.756,6.62
											c1.648,1.196,3.039-0.618,4.912,0c0.725,0.841,0.493,2.639,1.067,3.631c2.128,0.171,5.88,1.112,5.767-1.067
											c-1.289,0.931-3.196,0.534-5.126,0.426c-0.578-0.631-0.358-2.062-0.641-2.989c-0.388-0.539-1.403-0.448-1.709-1.068
											c1.837-1.581,4.212-2.622,5.34-4.912c1.921-0.215,3.302-0.969,3.63-2.776c-0.045-0.239-0.236-0.333-0.426-0.428
											C93.514,47.714,92.345,48.751,90.091,48.706z M42.892,49.131c3.609-0.237,5.037,3.486,6.62,5.98
											c-1.089,0.335-2.296,0.552-2.563,1.708c1,0.361,1.773-1.167,3.204-1.067c1.905,1.085,4.263,1.718,5.126,3.845
											c0.73-0.776-0.742-2.017-0.428-2.35c1.748-0.146,2.67,1.553,3.845,1.281c-0.458-1.339-3.029-2.544-4.485-1.495
											c-1.146-1.132-2.11-0.728-3.203-1.495c-2.89-2.027-3.177-7.893-8.33-7.261C42.661,48.65,42.726,48.942,42.892,49.131z
											 M59.978,60.666c0.966,0.371,1.18-0.548,2.135-0.642c2.49-0.242,3.902,1.371,4.059,4.059
											c2.289-0.719,4.508,0.277,5.339,1.708c1.433-1.747,4.701-0.694,5.98-0.213c-0.499-1.9-4.263-1.802-5.767-0.855
											c-1.108-1.064-2.954-1.916-4.912-1.494C66.965,59.852,61.837,57.576,59.978,60.666z M98.421,61.305
											c0.715,0.708-0.019,2.866,0.854,3.417c0.585-0.667,0.139-1.538,0.428-2.135c1.039-0.336,2.398,0.719,2.349-0.428
											c-0.555-0.648-1.917-0.407-2.776-0.213c-0.119-1.377-0.797-2.193-2.135-2.35C97.003,60.731,98.261,60.469,98.421,61.305z
											 M73.646,69.635c-0.677-3.163-4.787-0.762-7.475-1.281c-2.033-0.395-1.818-1.832-3.631-2.563
											C62.7,70.553,70.643,67.701,73.646,69.635z"/>
									</g>
								</g>
							</g>
						</g>
					</g>
					<g>
						<g>
							<g>
								<g>
									<g>
										<g>
											<path fill-rule="evenodd" clip-rule="evenodd" fill="#D7AF8F" d="M78.985,28.842c0.279,0.075,0.336,0.376,0.641,0.427
												c-2.537,1.733-5.629,2.915-5.34,7.476c-4.363-0.02-7.96,7.282-1.709,7.688c0.328,1.665,1.843,2.144,2.777,3.203
												c-1.492,0.384-2.926-1.032-3.203-2.563c-6.605-0.507-3.111-8.853,1.494-8.97C73.438,31.695,76.462,30.52,78.985,28.842z"
												/>
										</g>
									</g>
								</g>
							</g>
						</g>
						<g>
							<g>
								<g>
									<g>
										<g>
											<path fill-rule="evenodd" clip-rule="evenodd" fill="#D7AF8F" d="M62.326,33.542c3.486-0.394,8.485,0.213,8.757,2.99
												c-1.848-1.885-5.438-2.822-9.184-2.137c-0.182-1.669-1.672-2.03-2.35-3.204C60.829,30.815,61.935,32.33,62.326,33.542z"
												/>
										</g>
									</g>
								</g>
							</g>
						</g>
						<g>
							<g>
								<g>
									<g>
										<g>
											<path fill-rule="evenodd" clip-rule="evenodd" fill="#D7AF8F" d="M87.528,37.385c-1.216,0.253-2.736-1.596-4.699-0.641
												C83.415,34.603,87.053,36.161,87.528,37.385z"/>
										</g>
									</g>
								</g>
							</g>
						</g>
						<g>
							<g>
								<g>
									<g>
										<g>
											<path fill-rule="evenodd" clip-rule="evenodd" fill="#D7AF8F" d="M52.288,40.802c1.509-0.085,2.758,0.09,3.631,0.641
												c1.471-1.014,4.655-1.619,6.193-0.213c-0.936,0.723-4.142-0.733-5.339,0.64c0.382,0.971,1.368,1.338,1.281,2.776
												c3.827-1.02,6.095,2.426,6.407,4.913c-1.386-0.793-2.092-4.285-4.699-4.485c-0.76-0.058-1.154,0.345-2.135,0.428
												c-0.475-2.73-2.145-4.265-5.768-3.845c-0.391-1.53-0.912-2.932-2.135-3.631c-1.297-0.354-2.071,0.654-2.777,0.214
												C48.729,35.788,52.403,38.114,52.288,40.802z"/>
										</g>
									</g>
								</g>
							</g>
						</g>
						<g>
							<g>
								<g>
									<g>
										<g>
											<path fill-rule="evenodd" clip-rule="evenodd" fill="#D7AF8F" d="M83.684,39.948c0.876,2.84,4.868,3.812,7.262,1.709
												c-0.088,1.407-1.452,1.539-2.563,1.922c0.347,2.909-1.035,4.092-3.631,4.058c-0.605,1.798-3.002,3.657-5.125,2.563
												c-0.598,0.399-1.154,0.839-1.922,1.067c-0.943,0.089-1.651-0.058-2.137-0.427c-1.872,3.324-8.8,1.594-11.105,4.485
												c-1.433-0.988-2.445-2.396-5.126-2.136c-1.89-1.4-2.935-4.491-6.407-3.631c0.646-1.368,3.038-0.725,4.059-0.214
												c0.668,3.391,5.277,2.837,7.262,4.912c2.523-2.432,11.06-0.74,10.465-4.912c0.863,1.025,3.813,1.754,4.484,0
												c2.244,1.182,4.686-0.384,4.912-2.563c2.462,0.255,3.896-0.519,3.631-2.99C85.635,43.391,83.118,42.316,83.684,39.948z"
												/>
										</g>
									</g>
								</g>
							</g>
						</g>
						<g>
							<g>
								<g>
									<g>
										<g>
											<path fill-rule="evenodd" clip-rule="evenodd" fill="#D7AF8F" d="M94.149,46.141c0.189,0.095,0.381,0.188,0.426,0.428
												c-0.328,1.808-1.709,2.562-3.63,2.776c-1.128,2.29-3.503,3.331-5.34,4.912c0.306,0.62,1.321,0.529,1.709,1.068
												c0.282,0.928,0.063,2.358,0.641,2.989c1.93,0.108,3.837,0.505,5.126-0.426c0.113,2.18-3.639,1.238-5.767,1.067
												c-0.574-0.992-0.343-2.79-1.067-3.631c-1.873-0.618-3.264,1.196-4.912,0c4.002-1.123,6.977-3.274,8.756-6.62
												C92.345,48.751,93.514,47.714,94.149,46.141z"/>
										</g>
									</g>
								</g>
							</g>
						</g>
						<g>
							<g>
								<g>
									<g>
										<g>
											<path fill-rule="evenodd" clip-rule="evenodd" fill="#D7AF8F" d="M42.677,48.278c5.153-0.632,5.44,5.233,8.33,7.261
												c1.093,0.768,2.057,0.363,3.203,1.495c1.456-1.049,4.027,0.156,4.485,1.495c-1.175,0.271-2.097-1.427-3.845-1.281
												c-0.314,0.333,1.158,1.573,0.428,2.35c-0.863-2.127-3.221-2.76-5.126-3.845c-1.431-0.1-2.204,1.429-3.204,1.067
												c0.268-1.156,1.475-1.373,2.563-1.708c-1.583-2.494-3.011-6.218-6.62-5.98C42.726,48.942,42.661,48.65,42.677,48.278z"/>
										</g>
									</g>
								</g>
							</g>
						</g>
						<g>
							<g>
								<g>
									<g>
										<g>
											<path fill-rule="evenodd" clip-rule="evenodd" fill="#D7AF8F" d="M66.812,63.228c1.958-0.422,3.804,0.43,4.912,1.494
												c1.504-0.946,5.268-1.045,5.767,0.855c-1.279-0.481-4.548-1.534-5.98,0.213c-0.831-1.431-3.05-2.427-5.339-1.708
												c-0.156-2.688-1.568-4.301-4.059-4.059c-0.955,0.094-1.169,1.013-2.135,0.642C61.837,57.576,66.965,59.852,66.812,63.228
												z"/>
										</g>
									</g>
								</g>
							</g>
						</g>
						<g>
							<g>
								<g>
									<g>
										<g>
											<path fill-rule="evenodd" clip-rule="evenodd" fill="#D7AF8F" d="M97.14,59.597c1.338,0.156,2.016,0.973,2.135,2.35
												c0.859-0.194,2.222-0.436,2.776,0.213c0.05,1.146-1.31,0.092-2.349,0.428c-0.289,0.597,0.157,1.468-0.428,2.135
												c-0.872-0.551-0.139-2.709-0.854-3.417C98.261,60.469,97.003,60.731,97.14,59.597z"/>
										</g>
									</g>
								</g>
							</g>
						</g>
						<g>
							<g>
								<g>
									<g>
										<g>
											<path fill-rule="evenodd" clip-rule="evenodd" fill="#D7AF8F" d="M62.54,65.791c1.813,0.731,1.598,2.169,3.631,2.563
												c2.688,0.52,6.798-1.882,7.475,1.281C70.643,67.701,62.7,70.553,62.54,65.791z"/>
										</g>
									</g>
								</g>
							</g>
						</g>
					</g>
					<g>
						<g>
							<g>
								<g>
									<g>
										<path fill-rule="evenodd" clip-rule="evenodd" fill="#E9C29C" d="M97.353,70.703c-1.666,4.152-5.523,8.772-11.105,9.397
											c-6.238,0.697-10.433-2.438-11.106-8.329c2.387,0.729,4.154-1.554,5.979-1.709c0.586-0.05,1.16,0.482,1.709,0.427
											c2.656-0.267,4.93-2.165,6.835-3.844C91.546,68.678,95.161,68.979,97.353,70.703z"/>
									</g>
								</g>
							</g>
						</g>
					</g>
					<g>
						<g>
							<g>
								<g>
									<g>
										<path fill-rule="evenodd" clip-rule="evenodd" fill="#BEBEBE" d="M99.702,108.079c-1.814-4.266-5.277-11.773-6.621-17.727
											c-1.602-7.091,6.984-15.475,10.038-19.649c3.795-5.188,5.265-14.054,3.204-22.425
											c-1.758-7.137-6.286-11.887-11.961-15.805c-6.604-4.56-15.236-8.296-26.697-7.476c-4.986,0.357-10.941,2.153-15.164,4.059
											c-7.667,3.458-14.2,10.022-15.377,19.649c-0.255,2.086,0.352,4.313,0.214,6.833c-0.388,7.095-6.046,9.521-9.397,14.523
											c1.947,3.163,9.434,4.873,4.912,10.038c0.629,1.222,2.95,0.752,3.631,1.922c0.154,1.721-1.926,1.206-2.35,2.35
											c1.109,1.65,2.103,1.602,2.563,3.204c1.29,4.484-3.67,9.932,2.989,10.892c5.936,0.855,12.506-2.446,18.795-1.281
											c1.67,1.261,2.426,3.687,2.99,6.408c0.496,2.387,1.753,5.297,0.854,7.047c-2.176-0.412-2.177-3.443-2.563-5.553
											c-0.443-2.427-0.834-4.612-2.135-5.979c-8.441-1.138-15.815,4.041-21.571,0.214c-0.99-0.659-1.944-2.157-2.136-3.204
											c-0.455-2.494,1.354-4.647,0.854-7.475c-0.377-2.142-4.084-2.949-1.922-5.98c-2.873-0.604-1.855-4.553-0.427-5.98
											c-1.581-2.928-6.265-2.458-6.407-6.407c-0.107-2.973,3.033-4.236,4.484-5.768c1.612-1.697,4.271-5.35,4.699-7.688
											c0.447-2.443-0.295-4.819-0.214-6.62c0.482-10.613,7.15-17.909,14.95-21.998c4.402-2.308,10.067-4.021,14.951-4.912
											c12.083-2.207,24.76,2.961,32.676,8.97c7.59,5.76,12.398,14.095,11.747,25.843c-0.405,7.307-2.528,11.322-6.193,15.805
											c-1.628,1.989-3.261,3.961-4.698,6.193c-1.432,2.224-3.722,5.812-3.418,9.184c0.284,3.147,1.935,6.613,2.99,9.611
											c1.059,3.008,2.898,5.765,2.99,9.184H99.702z"/>
									</g>
								</g>
							</g>
						</g>
					</g>
				</g>
			</g>
		</g>
	</g>
</g>
</svg>
