<?xml version="1.0" encoding="utf-8"?>
<!-- Generator: Adobe Illustrator 16.0.0, SVG Export Plug-In . SVG Version: 6.00 Build 0)  -->
<!DOCTYPE svg PUBLIC "-//W3C//DTD SVG 1.1//EN" "http://www.w3.org/Graphics/SVG/1.1/DTD/svg11.dtd">
<svg version="1.1" id="Layer_1" xmlns="http://www.w3.org/2000/svg" xmlns:xlink="http://www.w3.org/1999/xlink" x="0px" y="0px"
	 width="136.913px" height="136.914px" viewBox="0 0 136.913 136.914" enable-background="new 0 0 136.913 136.914"
	 xml:space="preserve">
<g>
	<circle fill="#65A844" cx="68.456" cy="68.458" r="63.333"/>
	<g>
		<g>
			<path fill="#7D3719" d="M68.861,52.858c0,0,1.264-8.635-0.895-14.129c-2.158-5.496,2.883,0.557,2.883,0.557l-0.957,13.758
				L68.861,52.858z"/>
			<polygon fill="#7D3719" points="69.244,99.702 68.637,102.263 70.344,101.327 71.275,102.622 72.07,101.288 73.643,101.751 
				71.859,98.825 			"/>
			<g>
				<g>
					<g>
						<g>
							<g>
								
									<radialGradient id="SVGID_2_" cx="2375.2959" cy="-100.1631" r="56.0607" gradientTransform="matrix(0.9999 -0.0198 0.0198 0.9999 -2337.9722 219.6633)" gradientUnits="userSpaceOnUse">
									<stop  offset="0" style="stop-color:#E92C25"/>
									<stop  offset="0.6" style="stop-color:#E92C25"/>
								</radialGradient>
								<path fill="url(#SVGID_2_)" d="M82.393,44.401c-4.557,0.094-8.99,2.027-12.715,5.207c-3.801-2.934-8.227-4.625-12.701-4.535
									C44.984,45.31,33.023,57.062,38.152,75.062c4.615,16.193,11.898,26.746,23.887,26.51c3.332-0.066,7.555-0.809,8.846-1.76
									c1.59,0.977,5.443,1.313,8.678,1.248c11.988-0.236,18.852-11.068,22.826-27.436C106.799,55.438,94.383,44.165,82.393,44.401
									z"/>
							</g>
						</g>
					</g>
				</g>
			</g>
			<g>
				<g>
					<g>
						<g>
							<g>
								<path fill="#FFFFFF" d="M83.986,52.892c0,0,7.316,2.594,9.75,9.699C93.736,62.591,96.701,49.837,83.986,52.892z"/>
							</g>
						</g>
					</g>
				</g>
			</g>
		</g>
		<g>
			<g>
				<g>
					<g>
						<g>
							<path fill="#1D9E49" d="M56.809,38.481c0.318,1.797,3.75,3.813,7.43,3.152c3.674-0.656,6.396-2.645,6.074-4.443
								C69.539,32.856,56.809,38.481,56.809,38.481z"/>
						</g>
					</g>
				</g>
			</g>
		</g>
	</g>
</g>
</svg>
