<?xml version="1.0" encoding="utf-8"?>
<!-- Generator: Adobe Illustrator 16.0.0, SVG Export Plug-In . SVG Version: 6.00 Build 0)  -->
<!DOCTYPE svg PUBLIC "-//W3C//DTD SVG 1.1//EN" "http://www.w3.org/Graphics/SVG/1.1/DTD/svg11.dtd">
<svg version="1.1" id="Layer_1" xmlns="http://www.w3.org/2000/svg" xmlns:xlink="http://www.w3.org/1999/xlink" x="0px" y="0px"
	 width="136.913px" height="136.914px" viewBox="0 0 136.913 136.914" enable-background="new 0 0 136.913 136.914"
	 xml:space="preserve">
<g>
	<g>
		<g>
			<g>
				<g>
					<g>
						<circle fill="#344E5D" cx="68.456" cy="68.457" r="63.333"/>
					</g>
				</g>
			</g>
		</g>
	</g>
	<g>
		<g>
			<g>
				<g>
					<g>
						<g>
							<path fill="#CDCCCB" d="M93.313,46.789H8.928c-0.396,1.09-0.756,2.195-1.094,3.311h85.479V46.789z"/>
						</g>
					</g>
				</g>
			</g>
		</g>
		<g>
			<g>
				<g>
					<g>
						<g>
							<path fill="#CDCCCB" d="M12.822,63.344c0,0.676-0.15,1.314-0.408,1.895h80.898v-3.313H12.578
								C12.723,62.377,12.822,62.846,12.822,63.344z"/>
						</g>
					</g>
				</g>
			</g>
		</g>
		<g>
			<g>
				<g>
					<g>
						<g>
							<path fill="#CDCCCB" d="M11.996,77.545c0,0.705-0.168,1.369-0.449,1.969h81.766v-3.309H11.777
								C11.906,76.633,11.996,77.076,11.996,77.545z"/>
						</g>
					</g>
				</g>
			</g>
		</g>
		<g>
			<g>
				<g>
					<g>
						<g>
							<path fill="#CDCCCB" d="M11.58,91.277c0,0.748-0.191,1.445-0.504,2.07h82.236v-3.309h-81.92
								C11.502,90.436,11.58,90.846,11.58,91.277z"/>
						</g>
					</g>
				</g>
			</g>
		</g>
		<g>
			<g>
				<g>
					<g>
						<g>
							<path fill="#CDCCCB" d="M23.348,105.479c0,0.652-0.135,1.273-0.377,1.838h70.342v-3.313H23.088
								C23.244,104.471,23.348,104.961,23.348,105.479z"/>
						</g>
					</g>
				</g>
			</g>
		</g>
		<g>
			<g>
				<g>
					<g>
						<g>
							<path fill="#CDCCCB" d="M93.313,118.904H30.176c1.549,1.176,3.152,2.279,4.809,3.313h58.328V118.904z"/>
						</g>
					</g>
				</g>
			</g>
		</g>
	</g>
	<g>
		<g>
			<g>
				<g>
					<g>
						<g>
							<g>
								<g>
									<circle fill="#E84849" cx="57.836" cy="48.443" r="4.67"/>
								</g>
							</g>
						</g>
					</g>
				</g>
				<g>
					<g>
						<g>
							<g>
								<g>
									<path fill="#FFFFFF" d="M54.109,49.199c-0.822-0.822-0.105-2.867,0.711-3.688c0.824-0.818,2.869-1.535,3.689-0.713
										C59.332,45.617,54.932,50.021,54.109,49.199z"/>
								</g>
							</g>
						</g>
					</g>
				</g>
			</g>
			<g>
				<g>
					<g>
						<g>
							<g>
								<g>
									<circle fill="#E84849" cx="47.649" cy="48.443" r="4.669"/>
								</g>
							</g>
						</g>
					</g>
				</g>
				<g>
					<g>
						<g>
							<g>
								<g>
									<path fill="#FFFFFF" d="M43.928,49.199c-0.822-0.822-0.107-2.867,0.715-3.688c0.82-0.818,2.863-1.535,3.684-0.713
										C49.148,45.617,44.746,50.021,43.928,49.199z"/>
								</g>
							</g>
						</g>
					</g>
				</g>
			</g>
			<g>
				<g>
					<g>
						<g>
							<g>
								<g>
									<circle fill="#E84849" cx="67.571" cy="48.443" r="4.669"/>
								</g>
							</g>
						</g>
					</g>
				</g>
				<g>
					<g>
						<g>
							<g>
								<g>
									<path fill="#FFFFFF" d="M63.848,49.199c-0.822-0.822-0.107-2.867,0.713-3.688c0.822-0.818,2.867-1.535,3.686-0.713
										C69.068,45.617,64.666,50.021,63.848,49.199z"/>
								</g>
							</g>
						</g>
					</g>
				</g>
			</g>
			<g>
				<g>
					<g>
						<g>
							<g>
								<g>
									<circle fill="#E84849" cx="77.204" cy="48.443" r="4.671"/>
								</g>
							</g>
						</g>
					</g>
				</g>
				<g>
					<g>
						<g>
							<g>
								<g>
									<path fill="#FFFFFF" d="M73.48,49.199c-0.822-0.822-0.107-2.867,0.713-3.688c0.82-0.818,2.865-1.535,3.688-0.713
										C78.703,45.617,74.301,50.021,73.48,49.199z"/>
								</g>
							</g>
						</g>
					</g>
				</g>
			</g>
			<g>
				<g>
					<g>
						<g>
							<g>
								<g>
									<circle fill="#E84849" cx="87.035" cy="48.443" r="4.67"/>
								</g>
							</g>
						</g>
					</g>
				</g>
				<g>
					<g>
						<g>
							<g>
								<g>
									<path fill="#FFFFFF" d="M83.311,49.199c-0.82-0.822-0.107-2.867,0.713-3.688c0.822-0.818,2.869-1.535,3.686-0.713
										C88.531,45.617,84.133,50.021,83.311,49.199z"/>
								</g>
							</g>
						</g>
					</g>
				</g>
			</g>
		</g>
		<g>
			<g>
				<g>
					<g>
						<g>
							<g>
								<g>
									<circle fill="#E84849" cx="29.278" cy="63.344" r="4.669"/>
								</g>
							</g>
						</g>
					</g>
				</g>
				<g>
					<g>
						<g>
							<g>
								<g>
									<path fill="#FFFFFF" d="M25.553,64.096c-0.824-0.818-0.107-2.863,0.713-3.684c0.822-0.822,2.867-1.537,3.689-0.717
										C30.773,60.518,26.373,64.92,25.553,64.096z"/>
								</g>
							</g>
						</g>
					</g>
				</g>
			</g>
			<g>
				<g>
					<g>
						<g>
							<g>
								<g>
									<path fill="#E84849" d="M14.424,63.344c0-2.578,2.092-4.67,4.672-4.67c2.576,0,4.668,2.092,4.668,4.67
										c0,2.58-2.092,4.668-4.668,4.668C16.516,68.012,14.424,65.924,14.424,63.344z"/>
								</g>
							</g>
						</g>
					</g>
				</g>
				<g>
					<g>
						<g>
							<g>
								<g>
									<path fill="#FFFFFF" d="M15.371,64.096c-0.824-0.818-0.107-2.863,0.713-3.684c0.822-0.822,2.865-1.537,3.688-0.717
										C20.59,60.518,16.191,64.92,15.371,64.096z"/>
								</g>
							</g>
						</g>
					</g>
				</g>
			</g>
			<g>
				<g>
					<g>
						<g>
							<g>
								<g>
									<circle fill="#E84849" cx="67.571" cy="63.344" r="4.669"/>
								</g>
							</g>
						</g>
					</g>
				</g>
				<g>
					<g>
						<g>
							<g>
								<g>
									<path fill="#FFFFFF" d="M63.848,64.096c-0.822-0.818-0.107-2.863,0.713-3.684c0.822-0.822,2.867-1.537,3.686-0.717
										C69.068,60.518,64.666,64.92,63.848,64.096z"/>
								</g>
							</g>
						</g>
					</g>
				</g>
			</g>
			<g>
				<g>
					<g>
						<g>
							<g>
								<g>
									<circle fill="#E84849" cx="77.204" cy="63.344" r="4.671"/>
								</g>
							</g>
						</g>
					</g>
				</g>
				<g>
					<g>
						<g>
							<g>
								<g>
									<path fill="#FFFFFF" d="M73.48,64.096c-0.822-0.818-0.107-2.863,0.713-3.684c0.82-0.822,2.865-1.537,3.688-0.717
										C78.703,60.518,74.301,64.92,73.48,64.096z"/>
								</g>
							</g>
						</g>
					</g>
				</g>
			</g>
			<g>
				<g>
					<g>
						<g>
							<g>
								<g>
									<circle fill="#E84849" cx="87.035" cy="63.344" r="4.67"/>
								</g>
							</g>
						</g>
					</g>
				</g>
				<g>
					<g>
						<g>
							<g>
								<g>
									<path fill="#FFFFFF" d="M83.311,64.096c-0.82-0.818-0.107-2.863,0.713-3.684c0.822-0.822,2.869-1.537,3.686-0.717
										C88.531,60.518,84.133,64.92,83.311,64.096z"/>
								</g>
							</g>
						</g>
					</g>
				</g>
			</g>
		</g>
		<g>
			<g>
				<g>
					<g>
						<g>
							<g>
								<g>
									<path fill="#E84849" d="M23.365,77.545c0-2.578,2.092-4.668,4.672-4.668c2.576,0,4.668,2.09,4.668,4.668
										c0,2.58-2.092,4.668-4.668,4.668C25.457,82.213,23.365,80.125,23.365,77.545z"/>
								</g>
							</g>
						</g>
					</g>
				</g>
				<g>
					<g>
						<g>
							<g>
								<g>
									<path fill="#FFFFFF" d="M24.311,78.299c-0.82-0.82-0.107-2.865,0.713-3.686c0.822-0.82,2.867-1.537,3.689-0.717
										C29.531,74.719,25.133,79.119,24.311,78.299z"/>
								</g>
							</g>
						</g>
					</g>
				</g>
			</g>
			<g>
				<g>
					<g>
						<g>
							<g>
								<g>
									<circle fill="#E84849" cx="17.853" cy="77.545" r="4.671"/>
								</g>
							</g>
						</g>
					</g>
				</g>
				<g>
					<g>
						<g>
							<g>
								<g>
									<path fill="#FFFFFF" d="M14.127,78.299c-0.82-0.82-0.107-2.865,0.715-3.686s2.865-1.537,3.688-0.717
										C19.35,74.719,14.949,79.119,14.127,78.299z"/>
								</g>
							</g>
						</g>
					</g>
				</g>
			</g>
			<g>
				<g>
					<g>
						<g>
							<g>
								<g>
									<circle fill="#E84849" cx="67.571" cy="77.545" r="4.669"/>
								</g>
							</g>
						</g>
					</g>
				</g>
				<g>
					<g>
						<g>
							<g>
								<g>
									<path fill="#FFFFFF" d="M63.848,78.299c-0.822-0.82-0.107-2.865,0.713-3.686c0.822-0.82,2.867-1.537,3.686-0.717
										C69.068,74.719,64.666,79.119,63.848,78.299z"/>
								</g>
							</g>
						</g>
					</g>
				</g>
			</g>
			<g>
				<g>
					<g>
						<g>
							<g>
								<g>
									<circle fill="#E84849" cx="77.204" cy="77.545" r="4.671"/>
								</g>
							</g>
						</g>
					</g>
				</g>
				<g>
					<g>
						<g>
							<g>
								<g>
									<path fill="#FFFFFF" d="M73.48,78.299c-0.822-0.82-0.107-2.865,0.713-3.686s2.865-1.537,3.688-0.717
										C78.703,74.719,74.301,79.119,73.48,78.299z"/>
								</g>
							</g>
						</g>
					</g>
				</g>
			</g>
			<g>
				<g>
					<g>
						<g>
							<g>
								<g>
									<circle fill="#E84849" cx="87.035" cy="77.545" r="4.67"/>
								</g>
							</g>
						</g>
					</g>
				</g>
				<g>
					<g>
						<g>
							<g>
								<g>
									<path fill="#FFFFFF" d="M83.311,78.299c-0.82-0.82-0.107-2.865,0.713-3.686c0.822-0.82,2.869-1.537,3.686-0.717
										C88.531,74.719,84.133,79.119,83.311,78.299z"/>
								</g>
							</g>
						</g>
					</g>
				</g>
			</g>
		</g>
		<g>
			<g>
				<g>
					<g>
						<g>
							<g>
								<g>
									<path fill="#E84849" d="M53.166,91.277c0-2.576,2.09-4.668,4.668-4.668s4.672,2.092,4.672,4.668
										c0,2.582-2.094,4.672-4.672,4.672S53.166,93.859,53.166,91.277z"/>
								</g>
							</g>
						</g>
					</g>
				</g>
				<g>
					<g>
						<g>
							<g>
								<g>
									<path fill="#FFFFFF" d="M54.109,92.033c-0.822-0.82-0.105-2.867,0.711-3.686c0.824-0.82,2.869-1.537,3.689-0.715
										C59.332,88.453,54.932,92.855,54.109,92.033z"/>
								</g>
							</g>
						</g>
					</g>
				</g>
			</g>
			<g>
				<g>
					<g>
						<g>
							<g>
								<g>
									<path fill="#E84849" d="M12.768,91.277c0-2.576,2.09-4.668,4.672-4.668c2.578,0,4.668,2.092,4.668,4.668
										c0,2.582-2.09,4.672-4.668,4.672C14.857,95.949,12.768,93.859,12.768,91.277z"/>
								</g>
							</g>
						</g>
					</g>
				</g>
				<g>
					<g>
						<g>
							<g>
								<g>
									<path fill="#FFFFFF" d="M13.715,92.033c-0.822-0.82-0.107-2.867,0.711-3.686c0.822-0.82,2.867-1.537,3.689-0.715
										C18.936,88.453,14.533,92.855,13.715,92.033z"/>
								</g>
							</g>
						</g>
					</g>
				</g>
			</g>
			<g>
				<g>
					<g>
						<g>
							<g>
								<g>
									<path fill="#E84849" d="M62.902,91.277c0-2.576,2.09-4.668,4.668-4.668c2.58,0,4.67,2.092,4.67,4.668
										c0,2.582-2.09,4.672-4.67,4.672C64.992,95.949,62.902,93.859,62.902,91.277z"/>
								</g>
							</g>
						</g>
					</g>
				</g>
				<g>
					<g>
						<g>
							<g>
								<g>
									<path fill="#FFFFFF" d="M63.848,92.033c-0.822-0.82-0.107-2.867,0.713-3.686c0.822-0.82,2.867-1.537,3.686-0.715
										C69.068,88.453,64.666,92.855,63.848,92.033z"/>
								</g>
							</g>
						</g>
					</g>
				</g>
			</g>
			<g>
				<g>
					<g>
						<g>
							<g>
								<g>
									<path fill="#E84849" d="M72.533,91.277c0-2.576,2.094-4.668,4.672-4.668s4.67,2.092,4.67,4.668
										c0,2.582-2.092,4.672-4.67,4.672S72.533,93.859,72.533,91.277z"/>
								</g>
							</g>
						</g>
					</g>
				</g>
				<g>
					<g>
						<g>
							<g>
								<g>
									<path fill="#FFFFFF" d="M73.48,92.033c-0.822-0.82-0.107-2.867,0.713-3.686c0.82-0.82,2.865-1.537,3.688-0.715
										C78.703,88.453,74.301,92.855,73.48,92.033z"/>
								</g>
							</g>
						</g>
					</g>
				</g>
			</g>
			<g>
				<g>
					<g>
						<g>
							<g>
								<g>
									<path fill="#E84849" d="M82.365,91.277c0-2.576,2.092-4.668,4.67-4.668s4.67,2.092,4.67,4.668
										c0,2.582-2.092,4.672-4.67,4.672S82.365,93.859,82.365,91.277z"/>
								</g>
							</g>
						</g>
					</g>
				</g>
				<g>
					<g>
						<g>
							<g>
								<g>
									<path fill="#FFFFFF" d="M83.311,92.033c-0.82-0.82-0.107-2.867,0.713-3.686c0.822-0.82,2.869-1.537,3.686-0.715
										C88.531,88.453,84.133,92.855,83.311,92.033z"/>
								</g>
							</g>
						</g>
					</g>
				</g>
			</g>
		</g>
		<g>
			<g>
				<g>
					<g>
						<g>
							<g>
								<g>
									<path fill="#E84849" d="M24.197,105.479c0-2.576,2.086-4.668,4.668-4.668c2.578,0,4.668,2.092,4.668,4.668
										c0,2.58-2.09,4.672-4.668,4.672C26.283,110.15,24.197,108.059,24.197,105.479z"/>
								</g>
							</g>
						</g>
					</g>
				</g>
				<g>
					<g>
						<g>
							<g>
								<g>
									<path fill="#FFFFFF" d="M25.139,106.232c-0.822-0.818-0.105-2.865,0.713-3.684c0.822-0.82,2.867-1.537,3.689-0.715
										C30.361,102.652,25.961,107.055,25.139,106.232z"/>
								</g>
							</g>
						</g>
					</g>
				</g>
			</g>
			<g>
				<g>
					<g>
						<g>
							<g>
								<g>
									<path fill="#B58755" d="M97.277,42.354c-2.189,0-3.965,1.777-3.965,3.969v0.467V50.1v11.826v3.313v10.967v3.309v10.525
										v3.309v10.656v3.313v11.588v3.313v4.504c2.75-1.174,5.4-2.535,7.932-4.07V46.322
										C101.244,44.131,99.469,42.354,97.277,42.354z"/>
								</g>
							</g>
						</g>
					</g>
				</g>
				<g>
					<g>
						<g>
							<g>
								<g>
									<path fill="#D5CEA9" d="M12.578,61.926c-0.602-1.881-2.344-3.252-4.424-3.252c-0.869,0-1.672,0.254-2.369,0.666
										c-0.031,0.215-0.055,0.434-0.082,0.648c0.969-0.604,2.453-0.965,3.125-0.293c0.34,0.34-0.217,1.291-1.039,2.23
										c-0.766,0.877-1.76,1.738-2.494,2.096c-0.029,0.406-0.07,0.809-0.092,1.217c-0.027,0.551-0.027,1.107-0.041,1.662
										c0.813,0.684,1.848,1.111,2.992,1.111c1.902,0,3.531-1.141,4.26-2.773c0.258-0.58,0.408-1.219,0.408-1.895
										C12.822,62.846,12.723,62.377,12.578,61.926z"/>
								</g>
							</g>
						</g>
					</g>
				</g>
				<g>
					<g>
						<g>
							<g>
								<g>
									<path fill="#FFFFFF" d="M8.828,59.695c-0.672-0.672-2.156-0.311-3.125,0.293c-0.086,0.645-0.18,1.287-0.246,1.938
										c-0.072,0.693-0.115,1.396-0.162,2.096c0.734-0.357,1.729-1.219,2.494-2.096C8.611,60.986,9.168,60.035,8.828,59.695z"/>
								</g>
							</g>
						</g>
					</g>
				</g>
				<g>
					<g>
						<g>
							<g>
								<g>
									<path fill="#D5CEA9" d="M11.777,76.205c-0.58-1.92-2.342-3.328-4.451-3.328c-0.719,0-1.391,0.176-1.998,0.465
										c0.016,0.193,0.027,0.389,0.045,0.584c0.926-0.424,2.066-0.594,2.629-0.029c0.348,0.35-0.248,1.344-1.109,2.309
										c-0.352,0.395-0.744,0.781-1.139,1.121c0.104,0.732,0.223,1.461,0.35,2.188c0.156,0.883,0.326,1.758,0.518,2.627
										c0.232,0.037,0.463,0.072,0.705,0.072c1.871,0,3.477-1.107,4.221-2.699c0.281-0.6,0.449-1.264,0.449-1.969
										C11.996,77.076,11.906,76.633,11.777,76.205z"/>
								</g>
							</g>
						</g>
					</g>
				</g>
				<g>
					<g>
						<g>
							<g>
								<g>
									<path fill="#FFFFFF" d="M8.002,73.896c-0.563-0.564-1.703-0.395-2.629,0.029c0.064,0.764,0.146,1.523,0.238,2.279
										c0.045,0.375,0.09,0.748,0.143,1.121c0.395-0.34,0.787-0.727,1.139-1.121C7.754,75.24,8.35,74.246,8.002,73.896z"/>
								</g>
							</g>
						</g>
					</g>
				</g>
				<g>
					<g>
						<g>
							<g>
								<g>
									<path fill="#D5CEA9" d="M11.393,90.039c-0.469-1.691-1.85-3.002-3.59-3.34c0.338,1.127,0.699,2.24,1.098,3.34
										c0.404,1.117,0.842,2.221,1.307,3.309c0.115,0.27,0.244,0.533,0.363,0.801c0.193-0.248,0.363-0.516,0.506-0.801
										c0.313-0.625,0.504-1.322,0.504-2.07C11.58,90.846,11.502,90.436,11.393,90.039z"/>
								</g>
							</g>
						</g>
					</g>
				</g>
				<g>
					<g>
						<g>
							<g>
								<g>
									<path fill="#E84849" d="M23.088,104.004c-0.619-1.85-2.346-3.193-4.406-3.193c-1.457,0-2.74,0.682-3.596,1.725
										c0.086,0.137,0.174,0.273,0.262,0.41c0.104-0.15,0.211-0.287,0.322-0.396c0.822-0.82,2.865-1.537,3.688-0.715
										c0.332,0.332-0.195,1.25-0.99,2.17c-0.412,0.479-0.893,0.953-1.369,1.352c0.477,0.664,0.965,1.318,1.465,1.961
										c0.656,0.84,1.33,1.664,2.025,2.471c1.115-0.469,2.008-1.359,2.482-2.471c0.242-0.564,0.377-1.186,0.377-1.838
										C23.348,104.961,23.244,104.471,23.088,104.004z"/>
								</g>
							</g>
						</g>
					</g>
				</g>
				<g>
					<g>
						<g>
							<g>
								<g>
									<path fill="#FFFFFF" d="M19.357,101.834c-0.822-0.822-2.865-0.105-3.688,0.715c-0.111,0.109-0.219,0.246-0.322,0.396
										c0.23,0.354,0.453,0.711,0.689,1.059c0.311,0.459,0.639,0.902,0.961,1.352c0.477-0.398,0.957-0.873,1.369-1.352
										C19.162,103.084,19.689,102.166,19.357,101.834z"/>
								</g>
							</g>
						</g>
					</g>
				</g>
			</g>
			<g>
				<g>
					<g>
						<g>
							<g>
								<g>
									<path fill="#E84849" d="M33.932,105.479c0-2.576,2.09-4.668,4.668-4.668c2.582,0,4.67,2.092,4.67,4.668
										c0,2.58-2.088,4.672-4.67,4.672C36.021,110.15,33.932,108.059,33.932,105.479z"/>
								</g>
							</g>
						</g>
					</g>
				</g>
				<g>
					<g>
						<g>
							<g>
								<g>
									<path fill="#FFFFFF" d="M34.877,106.232c-0.822-0.818-0.105-2.865,0.713-3.684c0.822-0.82,2.865-1.537,3.688-0.715
										C40.098,102.652,35.697,107.055,34.877,106.232z"/>
								</g>
							</g>
						</g>
					</g>
				</g>
			</g>
			<g>
				<g>
					<g>
						<g>
							<g>
								<g>
									<path fill="#E84849" d="M43.564,105.479c0-2.576,2.092-4.668,4.668-4.668c2.582,0,4.67,2.092,4.67,4.668
										c0,2.58-2.088,4.672-4.67,4.672C45.656,110.15,43.564,108.059,43.564,105.479z"/>
								</g>
							</g>
						</g>
					</g>
				</g>
				<g>
					<g>
						<g>
							<g>
								<g>
									<path fill="#FFFFFF" d="M44.51,106.232c-0.822-0.818-0.107-2.865,0.715-3.684c0.82-0.82,2.865-1.537,3.686-0.715
										C49.732,102.652,45.332,107.055,44.51,106.232z"/>
								</g>
							</g>
						</g>
					</g>
				</g>
			</g>
			<g>
				<g>
					<g>
						<g>
							<g>
								<g>
									<circle fill="#E84849" cx="87.035" cy="105.479" r="4.67"/>
								</g>
							</g>
						</g>
					</g>
				</g>
				<g>
					<g>
						<g>
							<g>
								<g>
									<path fill="#FFFFFF" d="M83.311,106.232c-0.82-0.818-0.107-2.865,0.713-3.684c0.822-0.82,2.869-1.537,3.686-0.715
										C88.531,102.652,84.133,107.055,83.311,106.232z"/>
								</g>
							</g>
						</g>
					</g>
				</g>
			</g>
		</g>
		<g>
			<g>
				<g>
					<g>
						<g>
							<g>
								<path fill="#D5CEA9" d="M52.258,120.25c0-2.576,2.09-4.67,4.67-4.67c2.578,0,4.67,2.094,4.67,4.67
									c0,2.58-2.092,4.67-4.67,4.67C54.348,124.92,52.258,122.83,52.258,120.25z"/>
							</g>
						</g>
					</g>
				</g>
			</g>
			<g>
				<g>
					<g>
						<g>
							<g>
								<path fill="#FFFFFF" d="M53.203,121.004c-0.822-0.818-0.107-2.867,0.711-3.686c0.822-0.82,2.869-1.535,3.689-0.713
									C58.426,117.426,54.021,121.826,53.203,121.004z"/>
							</g>
						</g>
					</g>
				</g>
			</g>
		</g>
		<g>
			<g>
				<g>
					<g>
						<g>
							<g>
								<path fill="#D5CEA9" d="M42.455,120.25c0-2.576,2.092-4.67,4.674-4.67c2.574,0,4.666,2.094,4.666,4.67
									c0,2.58-2.092,4.67-4.666,4.67C44.547,124.92,42.455,122.83,42.455,120.25z"/>
							</g>
						</g>
					</g>
				</g>
			</g>
			<g>
				<g>
					<g>
						<g>
							<g>
								<path fill="#FFFFFF" d="M43.402,121.004c-0.822-0.818-0.107-2.867,0.715-3.686c0.822-0.82,2.865-1.535,3.684-0.713
									C48.623,117.426,44.223,121.826,43.402,121.004z"/>
							</g>
						</g>
					</g>
				</g>
			</g>
		</g>
		<g>
			<g>
				<g>
					<g>
						<g>
							<g>
								<path fill="#D5CEA9" d="M62.352,120.25c0-2.576,2.092-4.67,4.67-4.67s4.67,2.094,4.67,4.67c0,2.58-2.092,4.67-4.67,4.67
									S62.352,122.83,62.352,120.25z"/>
							</g>
						</g>
					</g>
				</g>
			</g>
			<g>
				<g>
					<g>
						<g>
							<g>
								<path fill="#FFFFFF" d="M63.297,121.004c-0.82-0.818-0.107-2.867,0.715-3.686c0.822-0.82,2.865-1.535,3.688-0.713
									C68.518,117.426,64.119,121.826,63.297,121.004z"/>
							</g>
						</g>
					</g>
				</g>
			</g>
		</g>
		<g>
			<g>
				<g>
					<g>
						<g>
							<g>
								<path fill="#D5CEA9" d="M72.426,120.25c0-2.576,2.092-4.67,4.668-4.67c2.58,0,4.672,2.094,4.672,4.67
									c0,2.58-2.092,4.67-4.672,4.67C74.518,124.92,72.426,122.83,72.426,120.25z"/>
							</g>
						</g>
					</g>
				</g>
			</g>
			<g>
				<g>
					<g>
						<g>
							<g>
								<path fill="#FFFFFF" d="M73.371,121.004c-0.822-0.818-0.107-2.867,0.715-3.686c0.818-0.82,2.865-1.535,3.684-0.713
									C78.592,117.426,74.193,121.826,73.371,121.004z"/>
							</g>
						</g>
					</g>
				</g>
			</g>
		</g>
		<g>
			<g>
				<g>
					<g>
						<g>
							<g>
								<path fill="#D5CEA9" d="M82.527,120.25c0-2.576,2.092-4.67,4.668-4.67c2.58,0,4.672,2.094,4.672,4.67
									c0,2.58-2.092,4.67-4.672,4.67C84.619,124.92,82.527,122.83,82.527,120.25z"/>
							</g>
						</g>
					</g>
				</g>
			</g>
			<g>
				<g>
					<g>
						<g>
							<g>
								<path fill="#FFFFFF" d="M83.473,121.004c-0.822-0.818-0.107-2.867,0.713-3.686c0.824-0.82,2.867-1.535,3.686-0.713
									C88.693,117.426,84.295,121.826,83.473,121.004z"/>
							</g>
						</g>
					</g>
				</g>
			</g>
		</g>
	</g>
</g>
</svg>
