<?xml version="1.0" encoding="utf-8"?>
<!-- Generator: Adobe Illustrator 16.0.0, SVG Export Plug-In . SVG Version: 6.00 Build 0)  -->
<!DOCTYPE svg PUBLIC "-//W3C//DTD SVG 1.1//EN" "http://www.w3.org/Graphics/SVG/1.1/DTD/svg11.dtd">
<svg version="1.1" id="Layer_1" xmlns="http://www.w3.org/2000/svg" xmlns:xlink="http://www.w3.org/1999/xlink" x="0px" y="0px"
	 width="136.914px" height="136.914px" viewBox="0 0 136.914 136.914" enable-background="new 0 0 136.914 136.914"
	 xml:space="preserve">
<g>
	<g>
		<circle fill="#49A0AE" cx="68.457" cy="68.456" r="63.333"/>
		<g>
			<g>
				<g>
					<path fill="#972627" d="M64.608,34.507c0,0-7.842,4.227,2.271,13.045C66.879,47.552,50.149,39.019,64.608,34.507z"/>
					<g>
						<g>
							<path fill="#E34F50" d="M57.663,36.53c-2.725,4.955,7.975,11.715,7.975,11.715l1.242-0.693
								c-1.205-0.832-8.361-5.977-7.031-9.584c1.318-3.578,5.883-2.721,7.264,0.689c1.219,3.016,2.299,6.572,2.248,7.502l1.09-0.611
								c0,0,0.861-4.225-1.045-8.939C67.497,31.896,60.211,31.888,57.663,36.53z"/>
						</g>
					</g>
				</g>
				<g>
					<path fill="#972627" d="M76.364,35.583c0,0,6.951,4.643-1.895,14.713C74.469,50.296,89.155,40.454,76.364,35.583z"/>
					<g>
						<g>
							<path fill="#E34F50" d="M82.508,37.759c2.441,5.539-6.938,13.301-6.938,13.301l-1.102-0.764
								c1.055-0.953,7.324-6.846,6.123-10.885c-1.193-4.01-5.213-2.979-6.402,0.879c-1.049,3.41-1.973,7.432-1.92,8.475
								l-0.967-0.672c0,0-0.795-4.742,0.848-10.074S80.221,32.571,82.508,37.759z"/>
						</g>
					</g>
				</g>
				<g>
					<path fill="#972627" d="M73.598,29.073c0,0-10.789-0.045-5.133,15.613C68.465,44.687,55.604,25.405,73.598,29.073z"/>
					<g>
						<g>
							<path fill="#E34F50" d="M65.038,27.151c-5.766,3.799,1.703,17.557,1.703,17.557l1.725-0.021
								c-0.801-1.625-5.438-11.508-1.936-14.66c3.475-3.129,7.836,0.525,7.33,5.074c-0.447,4.021-1.359,8.555-1.951,9.541
								l1.514-0.021c0,0,3.363-4.104,4.063-10.393S70.438,23.593,65.038,27.151z"/>
						</g>
					</g>
				</g>
				<g>
					<g>
						<g>
							<g>
								<path fill="#E34F50" d="M91.129,48.786c-3.799,5.766-17.557-1.703-17.557-1.703l0.021-1.725
									c1.625,0.801,11.328,5.27,14.66,1.938c1.109-1.111-1.539-7.27-5.074-7.332c-4.047-0.07-9.264,1.309-13.682,8.559
									l0.021-4.156c0,0,8.244-7.328,14.533-8.027S94.688,43.388,91.129,48.786z"/>
							</g>
						</g>
					</g>
					<path fill="#972627" d="M69.499,48.522c0,0,4.984-9.477,14.801-8.344c0,0-4.273-1.203-6.871-0.662
						c-1.359,0.283-5.607,2.549-7.908,4.85L69.499,48.522z"/>
				</g>
				<g>
					<g>
						<g>
							<g>
								<path fill="#E34F50" d="M50.387,50.599c4.744,5.016,16.992-4.732,16.992-4.732l-0.322-1.695
									c-1.461,1.072-10.238,7.16-14.1,4.459c-1.285-0.9,0.25-7.426,3.721-8.102c3.975-0.775,9.352-0.324,14.963,6.045
									l-0.744-4.088c0,0-9.395-5.781-15.709-5.375S45.942,45.901,50.387,50.599z"/>
							</g>
						</g>
					</g>
					<path fill="#972627" d="M71.641,46.573c0,0-6.557-8.465-16.027-5.641c0,0,4-1.928,6.652-1.848
						c1.387,0.043,5.965,1.535,8.631,3.4L71.641,46.573z"/>
				</g>
			</g>
			<path fill="#DFDFDF" d="M103.075,53.946H34.26c-1.182,0-2.141,0.959-2.141,2.143v38.557c0,1.182,0.959,2.141,2.141,2.141h34.338
				h0.141h34.336c1.184,0,2.141-0.959,2.141-2.141V56.089C105.215,54.907,104.258,53.946,103.075,53.946z"/>
			<path fill="#CDCCCB" d="M103.075,53.946H68.743l0.006,42.84h34.326c1.184,0,2.141-0.959,2.141-2.141V56.089
				C105.215,54.907,104.258,53.946,103.075,53.946z"/>
			<path fill="#B4B4B5" d="M105.42,51.468l-36.678-6.994v-0.029l-0.074,0.014l-0.076-0.014v0.029l-36.678,6.994
				c-1.262,0-2.287,1.023-2.287,2.287v6.752c0,1.262,1.025,2.287,2.287,2.287l36.754-7.01l36.752,7.01
				c1.264,0,2.287-1.023,2.287-2.287v-6.752C107.708,52.491,106.684,51.468,105.42,51.468z"/>
			<path fill="#CECBCB" d="M107.708,59.261c0,1.264,0.076,2.363-0.83,2.287l-38.285-7.023V43.198l36.828,7.023
				c1.264,0,2.287,1.023,2.287,2.287V59.261z"/>
			<path fill="#E9E9EA" d="M29.627,52.509c0-1.264,1.025-2.287,2.287-2.287l36.828-7.023v11.326l-38.436,7.326
				c-0.68,0-0.68-1.328-0.68-2.59V52.509z"/>
			<g>
				<polygon fill="#D32033" points="93.512,97.114 82.637,97.114 82.637,58.433 83.317,57.396 94.268,59.435 93.512,60.472 				"/>
				<polygon fill="#D22027" points="82.637,58.433 83.317,57.396 94.268,59.435 93.512,60.47 				"/>
				<polygon fill="#E03740" points="94.268,48.069 83.317,45.954 83.317,57.396 94.268,59.435 				"/>
			</g>
			<g>
				<polygon fill="#E34F50" points="43.354,97.114 54.227,97.114 54.227,58.491 53.547,57.396 42.598,59.433 43.354,60.528 				"/>
				<polygon fill="#D51F31" points="54.227,58.491 53.547,57.396 42.598,59.433 43.354,60.528 				"/>
				<polygon fill="#E34F50" points="42.598,48.183 53.575,46.087 53.547,57.396 42.598,59.433 				"/>
			</g>
		</g>
	</g>
</g>
</svg>
