<?xml version="1.0" encoding="utf-8"?>
<!-- Generator: Adobe Illustrator 16.0.0, SVG Export Plug-In . SVG Version: 6.00 Build 0)  -->
<!DOCTYPE svg PUBLIC "-//W3C//DTD SVG 1.1//EN" "http://www.w3.org/Graphics/SVG/1.1/DTD/svg11.dtd">
<svg version="1.1" id="Layer_1" xmlns="http://www.w3.org/2000/svg" xmlns:xlink="http://www.w3.org/1999/xlink" x="0px" y="0px"
	 width="136.913px" height="136.914px" viewBox="0 0 136.913 136.914" enable-background="new 0 0 136.913 136.914"
	 xml:space="preserve">
<g>
	<g>
		<g>
			<g>
				<g>
					<circle fill="#344E5D" cx="68.456" cy="68.458" r="63.333"/>
				</g>
			</g>
		</g>
	</g>
	<g>
		<g>
			<path fill="#67B8CB" d="M73.041,62.782h35.516c2.531,0,4.584-6.766,4.584-6.766s-2.053-6.766-4.584-6.766H73.041
				C70.51,49.251,70.51,62.782,73.041,62.782z"/>
			<path fill="#E5E5E5" d="M99.391,54.585H80.164c-1.125,0-2.035,0.625-2.035,1.398c0,0.771,0.91,1.398,2.035,1.398h19.227
				c1.125,0,2.035-0.627,2.035-1.398C101.426,55.21,100.516,54.585,99.391,54.585z"/>
			<path fill="#E5E5E5" d="M107.248,54.585h-2.039c-1.125,0-2.035,0.625-2.035,1.398c0,0.771,0.91,1.398,2.035,1.398h2.039
				c1.125,0,2.035-0.627,2.035-1.398C109.283,55.21,108.373,54.585,107.248,54.585z"/>
		</g>
		<g>
			<path fill="#67B8CB" d="M69.332,34.991H33.816c-2.531,0-4.584,6.766-4.584,6.766s2.053,6.766,4.584,6.766h35.516
				C71.863,48.522,71.863,34.991,69.332,34.991z"/>
			<path fill="#E5E5E5" d="M42.982,43.188h19.227c1.125,0,2.035-0.625,2.035-1.398s-0.91-1.4-2.035-1.4H42.982
				c-1.125,0-2.035,0.627-2.035,1.4S41.857,43.188,42.982,43.188z"/>
			<path fill="#E5E5E5" d="M35.125,43.188h2.039c1.125,0,2.037-0.625,2.037-1.398s-0.912-1.4-2.037-1.4h-2.039
				c-1.125,0-2.035,0.627-2.035,1.4S34,43.188,35.125,43.188z"/>
		</g>
		<g>
			<path fill="#67B8CB" d="M69.332,65.642H33.816c-2.531,0-4.584,6.766-4.584,6.766s2.053,6.766,4.584,6.766h35.516
				C71.863,79.173,71.863,65.642,69.332,65.642z"/>
			<path fill="#E5E5E5" d="M42.982,73.841h19.227c1.125,0,2.035-0.627,2.035-1.4c0-0.771-0.91-1.398-2.035-1.398H42.982
				c-1.125,0-2.035,0.627-2.035,1.398C40.947,73.214,41.857,73.841,42.982,73.841z"/>
			<path fill="#E5E5E5" d="M35.125,73.841h2.039c1.125,0,2.037-0.627,2.037-1.4c0-0.771-0.912-1.398-2.037-1.398h-2.039
				c-1.125,0-2.035,0.627-2.035,1.398C33.09,73.214,34,73.841,35.125,73.841z"/>
		</g>
		<g>
			<g>
				<ellipse fill="#9D5D26" cx="71.159" cy="116.913" rx="15.425" ry="5.426"/>
			</g>
			<g>
				<ellipse fill="#AE722D" cx="71.159" cy="115.894" rx="14.261" ry="4.074"/>
			</g>
			<g>
				<path fill="#AE722D" d="M75.877,114.075c0,4.701-9.168,4.701-9.168,0V27.644c0-4.701,2.053-8.514,4.584-8.514l0,0
					c2.531,0,4.584,3.813,4.584,8.514V114.075z"/>
			</g>
			<g>
				<path fill="#BB813C" d="M75.877,114.075c0,3.482-5.029,4.385-7.637,2.709c-0.914-0.586-1.447-91.111,3.053-97.654l0,0
					c2.531,0,4.584,3.813,4.584,8.514V114.075z"/>
			</g>
		</g>
	</g>
</g>
</svg>
