<?xml version="1.0" encoding="utf-8"?>
<!-- Generator: Adobe Illustrator 16.0.0, SVG Export Plug-In . SVG Version: 6.00 Build 0)  -->
<!DOCTYPE svg PUBLIC "-//W3C//DTD SVG 1.1//EN" "http://www.w3.org/Graphics/SVG/1.1/DTD/svg11.dtd">
<svg version="1.1" id="Layer_1" xmlns="http://www.w3.org/2000/svg" xmlns:xlink="http://www.w3.org/1999/xlink" x="0px" y="0px"
	 width="136.366px" height="135.463px" viewBox="0 0 136.366 135.463" enable-background="new 0 0 136.366 135.463"
	 xml:space="preserve">
<g>
	<g>
		<g>
			<g>
				<g>
					<circle fill="#344E5D" cx="68.183" cy="67.731" r="63.333"/>
				</g>
			</g>
		</g>
	</g>
	<g>
		<g>
			<g>
				<g>
					<path fill="#5AABB9" d="M49.943,49.772c0,1.707-1.385,3.092-3.092,3.092h-8.6c-1.707,0-3.09-1.385-3.09-3.092l0,0
						c0-1.707,1.383-3.09,3.09-3.09h8.6C48.559,46.683,49.943,48.065,49.943,49.772L49.943,49.772z"/>
				</g>
				<g>
					<path fill="#5AABB9" d="M87.031,49.772c0,1.707-1.385,3.092-3.092,3.092h-8.6c-1.707,0-3.092-1.385-3.092-3.092l0,0
						c0-1.707,1.385-3.09,3.092-3.09h8.6C85.646,46.683,87.031,48.065,87.031,49.772L87.031,49.772z"/>
				</g>
				<g>
					<path fill="#67B8CB" d="M116.865,81.888c0,1.639-2.082,3.857-3.721,3.857H20.99c-1.639,0-2.967-1.328-2.967-2.967v-31.52
						c0-1.637,1.328-2.965,2.967-2.965h92.154c1.639,0,2.967,1.328,2.967,2.965c0,0,2.232,13.229,2.232,25.188
						C117.807,81.015,116.865,81.888,116.865,81.888z"/>
				</g>
				<g>
					<path fill="#357180" d="M117.135,81.53c0,1.639-1.318,4.215-2.957,4.215H20.99c-1.639,0-2.967-1.328-2.967-2.967h97.498
						L117.135,81.53z"/>
				</g>
				<g>
					<g>
						<g>
							<circle fill="#202121" cx="51.907" cy="85.497" r="5.292"/>
						</g>
					</g>
					<g>
						<circle fill="#5E5F5E" cx="51.907" cy="85.497" r="2.431"/>
					</g>
				</g>
				<g>
					<g>
						<g>
							<circle fill="#202121" cx="28.211" cy="85.497" r="5.291"/>
						</g>
					</g>
					<g>
						<circle fill="#5E5F5E" cx="28.211" cy="85.497" r="2.432"/>
					</g>
				</g>
				<g>
					<g>
						<circle fill="#202121" cx="85.831" cy="85.497" r="5.29"/>
					</g>
					<g>
						<circle fill="#5E5F5E" cx="85.831" cy="85.497" r="2.431"/>
					</g>
				</g>
				<g>
					<g>
						<path fill="#357180" d="M113.049,85.745H92.35v-25.08c0-1.814,1.369-3.285,3.059-3.285h14.582
							c1.688,0,3.059,1.471,3.059,3.285V85.745z"/>
					</g>
					<g>
						<path fill="#CDEAEA" d="M112.242,84.485H93.156V62.032c0-1.625,1.262-2.943,2.82-2.943h13.445c1.557,0,2.82,1.318,2.82,2.943
							V84.485z"/>
					</g>
					<g>
						<rect x="102.166" y="57.399" fill="#357180" width="0.557" height="28.34"/>
					</g>
				</g>
				<g>
					<path fill="#CDEAEA" d="M68.891,58.896c0-1.006,0.816-1.824,1.824-1.824h13.414c1.008,0,1.824,0.818,1.824,1.824v13.416
						c0,1.008-0.816,1.824-1.824,1.824H70.715c-1.008,0-1.824-0.816-1.824-1.824V58.896z"/>
					<path fill="#357180" d="M84.129,74.405H70.715c-1.154,0-2.094-0.939-2.094-2.094V58.896c0-1.152,0.939-2.092,2.094-2.092
						h13.414c1.154,0,2.094,0.939,2.094,2.092v13.416C86.223,73.466,85.283,74.405,84.129,74.405z M70.715,57.341
						c-0.859,0-1.557,0.697-1.557,1.555v13.416c0,0.857,0.697,1.555,1.557,1.555h13.414c0.857,0,1.555-0.697,1.555-1.555V58.896
						c0-0.857-0.697-1.555-1.555-1.555H70.715z"/>
				</g>
				<g>
					<path fill="#CDEAEA" d="M46.135,58.896c0-1.006,0.818-1.824,1.824-1.824h13.416c1.008,0,1.824,0.818,1.824,1.824v13.416
						c0,1.008-0.816,1.824-1.824,1.824H47.959c-1.006,0-1.824-0.816-1.824-1.824V58.896z"/>
					<path fill="#357180" d="M61.375,74.405H47.959c-1.152,0-2.092-0.939-2.092-2.094V58.896c0-1.152,0.939-2.092,2.092-2.092
						h13.416c1.154,0,2.094,0.939,2.094,2.092v13.416C63.469,73.466,62.529,74.405,61.375,74.405z M47.959,57.341
						c-0.857,0-1.555,0.697-1.555,1.555v13.416c0,0.857,0.697,1.555,1.555,1.555h13.416c0.857,0,1.555-0.697,1.555-1.555V58.896
						c0-0.857-0.697-1.555-1.555-1.555H47.959z"/>
				</g>
				<g>
					<path fill="#CDEAEA" d="M23.381,58.896c0-1.006,0.816-1.824,1.824-1.824h13.416c1.008,0,1.824,0.818,1.824,1.824v13.416
						c0,1.008-0.816,1.824-1.824,1.824H25.205c-1.008,0-1.824-0.816-1.824-1.824V58.896z"/>
					<path fill="#357180" d="M38.621,74.405H25.205c-1.154,0-2.094-0.939-2.094-2.094V58.896c0-1.152,0.939-2.092,2.094-2.092
						h13.416c1.154,0,2.092,0.939,2.092,2.092v13.416C40.713,73.466,39.775,74.405,38.621,74.405z M25.205,57.341
						c-0.857,0-1.555,0.697-1.555,1.555v13.416c0,0.857,0.697,1.555,1.555,1.555h13.416c0.857,0,1.555-0.697,1.555-1.555V58.896
						c0-0.857-0.697-1.555-1.555-1.555H25.205z"/>
				</g>
			</g>
			<g>
				<path fill="#357180" d="M118.273,74.632c0,0.193-1.461,0.154-2.508-1.068c-0.578-0.674-0.359-14.197-0.113-20.096
					c0.066-1.613,0.459-2.209,0.459-2.209S118.273,65.815,118.273,74.632z"/>
			</g>
			<g>
				<path fill="#CDEAEA" d="M118.299,73.198c0,0.18-1.164,0.023-1.904-1.119c-0.738-1.143-0.291-21.365-0.291-21.365
					S118.299,64.956,118.299,73.198z"/>
			</g>
		</g>
	</g>
</g>
</svg>
