<?xml version="1.0" encoding="utf-8"?>
<!-- Generator: Adobe Illustrator 16.0.0, SVG Export Plug-In . SVG Version: 6.00 Build 0)  -->
<!DOCTYPE svg PUBLIC "-//W3C//DTD SVG 1.1//EN" "http://www.w3.org/Graphics/SVG/1.1/DTD/svg11.dtd">
<svg version="1.1" id="Layer_1" xmlns="http://www.w3.org/2000/svg" xmlns:xlink="http://www.w3.org/1999/xlink" x="0px" y="0px"
	 width="136.914px" height="136.914px" viewBox="0 0 136.914 136.914" enable-background="new 0 0 136.914 136.914"
	 xml:space="preserve">
<g>
	<g>
		<g>
			<g>
				<g>
					<path fill="#A0D2DC" d="M127.54,91.265c2.736-7.079,4.25-14.765,4.25-22.809c0-34.979-28.355-63.333-63.332-63.333
						c-34.979,0-63.334,28.354-63.334,63.333c0,7.18,1.213,14.073,3.414,20.508c15.924-8.395,35.842-12.398,57.459-12.398
						C89.504,76.565,111.004,81.297,127.54,91.265z"/>
				</g>
				<g>
					<path fill="#B1C635" d="M68.458,131.79c26.934,0,49.926-16.822,59.082-40.525c-16.535-9.968-38.035-14.699-61.543-14.699
						c-21.617,0-41.535,4.004-57.459,12.398C17.063,113.873,40.661,131.79,68.458,131.79z"/>
				</g>
			</g>
		</g>
	</g>
	<g>
		<g>
			<path fill="#3A2F22" d="M84.221,68.274c-0.832-7.816-7.445-13.908-15.484-13.908s-14.654,6.093-15.484,13.912l10.031,5.797h9.58
				L84.221,68.274z"/>
		</g>
		<g>
			<path fill="#F3F4F5" d="M83.256,67.842C82.475,60.511,76.274,54.8,68.737,54.8s-13.742,5.713-14.52,13.045L43.62,109.812
				c0,2.229,3.264,4.035,7.293,4.035h35.648c4.027,0,7.293-1.807,7.293-4.035L83.256,67.842z"/>
		</g>
		<g>
			<g>
				<path fill="#E9E9EA" d="M83.256,67.842l-10.648-1.433h-8.982l-9.408,1.436L43.62,109.812c0,2.229,3.264,4.035,7.293,4.035
					h35.648c4.027,0,7.293-1.807,7.293-4.035L83.256,67.842z"/>
			</g>
		</g>
		<g>
			<g>
				<path fill="#DFDFDF" d="M63.625,66.409l-9.408,1.436L43.62,109.812c0,2.229,3.264,4.035,7.293,4.035L63.625,66.409z"/>
			</g>
		</g>
		<g>
			<g>
				<path fill="#ECECEC" d="M83.256,67.842l-10.648-1.433l13.953,47.438c4.027,0,7.293-1.807,7.293-4.035L83.256,67.842z"/>
			</g>
		</g>
		<g>
			<g>
				<path fill="#665C51" d="M68.458,131.79c3.014,0,5.975-0.222,8.877-0.629l9.227-17.314H50.913l7.889,17.203
					C61.95,131.532,65.172,131.79,68.458,131.79z"/>
			</g>
			<g>
				<path fill="#5B4F3F" d="M43.795,110.685l-0.176-0.873C43.62,110.111,43.684,110.403,43.795,110.685z"/>
			</g>
			<g>
				<path fill="#5B4F3F" d="M50.913,113.847c-3.486,0-6.395-1.354-7.117-3.162l3.52,17.476c3.686,1.306,7.523,2.282,11.486,2.89
					L50.913,113.847z"/>
			</g>
			<g>
				<path fill="#766959" d="M86.561,113.847l-9.227,17.314c4.451-0.625,8.758-1.706,12.863-3.207l3.48-17.27
					C92.956,112.493,90.045,113.847,86.561,113.847z"/>
			</g>
			<g>
				<path fill="#766959" d="M93.678,110.685c0.111-0.281,0.176-0.573,0.176-0.873L93.678,110.685z"/>
			</g>
		</g>
		<g>
			<path fill="#5B4F3F" d="M84.221,68.274c-0.832-7.816-7.445-13.908-15.484-13.908s-14.654,6.093-15.484,13.912l10.031-1.53
				l9.58-0.001L84.221,68.274z"/>
		</g>
		<g>
			<circle fill="#3A2F22" cx="68.445" cy="61.079" r="2.815"/>
		</g>
		<g>
			<g>
				<g>
					<path fill="#51473A" d="M99.745,90.851c-0.025-0.165-0.1-0.326-0.227-0.453l-0.1-0.098L77.264,68.146l-8.246-8.248
						c-0.318-0.317-0.832-0.317-1.148-0.002l-0.459,0.462c-0.318,0.316-0.318,0.829,0,1.146l7.346,7.347l-3.846,3.845
						c-0.496,0.497-0.496,1.305,0.002,1.802l22.154,22.154c0.498,0.498,1.305,0.498,1.801,0l4.551-4.551
						C99.758,91.763,99.864,91.281,99.745,90.851z M93.641,91.87l-1.262-1.264l1.525-1.525l1.264,1.264L93.641,91.87z
						 M92.036,90.263l-1.264-1.264l1.525-1.525l1.264,1.263L92.036,90.263z M90.428,88.655l-1.436-1.436l1.525-1.525l1.436,1.436
						L90.428,88.655z M88.647,86.875l-1.32-1.319l1.527-1.525l1.318,1.318L88.647,86.875z M86.983,85.211l-1.262-1.263l1.525-1.526
						l1.262,1.263L86.983,85.211z M85.377,83.604l-1.379-1.378l1.525-1.525l1.379,1.378L85.377,83.604z M83.655,81.882l-1.264-1.264
						l1.525-1.525l1.264,1.263L83.655,81.882z M82.047,80.274l-1.379-1.378l1.527-1.525l1.377,1.378L82.047,80.274z M80.325,78.552
						l-1.262-1.262l1.525-1.526l1.262,1.263L80.325,78.552z M78.717,76.944l-1.377-1.377l1.525-1.526l1.377,1.378L78.717,76.944z
						 M76.995,75.223l-1.262-1.263l1.525-1.525l1.264,1.263L76.995,75.223z M75.389,73.615l-1.545-1.544l0.842-0.842
						c0.379-0.377,1.049-0.318,1.498,0.131l0.729,0.729L75.389,73.615z M95.512,90.688l0.691,0.692
						c0.451,0.449,0.508,1.119,0.131,1.497l-0.842,0.843l-1.506-1.506L95.512,90.688z M72.616,73.302l0.883-0.885l1.547,1.543
						l-1.57,1.568l-0.73-0.729C72.295,74.35,72.237,73.68,72.616,73.302z M75.389,74.304l1.262,1.264l-1.568,1.568l-1.264-1.263
						L75.389,74.304z M76.995,75.911l1.379,1.378l-1.57,1.569l-1.377-1.378L76.995,75.911z M78.717,77.634l1.264,1.262l-1.568,1.57
						l-1.264-1.263L78.717,77.634z M80.325,79.241l1.377,1.377l-1.568,1.569l-1.377-1.377L80.325,79.241z M82.047,80.962
						l1.262,1.264l-1.568,1.568l-1.262-1.262L82.047,80.962z M83.655,82.57l1.379,1.378l-1.57,1.568l-1.379-1.377L83.655,82.57z
						 M85.375,84.292l1.264,1.264l-1.57,1.568l-1.262-1.264L85.375,84.292z M86.983,85.899l1.32,1.32l-1.566,1.569l-1.322-1.32
						L86.983,85.899z M88.649,87.564l1.434,1.435l-1.568,1.57l-1.434-1.436L88.649,87.564z M90.428,89.344l1.262,1.263l-1.568,1.568
						l-1.262-1.262L90.428,89.344z M92.036,90.951l1.262,1.263l-1.568,1.568l-1.264-1.262L92.036,90.951z M94.262,94.948
						c-0.379,0.378-1.047,0.32-1.498-0.129l-0.691-0.692l1.568-1.569l1.506,1.506L94.262,94.948z"/>
				</g>
			</g>
			<g>
				<g>
					<path fill="#51473A" d="M37.112,30.938c0.023,0.166,0.098,0.326,0.223,0.453l0.1,0.1l22.154,22.154l8.248,8.248
						c0.316,0.316,0.83,0.316,1.146,0l0.461-0.461c0.318-0.316,0.318-0.83,0-1.146l-7.346-7.348l3.844-3.844
						c0.498-0.498,0.498-1.305,0-1.802L43.788,25.139c-0.498-0.497-1.305-0.497-1.801,0l-4.551,4.552
						C37.096,30.028,36.989,30.509,37.112,30.938z M43.211,29.921l1.262,1.264l-1.523,1.524l-1.264-1.263L43.211,29.921z
						 M44.819,31.528l1.264,1.263l-1.525,1.525l-1.264-1.263L44.819,31.528z M46.426,33.136l1.436,1.435l-1.525,1.526l-1.436-1.436
						L46.426,33.136z M48.208,34.915l1.32,1.32L48,37.761l-1.318-1.32L48.208,34.915z M49.87,36.579l1.264,1.264l-1.525,1.525
						l-1.262-1.264L49.87,36.579z M51.477,38.187l1.379,1.378l-1.525,1.526l-1.379-1.379L51.477,38.187z M53.2,39.908l1.264,1.263
						l-1.525,1.525l-1.266-1.262L53.2,39.908z M54.807,41.516l1.377,1.378l-1.525,1.525l-1.377-1.377L54.807,41.516z M56.53,43.238
						l1.262,1.263l-1.525,1.525l-1.262-1.263L56.53,43.238z M58.137,44.845l1.375,1.379l-1.523,1.525l-1.379-1.378L58.137,44.845z
						 M59.86,46.567l1.262,1.264l-1.527,1.525l-1.262-1.264L59.86,46.567z M61.463,48.175l1.545,1.543l-0.842,0.842
						c-0.377,0.377-1.047,0.32-1.498-0.13L59.942,49.7L61.463,48.175z M41.34,31.103l-0.689-0.692
						c-0.449-0.448-0.508-1.12-0.131-1.497l0.842-0.842l1.506,1.505L41.34,31.103z M64.239,48.488l-0.887,0.886l-1.543-1.544
						l1.57-1.569l0.729,0.73C64.559,47.44,64.616,48.11,64.239,48.488z M61.465,47.485l-1.264-1.262l1.57-1.57l1.264,1.264
						L61.465,47.485z M59.858,45.878l-1.377-1.377l1.57-1.568l1.375,1.377L59.858,45.878z M58.137,44.156l-1.264-1.263l1.568-1.568
						l1.264,1.262L58.137,44.156z M56.53,42.549l-1.377-1.378l1.568-1.568l1.377,1.377L56.53,42.549z M54.807,40.827l-1.262-1.264
						l1.568-1.568l1.262,1.263L54.807,40.827z M53.2,39.22l-1.379-1.377l1.57-1.569l1.379,1.378L53.2,39.22z M51.477,37.497
						l-1.262-1.262l1.568-1.569l1.262,1.263L51.477,37.497z M49.87,35.89l-1.318-1.318l1.568-1.57l1.32,1.32L49.87,35.89z
						 M48.206,34.226l-1.434-1.435l1.568-1.569l1.434,1.436L48.206,34.226z M46.426,32.446l-1.264-1.262l1.57-1.57l1.262,1.264
						L46.426,32.446z M44.819,30.839l-1.262-1.262l1.568-1.57l1.262,1.264L44.819,30.839z M42.592,26.841
						c0.377-0.377,1.049-0.318,1.498,0.131l0.689,0.691l-1.568,1.568l-1.504-1.504L42.592,26.841z"/>
				</g>
			</g>
			<g>
				<g>
					<path fill="#51473A" d="M38.469,92.212c0.168-0.024,0.328-0.099,0.455-0.227l0.1-0.098l22.154-22.154l8.246-8.248
						c0.316-0.316,0.316-0.83,0-1.146l-0.461-0.461c-0.316-0.316-0.828-0.316-1.145,0l-7.348,7.348l-3.844-3.845
						c-0.498-0.497-1.305-0.497-1.801,0L32.67,85.535c-0.498,0.497-0.496,1.304,0,1.802l4.553,4.551
						C37.559,92.226,38.04,92.333,38.469,92.212z M37.452,86.11l1.266-1.264l1.523,1.526l-1.264,1.263L37.452,86.11z M39.059,84.503
						l1.264-1.264l1.525,1.527l-1.262,1.262L39.059,84.503z M40.668,82.896l1.434-1.436l1.525,1.525l-1.434,1.436L40.668,82.896z
						 M42.448,81.116l1.318-1.32l1.527,1.525l-1.32,1.32L42.448,81.116z M44.112,79.451l1.262-1.263l1.525,1.525l-1.262,1.264
						L44.112,79.451z M45.719,77.844l1.377-1.378l1.525,1.526l-1.379,1.378L45.719,77.844z M47.44,76.122l1.264-1.264l1.525,1.526
						l-1.264,1.263L47.44,76.122z M49.049,74.515l1.375-1.377l1.527,1.525l-1.379,1.377L49.049,74.515z M50.77,72.792l1.262-1.262
						l1.525,1.525l-1.262,1.263L50.77,72.792z M52.377,71.185l1.377-1.377l1.527,1.525l-1.379,1.378L52.377,71.185z M54.1,69.464
						l1.262-1.264l1.527,1.526l-1.264,1.263L54.1,69.464z M55.708,67.856l1.543-1.543l0.842,0.842
						c0.377,0.377,0.318,1.048-0.131,1.497l-0.729,0.729L55.708,67.856z M38.633,87.98l-0.689,0.691
						c-0.451,0.449-1.121,0.509-1.498,0.13l-0.842-0.842l1.504-1.506L38.633,87.98z M56.022,65.083l0.883,0.885l-1.543,1.545
						l-1.568-1.569l0.73-0.729C54.973,64.765,55.643,64.706,56.022,65.083z M55.018,67.856l-1.264,1.264l-1.568-1.57l1.264-1.262
						L55.018,67.856z M53.411,69.464l-1.379,1.377l-1.568-1.568l1.379-1.377L53.411,69.464z M51.688,71.187l-1.262,1.262
						l-1.57-1.568l1.264-1.263L51.688,71.187z M50.083,72.793l-1.379,1.378l-1.568-1.568l1.377-1.378L50.083,72.793z M48.36,74.515
						l-1.264,1.264l-1.568-1.568l1.264-1.264L48.36,74.515z M46.752,76.122L45.375,77.5l-1.568-1.569l1.377-1.377L46.752,76.122z
						 M45.03,77.845l-1.264,1.263l-1.568-1.569l1.264-1.262L45.03,77.845z M43.422,79.452l-1.32,1.32l-1.568-1.568l1.32-1.32
						L43.422,79.452z M41.758,81.116l-1.436,1.436l-1.568-1.568l1.436-1.436L41.758,81.116z M39.979,82.896l-1.262,1.264
						l-1.57-1.569l1.262-1.263L39.979,82.896z M38.372,84.503l-1.264,1.264l-1.568-1.57l1.264-1.262L38.372,84.503z M34.374,86.73
						c-0.379-0.378-0.318-1.048,0.131-1.497l0.691-0.691l1.568,1.568l-1.506,1.506L34.374,86.73z"/>
				</g>
			</g>
			<g>
				<g>
					<path fill="#51473A" d="M98.385,29.578c-0.168,0.024-0.328,0.099-0.455,0.226l-0.1,0.099L75.676,52.058l-8.246,8.248
						c-0.318,0.316-0.318,0.83,0,1.146l0.459,0.462c0.318,0.316,0.83,0.316,1.146,0l7.348-7.348l3.844,3.844
						c0.498,0.498,1.305,0.498,1.803,0l22.152-22.154c0.5-0.497,0.498-1.304,0-1.801l-4.551-4.552
						C99.295,29.565,98.813,29.457,98.385,29.578z M99.401,35.679l-1.264,1.264l-1.523-1.525l1.262-1.262L99.401,35.679z
						 M97.793,37.286l-1.262,1.264l-1.525-1.525l1.262-1.263L97.793,37.286z M96.186,38.894l-1.436,1.436l-1.525-1.525l1.436-1.435
						L96.186,38.894z M94.407,40.674l-1.32,1.319l-1.525-1.525l1.322-1.319L94.407,40.674z M92.743,42.338l-1.262,1.263
						l-1.527-1.525l1.264-1.262L92.743,42.338z M91.137,43.945l-1.379,1.378l-1.525-1.525l1.379-1.377L91.137,43.945z
						 M89.413,45.667l-1.262,1.264l-1.525-1.525l1.262-1.264L89.413,45.667z M87.805,47.274l-1.377,1.379l-1.525-1.526l1.379-1.377
						L87.805,47.274z M86.084,48.997l-1.264,1.262l-1.523-1.523l1.262-1.264L86.084,48.997z M84.475,50.604L83.1,51.981
						l-1.527-1.525l1.379-1.377L84.475,50.604z M82.754,52.325l-1.264,1.264l-1.525-1.524l1.266-1.263L82.754,52.325z
						 M81.147,53.933l-1.543,1.543l-0.842-0.84c-0.377-0.378-0.318-1.049,0.131-1.498l0.729-0.729L81.147,53.933z M98.221,33.81
						l0.691-0.691c0.449-0.449,1.119-0.508,1.496-0.13l0.842,0.841l-1.504,1.506L98.221,33.81z M80.833,56.707l-0.885-0.886
						l1.543-1.543l1.57,1.568l-0.73,0.73C81.881,57.026,81.211,57.084,80.833,56.707z M81.836,53.934l1.264-1.263l1.568,1.568
						l-1.264,1.264L81.836,53.934z M83.444,52.327l1.377-1.379l1.57,1.569l-1.379,1.378L83.444,52.327z M85.167,50.604l1.262-1.263
						l1.57,1.568l-1.262,1.263L85.167,50.604z M86.772,48.997l1.379-1.377l1.568,1.568l-1.377,1.377L86.772,48.997z M88.495,47.275
						l1.264-1.263l1.568,1.568l-1.262,1.263L88.495,47.275z M90.102,45.667l1.379-1.377l1.568,1.568l-1.379,1.379L90.102,45.667z
						 M91.825,43.946l1.264-1.264l1.568,1.569l-1.264,1.263L91.825,43.946z M93.432,42.339l1.32-1.32l1.568,1.568L95,43.907
						L93.432,42.339z M95.096,40.675l1.436-1.436l1.568,1.568l-1.436,1.436L95.096,40.675z M96.875,38.895l1.262-1.263l1.57,1.568
						l-1.264,1.264L96.875,38.895z M98.483,37.287l1.264-1.263l1.568,1.568l-1.264,1.264L98.483,37.287z M102.481,35.06
						c0.377,0.378,0.318,1.049-0.131,1.498l-0.691,0.691l-1.568-1.568l1.504-1.506L102.481,35.06z"/>
				</g>
			</g>
			<g>
				<circle fill="#3A2F22" cx="68.445" cy="61.079" r="2.315"/>
			</g>
			<g>
				<circle fill="#423528" cx="68.445" cy="61.079" r="1.462"/>
			</g>
			<g>
				<path fill="#4C3E30" d="M67.584,61.758c-0.426-0.425-0.424-1.113,0-1.538c0.426-0.426,1.113-0.427,1.541-0.001
					C69.549,60.645,68.01,62.184,67.584,61.758z"/>
			</g>
		</g>
		<g>
			<path fill="#665C51" d="M71.256,85.979c0,0.709-0.574,1.283-1.281,1.283h-3.35c-0.709,0-1.283-0.574-1.283-1.283v-5.7
				c0-0.708,0.574-1.282,1.283-1.282h3.35c0.707,0,1.281,0.574,1.281,1.282V85.979z"/>
		</g>
		<g>
			<path fill="#665C51" d="M71.256,103.11c0,0.709-0.574,1.283-1.281,1.283h-3.35c-0.709,0-1.283-0.574-1.283-1.283v-5.701
				c0-0.708,0.574-1.282,1.283-1.282h3.35c0.707,0,1.281,0.574,1.281,1.282V103.11z"/>
		</g>
	</g>
</g>
</svg>
