<?xml version="1.0" encoding="utf-8"?>
<!-- Generator: Adobe Illustrator 16.0.0, SVG Export Plug-In . SVG Version: 6.00 Build 0)  -->
<!DOCTYPE svg PUBLIC "-//W3C//DTD SVG 1.1//EN" "http://www.w3.org/Graphics/SVG/1.1/DTD/svg11.dtd">
<svg version="1.1" id="Layer_1" xmlns="http://www.w3.org/2000/svg" xmlns:xlink="http://www.w3.org/1999/xlink" x="0px" y="0px"
	 width="136.914px" height="136.914px" viewBox="0 0 136.914 136.914" enable-background="new 0 0 136.914 136.914"
	 xml:space="preserve">
<g>
	<g>
		<g>
			<g>
				<circle fill="#F2BE3E" cx="68.457" cy="68.456" r="63.333"/>
			</g>
		</g>
	</g>
	<g>
		<g>
			<g>
				<path fill="#FFFFFF" d="M76.12,80.702V25.165c0-4.23-3.43-7.664-7.662-7.664c-4.234,0-7.664,3.434-7.664,7.664v55.537
					C53.485,83.72,48.34,90.907,48.34,99.298c0,11.107,9.01,20.113,20.117,20.113c11.105,0,20.115-9.006,20.115-20.113
					C88.573,90.907,83.424,83.716,76.12,80.702z"/>
				<path fill="#E84849" d="M73.68,93.647V55.794c0-2.883-2.34-5.223-5.223-5.223s-5.225,2.34-5.225,5.223v37.854
					C58.254,95.704,78.657,95.702,73.68,93.647z"/>
				<circle fill="#E84849" cx="68.471" cy="99.589" r="18.213"/>
				<g>
					<path fill="#F59C9E" d="M63.247,26.925v2.785h6.699v-2.785H63.247z M63.247,39.007h8.699V36.22h-8.699V39.007z M63.247,48.304
						h6.699v-2.791h-6.699V48.304z"/>
					<path fill="#F59C9E" d="M63.247,57.673h8.699v-2.787h-8.699V57.673z M63.247,76.673h8.699v-2.787h-8.699V76.673z M63.247,66.97
						h6.699v-2.791h-6.699V66.97z"/>
				</g>
			</g>
			<path fill="#F59C9E" d="M55.151,101.22c-2.639-2.637,0.258-9.938,2.895-12.574s9.021-5.141,11.656-2.504
				C72.338,88.778,57.788,103.856,55.151,101.22z"/>
		</g>
	</g>
</g>
</svg>
