<?xml version="1.0" encoding="utf-8"?>
<!-- Generator: Adobe Illustrator 16.0.0, SVG Export Plug-In . SVG Version: 6.00 Build 0)  -->
<!DOCTYPE svg PUBLIC "-//W3C//DTD SVG 1.1//EN" "http://www.w3.org/Graphics/SVG/1.1/DTD/svg11.dtd">
<svg version="1.1" id="Layer_1" xmlns="http://www.w3.org/2000/svg" xmlns:xlink="http://www.w3.org/1999/xlink" x="0px" y="0px"
	 width="136.913px" height="136.914px" viewBox="0 0 136.913 136.914" enable-background="new 0 0 136.913 136.914"
	 xml:space="preserve">
<g>
	<g>
		<g>
			<g>
				<circle fill="#65A844" cx="68.457" cy="68.457" r="63.333"/>
			</g>
		</g>
	</g>
	<g>
		<path fill="#E9DEC3" d="M95.499,45.342c-6.525-7.627-16.215-12.469-27.041-12.469c-19.652,0-35.584,15.932-35.584,35.584
			c0,11.139,5.123,21.078,13.135,27.602c6.123,4.988,13.936,7.98,22.449,7.98c19.652,0,35.582-15.93,35.582-35.582
			C104.04,59.629,100.821,51.561,95.499,45.342z"/>
		<g>
			<path fill="#F6EDDC" d="M84.909,85.133c11.174-11.172,14.83-26.77,10.641-39.791c-6.527-7.627-16.215-12.469-27.041-12.469
				c-19.652,0-35.584,15.932-35.584,35.584c0,11.139,5.121,21.078,13.135,27.602C58.883,99.783,74.004,96.037,84.909,85.133z"/>
		</g>
		<g>
			<g>
				<path fill="#8E7D5C" d="M98.165,48.883c-0.316-0.479-0.645-0.945-0.982-1.406c-5.906,2.305-17.76,6.324-28.627,6.324
					c-10.453,0-22.486-3.717-29.023-6.057c-0.334,0.467-0.656,0.941-0.969,1.424c6.549,2.365,19.08,6.301,29.992,6.301
					C79.917,55.469,92.274,51.205,98.165,48.883z"/>
			</g>
			<g>
				<circle fill="#3A3A39" cx="85.547" cy="48.486" r="1.438"/>
				<circle fill="#3A3A39" cx="85.547" cy="55.189" r="1.438"/>
				<g>
					<path fill="#DC3735" d="M85.709,55.861c-0.156,0-0.313-0.043-0.453-0.133c-0.387-0.252-0.498-0.768-0.248-1.154
						c0.273-0.422,0.98-1.713,0.98-2.607c0-0.922-0.746-2.465-1.008-2.934c-0.225-0.402-0.08-0.91,0.322-1.135
						c0.4-0.225,0.91-0.082,1.135,0.32c0.125,0.225,1.221,2.229,1.221,3.748c0,1.547-1.119,3.318-1.248,3.516
						C86.25,55.729,85.983,55.861,85.709,55.861z"/>
				</g>
			</g>
			<g>
				<circle fill="#3A3A39" cx="50.764" cy="48.863" r="1.438"/>
				<circle fill="#3A3A39" cx="50.764" cy="55.566" r="1.438"/>
				<g>
					<path fill="#DC3735" d="M50.926,56.238c-0.156,0-0.313-0.043-0.453-0.133c-0.387-0.252-0.498-0.768-0.248-1.154
						c0.273-0.422,0.979-1.713,0.979-2.607c0-0.922-0.744-2.465-1.006-2.934c-0.225-0.402-0.08-0.91,0.322-1.135
						c0.4-0.225,0.91-0.082,1.135,0.32c0.125,0.225,1.219,2.229,1.219,3.748c0,1.547-1.119,3.318-1.246,3.516
						C51.467,56.105,51.2,56.238,50.926,56.238z"/>
				</g>
			</g>
			<g>
				<circle fill="#3A3A39" cx="93.689" cy="46.371" r="1.438"/>
				<circle fill="#3A3A39" cx="93.689" cy="53.074" r="1.438"/>
				<g>
					<path fill="#DC3735" d="M93.852,53.746c-0.156,0-0.314-0.043-0.453-0.133c-0.387-0.252-0.498-0.768-0.248-1.154
						c0.273-0.422,0.979-1.713,0.979-2.609c0-0.92-0.746-2.463-1.006-2.932c-0.225-0.402-0.082-0.91,0.32-1.137
						c0.402-0.223,0.912-0.08,1.137,0.322c0.125,0.225,1.219,2.229,1.219,3.746c0,1.549-1.119,3.32-1.246,3.518
						C94.393,53.613,94.124,53.746,93.852,53.746z"/>
				</g>
			</g>
			<g>
				<circle fill="#3A3A39" cx="42.65" cy="46.609" r="1.438"/>
				<path fill="#3A3A39" d="M44.088,53.313c0,0.352-0.127,0.672-0.336,0.922c-0.264,0.314-0.66,0.516-1.104,0.516
					c-0.793,0-1.438-0.645-1.438-1.438c0-0.795,0.645-1.438,1.438-1.438C43.444,51.875,44.088,52.518,44.088,53.313z"/>
				<g>
					<path fill="#DC3735" d="M42.813,53.984c-0.156,0-0.314-0.043-0.453-0.133c-0.387-0.252-0.498-0.768-0.248-1.154
						c0.271-0.422,0.979-1.713,0.979-2.609c0-0.92-0.746-2.463-1.006-2.932c-0.227-0.402-0.082-0.91,0.32-1.137
						c0.402-0.223,0.912-0.08,1.137,0.322c0.125,0.225,1.219,2.229,1.219,3.746c0,1.549-1.119,3.32-1.246,3.518
						C43.354,53.852,43.084,53.984,42.813,53.984z"/>
				</g>
			</g>
			<g>
				<circle fill="#3A3A39" cx="67.541" cy="50.922" r="1.438"/>
				<circle fill="#3A3A39" cx="67.541" cy="57.625" r="1.438"/>
				<g>
					<path fill="#DC3735" d="M67.704,58.299c-0.156,0-0.313-0.043-0.453-0.135c-0.387-0.25-0.498-0.768-0.248-1.154
						c0.273-0.422,0.979-1.713,0.979-2.607c0-0.92-0.744-2.465-1.006-2.934c-0.225-0.402-0.082-0.91,0.32-1.135
						s0.912-0.08,1.137,0.322c0.125,0.225,1.219,2.229,1.219,3.746c0,1.547-1.119,3.318-1.246,3.516
						C68.245,58.164,67.977,58.299,67.704,58.299z"/>
				</g>
			</g>
			<g>
				<circle fill="#3A3A39" cx="77.157" cy="50.422" r="1.438"/>
				<circle fill="#3A3A39" cx="77.157" cy="57.125" r="1.438"/>
				<g>
					<path fill="#DC3735" d="M77.321,57.797c-0.156,0-0.314-0.043-0.453-0.133c-0.389-0.252-0.498-0.768-0.248-1.154
						c0.271-0.422,0.979-1.713,0.979-2.609c0-0.92-0.746-2.463-1.006-2.932c-0.227-0.402-0.082-0.912,0.32-1.137
						c0.4-0.223,0.912-0.08,1.137,0.322c0.125,0.225,1.219,2.229,1.219,3.746c0,1.549-1.119,3.32-1.248,3.518
						C77.86,57.664,77.592,57.797,77.321,57.797z"/>
				</g>
			</g>
			<g>
				<circle fill="#3A3A39" cx="58.161" cy="50.422" r="1.438"/>
				<circle fill="#3A3A39" cx="58.161" cy="57.125" r="1.438"/>
				<g>
					<path fill="#DC3735" d="M58.323,57.797c-0.154,0-0.313-0.043-0.453-0.133c-0.387-0.252-0.496-0.768-0.248-1.154
						c0.273-0.422,0.98-1.713,0.98-2.609c0-0.92-0.746-2.463-1.008-2.932c-0.225-0.402-0.08-0.912,0.322-1.137
						c0.402-0.223,0.91-0.08,1.137,0.322c0.125,0.225,1.219,2.229,1.219,3.746c0,1.549-1.121,3.32-1.248,3.518
						C58.866,57.664,58.596,57.797,58.323,57.797z"/>
				</g>
			</g>
		</g>
		<g>
			<g>
				<path fill="#8E7D5C" d="M67.129,81.115c-10.865,0-22.643,3.9-28.803,6.273c0.305,0.482,0.625,0.955,0.951,1.422
					c6.125-2.338,17.443-6.025,27.852-6.025c11.113,0,24.006,4.197,30.186,6.479c0.336-0.465,0.66-0.939,0.975-1.42
					C92.161,85.563,78.727,81.115,67.129,81.115z"/>
			</g>
			<g>
				<circle fill="#3A3A39" cx="50.763" cy="87.848" r="1.438"/>
				<circle fill="#3A3A39" cx="50.763" cy="81.145" r="1.438"/>
				<g>
					<path fill="#DC3735" d="M50.6,80.473c0.156,0,0.313,0.043,0.453,0.135c0.389,0.25,0.498,0.766,0.248,1.154
						c-0.271,0.422-0.979,1.713-0.979,2.607c0,0.92,0.746,2.465,1.006,2.932c0.227,0.402,0.08,0.912-0.32,1.137
						c-0.402,0.225-0.912,0.082-1.137-0.322c-0.125-0.223-1.219-2.227-1.219-3.746c0-1.549,1.119-3.318,1.248-3.516
						C50.059,80.607,50.327,80.473,50.6,80.473z"/>
				</g>
			</g>
			<g>
				<circle fill="#3A3A39" cx="85.875" cy="87.973" r="1.438"/>
				<circle fill="#3A3A39" cx="85.875" cy="81.27" r="1.438"/>
				<g>
					<path fill="#DC3735" d="M85.713,80.598c0.156,0,0.313,0.043,0.453,0.135c0.387,0.25,0.498,0.766,0.248,1.154
						c-0.273,0.422-0.979,1.713-0.979,2.607c0,0.92,0.744,2.465,1.006,2.932c0.225,0.402,0.08,0.912-0.322,1.137
						c-0.4,0.225-0.91,0.082-1.135-0.322c-0.125-0.223-1.219-2.227-1.219-3.746c0-1.549,1.119-3.318,1.246-3.516
						C85.172,80.732,85.44,80.598,85.713,80.598z"/>
				</g>
			</g>
			<g>
				<circle fill="#3A3A39" cx="42.872" cy="90.213" r="1.438"/>
				<circle fill="#3A3A39" cx="42.872" cy="83.512" r="1.438"/>
				<g>
					<path fill="#DC3735" d="M42.709,82.838c0.156,0,0.313,0.045,0.453,0.135c0.387,0.25,0.496,0.768,0.248,1.154
						c-0.273,0.422-0.98,1.713-0.98,2.607c0,0.92,0.746,2.465,1.008,2.932c0.225,0.404,0.08,0.912-0.322,1.137
						c-0.4,0.225-0.91,0.082-1.137-0.322c-0.125-0.223-1.219-2.227-1.219-3.746c0-1.547,1.121-3.318,1.248-3.516
						C42.168,82.973,42.436,82.838,42.709,82.838z"/>
				</g>
			</g>
			<g>
				<circle fill="#3A3A39" cx="94.17" cy="90.367" r="1.438"/>
				<path fill="#3A3A39" d="M92.733,83.664c0-0.352,0.127-0.672,0.334-0.922c0.266-0.314,0.662-0.516,1.104-0.516
					c0.795,0,1.438,0.645,1.438,1.438c0,0.795-0.643,1.438-1.438,1.438S92.733,84.459,92.733,83.664z"/>
				<g>
					<path fill="#DC3735" d="M94.008,82.992c0.156,0,0.313,0.043,0.453,0.133c0.387,0.252,0.496,0.768,0.248,1.154
						c-0.273,0.422-0.98,1.713-0.98,2.609c0,0.92,0.746,2.463,1.008,2.932c0.225,0.402,0.08,0.91-0.322,1.137
						c-0.4,0.223-0.91,0.08-1.137-0.322c-0.125-0.225-1.219-2.229-1.219-3.746c0-1.549,1.121-3.32,1.248-3.518
						C93.467,83.125,93.735,82.992,94.008,82.992z"/>
				</g>
			</g>
			<g>
				<circle fill="#3A3A39" cx="68.145" cy="85.662" r="1.438"/>
				<circle fill="#3A3A39" cx="68.145" cy="78.959" r="1.438"/>
				<g>
					<path fill="#DC3735" d="M67.983,78.287c0.154,0,0.313,0.043,0.453,0.133c0.387,0.25,0.496,0.768,0.248,1.154
						c-0.273,0.422-0.98,1.713-0.98,2.607c0,0.922,0.746,2.465,1.008,2.934c0.225,0.402,0.08,0.912-0.322,1.137
						c-0.4,0.223-0.91,0.08-1.137-0.322c-0.123-0.225-1.219-2.229-1.219-3.748c0-1.547,1.121-3.318,1.248-3.514
						C67.442,78.42,67.709,78.287,67.983,78.287z"/>
				</g>
			</g>
			<g>
				<circle fill="#3A3A39" cx="59.404" cy="85.787" r="1.438"/>
				<circle fill="#3A3A39" cx="59.404" cy="79.086" r="1.438"/>
				<g>
					<path fill="#DC3735" d="M59.241,78.412c0.156,0,0.313,0.045,0.453,0.135c0.387,0.25,0.498,0.768,0.248,1.154
						c-0.273,0.422-0.98,1.713-0.98,2.607c0,0.92,0.746,2.465,1.008,2.932c0.225,0.404,0.08,0.912-0.322,1.137
						c-0.4,0.225-0.91,0.082-1.135-0.32c-0.125-0.225-1.221-2.229-1.221-3.748c0-1.547,1.121-3.318,1.248-3.516
						C58.7,78.547,58.967,78.412,59.241,78.412z"/>
				</g>
			</g>
			<g>
				<circle fill="#3A3A39" cx="77.098" cy="85.883" r="1.438"/>
				<circle fill="#3A3A39" cx="77.098" cy="79.18" r="1.438"/>
				<g>
					<path fill="#DC3735" d="M76.936,78.508c0.154,0,0.313,0.043,0.453,0.133c0.387,0.252,0.496,0.768,0.248,1.154
						c-0.273,0.422-0.98,1.713-0.98,2.609c0,0.92,0.746,2.463,1.008,2.932c0.225,0.402,0.08,0.912-0.322,1.137
						c-0.402,0.223-0.91,0.08-1.137-0.322c-0.125-0.225-1.219-2.229-1.219-3.746c0-1.549,1.121-3.32,1.248-3.518
						C76.393,78.641,76.663,78.508,76.936,78.508z"/>
				</g>
			</g>
		</g>
	</g>
</g>
</svg>
