<?xml version="1.0" encoding="utf-8"?>
<!-- Generator: Adobe Illustrator 16.0.0, SVG Export Plug-In . SVG Version: 6.00 Build 0)  -->
<!DOCTYPE svg PUBLIC "-//W3C//DTD SVG 1.1//EN" "http://www.w3.org/Graphics/SVG/1.1/DTD/svg11.dtd">
<svg version="1.1" id="Layer_1" xmlns="http://www.w3.org/2000/svg" xmlns:xlink="http://www.w3.org/1999/xlink" x="0px" y="0px"
	 width="136.913px" height="136.914px" viewBox="0 0 136.913 136.914" enable-background="new 0 0 136.913 136.914"
	 xml:space="preserve">
<g>
	<g>
		<g>
			<g>
				<g>
					<circle fill="#65A844" cx="68.457" cy="68.457" r="63.333"/>
				</g>
			</g>
		</g>
	</g>
	<g>
		<g>
			<path fill="#D32027" d="M117.905,92.028c0,2.384-3.027,5.607-5.41,5.607H24.604c-2.383,0-4.314-1.931-4.314-4.314V47.489
				c0-2.382,1.932-4.313,4.314-4.313h87.891c2.383,0,4.314,1.931,4.314,4.313c0,0,3.244,19.235,3.244,36.626
				C119.272,90.759,117.905,92.028,117.905,92.028z"/>
			<path fill="#357180" d="M118.296,91.508c0,2.383-1.916,6.128-4.299,6.128H24.604c-2.383,0-4.314-1.931-4.314-4.314h95.66
				L118.296,91.508z"/>
			<circle fill="#202121" cx="37.186" cy="97.276" r="6.651"/>
			<circle fill="#5E5F5E" cx="37.186" cy="97.276" r="3.056"/>
			<path fill="#D7C6CB" d="M37.626,60.61H26.208c-1.701,0-3.082-1.38-3.082-3.08v-8.218c0-1.7,1.381-3.079,3.082-3.079h11.418V60.61
				z"/>
			<rect x="75.347" y="46.233" fill="#D7C6CB" width="13.967" height="14.377"/>
			<rect x="58.21" y="46.233" fill="#D7C6CB" width="13.967" height="14.377"/>
			<rect x="40.954" y="46.233" fill="#D7C6CB" width="13.969" height="14.377"/>
			<path fill="#D7C6CB" d="M37.626,81.46H26.208c-1.701,0-3.082-1.379-3.082-3.08v-4.143c0-1.7,1.381-3.08,3.082-3.08h11.418V81.46z
				"/>
			<path fill="#D7C6CB" d="M75.493,71.157h11.418c1.701,0,3.08,1.38,3.08,3.08v4.143c0,1.701-1.379,3.08-3.08,3.08H75.493V71.157z"
				/>
			<rect x="40.954" y="71.157" fill="#D7C6CB" width="13.969" height="10.303"/>
			<rect x="58.21" y="71.157" fill="#D7C6CB" width="13.967" height="10.303"/>
			<path fill="#D7C6CB" d="M112.999,57.53c0,1.7-1.381,3.08-3.082,3.08H92.509V46.233h17.408c1.701,0,3.082,1.379,3.082,3.079V57.53
				z"/>
			<circle fill="#202121" cx="83.2" cy="97.276" r="6.65"/>
			<circle fill="#5E5F5E" cx="83.2" cy="97.276" r="3.055"/>
			<path fill="#D7C6CB" d="M112.999,97.636h-19.41V74.117c0-1.7,1.283-3.08,2.867-3.08h13.674c1.584,0,2.869,1.38,2.869,3.08V97.636
				z"/>
		</g>
		<rect x="102.794" y="71.056" fill="#D32027" width="0.521" height="26.574"/>
		<path fill="#D7C6CB" d="M119.989,79.393c0,0.261-1.693,0.033-2.768-1.628c-1.076-1.661-0.424-31.068-0.424-31.068
			S119.989,67.405,119.989,79.393z"/>
	</g>
</g>
</svg>
