<?xml version="1.0" encoding="utf-8"?>
<!-- Generator: Adobe Illustrator 16.0.0, SVG Export Plug-In . SVG Version: 6.00 Build 0)  -->
<!DOCTYPE svg PUBLIC "-//W3C//DTD SVG 1.1//EN" "http://www.w3.org/Graphics/SVG/1.1/DTD/svg11.dtd">
<svg version="1.1" id="Layer_1" xmlns="http://www.w3.org/2000/svg" xmlns:xlink="http://www.w3.org/1999/xlink" x="0px" y="0px"
	 width="136.913px" height="136.913px" viewBox="0 0 136.913 136.913" enable-background="new 0 0 136.913 136.913"
	 xml:space="preserve">
<g>
	<g>
		<circle fill="#EB9682" cx="68.456" cy="68.457" r="63.333"/>
		<g>
			<path fill="#CBBD7D" d="M118.215,68.217c0,2.098-1.484,3.797-3.316,3.797H97.707c-1.83,0-3.316-1.699-3.316-3.797l0,0
				c0-2.098,1.486-3.799,3.316-3.799h17.191C116.73,64.418,118.215,66.119,118.215,68.217L118.215,68.217z"/>
			<g>
				<path fill="#C84027" d="M110.818,67.484c0-2.754-15.738-19.805-21.389-19.805H33.943c-5.65,0-8.529,3.225-8.529,8.875v22.17
					c0,5.65,2.879,8.527,8.529,8.527H89.43C95.08,87.252,110.818,70.236,110.818,67.484z M91.135,68.209
					c0-2.199,1.781-3.98,3.98-3.98c2.197,0,3.979,1.781,3.979,3.98c0,2.197-1.781,3.979-3.979,3.979
					C92.916,72.188,91.135,70.406,91.135,68.209z"/>
			</g>
			<g>
				<path fill="#DD5231" d="M110.195,66.721c0-2.197-15.293-19.143-20.809-19.143h-54.49c-5.514,0-8.322,2.809-8.322,8.322v21.641
					c0,5.516,2.809,8.324,8.322,8.324h54.49C94.902,85.865,110.195,68.918,110.195,66.721z M91.051,67.277
					c0-2.146,1.738-3.885,3.883-3.885c2.146,0,3.887,1.738,3.887,3.885c0,2.143-1.74,3.883-3.887,3.883
					C92.789,71.16,91.051,69.42,91.051,67.277z"/>
			</g>
			<g>
				<path fill="none" d="M94.934,71.16c2.146,0,3.887-1.74,3.887-3.883c0-0.613-0.154-1.188-0.408-1.703
					c-2.088-0.076-4.389-0.143-6.844-0.201c-0.32,0.564-0.518,1.209-0.518,1.904C91.051,69.42,92.789,71.16,94.934,71.16z"/>
				<path fill="#CC4028" d="M98.412,65.574c0.254,0.516,0.408,1.09,0.408,1.703c0,2.143-1.74,3.883-3.887,3.883
					c-2.145,0-3.883-1.74-3.883-3.883c0-0.695,0.197-1.34,0.518-1.904c-24.641-0.586-64.994-0.342-64.994-0.342v12.51
					c0,5.516,2.809,8.324,8.322,8.324h54.49c5.516,0,20.809-16.947,20.809-19.145C110.195,66.201,105.533,65.834,98.412,65.574z"/>
			</g>
			<g>
				<path fill="#FFF5F4" d="M45.846,69.531c0,0.803-0.207,1.521-0.619,2.162c-0.414,0.639-1.021,1.139-1.814,1.5
					c-0.799,0.363-1.74,0.543-2.832,0.543c-1.309,0-2.391-0.246-3.242-0.74c-0.6-0.357-1.09-0.832-1.469-1.424
					c-0.375-0.596-0.564-1.172-0.564-1.736c0-0.322,0.113-0.602,0.34-0.834c0.225-0.23,0.516-0.35,0.863-0.35
					c0.285,0,0.523,0.092,0.721,0.271c0.195,0.18,0.361,0.451,0.502,0.807c0.168,0.42,0.35,0.773,0.547,1.059
					c0.195,0.281,0.473,0.518,0.828,0.699c0.355,0.186,0.822,0.275,1.4,0.275c0.797,0,1.445-0.184,1.941-0.555
					c0.498-0.369,0.746-0.832,0.746-1.387c0-0.441-0.133-0.799-0.402-1.072c-0.268-0.277-0.615-0.486-1.039-0.631
					c-0.426-0.145-0.994-0.297-1.705-0.463c-0.955-0.221-1.752-0.484-2.395-0.781c-0.641-0.297-1.15-0.705-1.527-1.221
					s-0.566-1.158-0.566-1.924c0-0.727,0.199-1.379,0.598-1.945c0.398-0.564,0.975-1.002,1.729-1.307s1.639-0.455,2.658-0.455
					c0.814,0,1.52,0.1,2.111,0.305c0.596,0.199,1.086,0.467,1.48,0.801c0.393,0.338,0.68,0.688,0.859,1.057
					c0.182,0.367,0.271,0.725,0.271,1.076c0,0.316-0.113,0.609-0.338,0.863c-0.229,0.256-0.51,0.385-0.848,0.385
					c-0.307,0-0.541-0.078-0.699-0.23c-0.16-0.154-0.334-0.406-0.521-0.756c-0.242-0.502-0.531-0.891-0.869-1.172
					c-0.336-0.279-0.881-0.42-1.629-0.42c-0.693,0-1.252,0.154-1.676,0.457c-0.426,0.305-0.641,0.674-0.641,1.098
					c0,0.266,0.074,0.496,0.219,0.689c0.145,0.191,0.344,0.357,0.596,0.498c0.254,0.137,0.512,0.244,0.77,0.324
					c0.26,0.08,0.689,0.193,1.285,0.346c0.748,0.172,1.424,0.365,2.031,0.578c0.604,0.209,1.121,0.467,1.549,0.77
					c0.424,0.299,0.756,0.68,0.994,1.143S45.846,68.861,45.846,69.531z"/>
				<path fill="#FFF5F4" d="M56.609,72.01l-0.635-1.664h-5.389l-0.635,1.699c-0.246,0.662-0.459,1.111-0.633,1.344
					c-0.176,0.232-0.463,0.348-0.859,0.348c-0.338,0-0.637-0.123-0.896-0.371c-0.258-0.246-0.389-0.527-0.389-0.838
					c0-0.184,0.031-0.369,0.09-0.564c0.061-0.189,0.16-0.459,0.299-0.803l3.393-8.613c0.096-0.248,0.213-0.545,0.348-0.893
					c0.137-0.346,0.281-0.633,0.436-0.861c0.154-0.23,0.355-0.416,0.605-0.559c0.252-0.141,0.561-0.211,0.928-0.211
					c0.375,0,0.686,0.07,0.936,0.211c0.252,0.143,0.453,0.324,0.605,0.549c0.154,0.223,0.283,0.461,0.389,0.717
					c0.105,0.258,0.24,0.602,0.404,1.029l3.465,8.557c0.271,0.652,0.408,1.123,0.408,1.42c0,0.309-0.129,0.588-0.385,0.846
					s-0.566,0.385-0.928,0.385c-0.211,0-0.393-0.037-0.543-0.113c-0.15-0.072-0.277-0.176-0.381-0.307
					c-0.102-0.131-0.213-0.328-0.33-0.598S56.693,72.215,56.609,72.01z M51.289,68.328h3.963l-1.998-5.473L51.289,68.328z"/>
				<path fill="#FFF5F4" d="M64.082,61.65v9.654h5.447c0.432,0,0.766,0.104,0.998,0.316c0.232,0.211,0.35,0.475,0.35,0.795
					c0,0.326-0.117,0.59-0.344,0.791c-0.23,0.203-0.564,0.305-1.004,0.305h-6.486c-0.586,0-1.008-0.131-1.264-0.391
					c-0.256-0.258-0.383-0.678-0.383-1.258V61.65c0-0.543,0.119-0.949,0.365-1.221c0.244-0.27,0.564-0.406,0.963-0.406
					c0.404,0,0.732,0.133,0.98,0.402C63.957,60.693,64.082,61.102,64.082,61.65z"/>
				<path fill="#FFF5F4" d="M81.379,62.322h-6.053v3.256h5.572c0.41,0,0.717,0.09,0.918,0.275c0.203,0.184,0.305,0.426,0.305,0.727
					c0,0.303-0.1,0.549-0.301,0.738c-0.199,0.189-0.508,0.285-0.922,0.285h-5.572v3.771h6.26c0.422,0,0.74,0.1,0.955,0.295
					c0.215,0.197,0.32,0.457,0.32,0.781c0,0.316-0.105,0.568-0.32,0.766c-0.215,0.195-0.533,0.295-0.955,0.295h-7.301
					c-0.584,0-1.004-0.131-1.26-0.391c-0.258-0.258-0.387-0.678-0.387-1.258v-9.967c0-0.387,0.059-0.701,0.174-0.947
					c0.113-0.244,0.293-0.422,0.537-0.533s0.557-0.166,0.936-0.166h7.094c0.428,0,0.744,0.094,0.953,0.285
					c0.209,0.189,0.313,0.438,0.313,0.746c0,0.313-0.104,0.564-0.313,0.756C82.123,62.225,81.807,62.322,81.379,62.322z"/>
			</g>
			<path fill="#DFD48A" d="M118.215,68.996c0,1.84-1.49,3.33-3.328,3.33H97.615c-1.838,0-3.328-1.49-3.328-3.33l0,0
				c0-1.838,1.49-3.33,3.328-3.33h17.271C116.725,65.666,118.215,67.158,118.215,68.996L118.215,68.996z"/>
		</g>
	</g>
</g>
</svg>
