<?xml version="1.0" encoding="utf-8"?>
<!-- Generator: Adobe Illustrator 16.0.0, SVG Export Plug-In . SVG Version: 6.00 Build 0)  -->
<!DOCTYPE svg PUBLIC "-//W3C//DTD SVG 1.1//EN" "http://www.w3.org/Graphics/SVG/1.1/DTD/svg11.dtd">
<svg version="1.1" id="Layer_1" xmlns="http://www.w3.org/2000/svg" xmlns:xlink="http://www.w3.org/1999/xlink" x="0px" y="0px"
	 width="136.914px" height="136.914px" viewBox="0 0 136.914 136.914" enable-background="new 0 0 136.914 136.914"
	 xml:space="preserve">
<g>
	<g>
		<circle fill="#E84849" cx="68.457" cy="68.456" r="63.333"/>
		<g>
			<path fill="#B6C2CB" d="M102,102.412c0,2.252-1.825,4.078-4.076,4.078H38.799c-2.253,0-4.077-1.826-4.077-4.078V31.577
				c0-2.252,1.824-4.078,4.077-4.078h59.125c2.251,0,4.076,1.826,4.076,4.078V102.412z"/>
			<path fill="#667580" d="M100.11,62.334c0,2.125-1.724,3.85-3.849,3.85H40.459c-2.124,0-3.847-1.725-3.847-3.85V34.243
				c0-2.127,1.723-3.848,3.847-3.848h55.802c2.125,0,3.849,1.721,3.849,3.848V62.334z"/>
			<path fill="#D2D2D2" d="M97.946,60.797c0,1.98-1.605,3.588-3.586,3.588H42.363c-1.98,0-3.586-1.607-3.586-3.588V35.641
				c0-1.98,1.605-3.584,3.586-3.584H94.36c1.98,0,3.586,1.604,3.586,3.584V60.797z"/>
			<path fill="#C0C0C0" d="M81.869,43.276l16.077-7.512c0-1.977-1.605-3.586-3.586-3.586H42.363c-1.979,0-3.586,1.609-3.586,3.586
				l16.076,7.51c0,0.838,0,16.119,0,16.959l-16.076,0.564c0,1.98,1.605,3.588,3.586,3.588H94.36c1.98,0,3.586-1.607,3.586-3.588
				l-16.077-0.563C81.869,59.395,81.869,44.114,81.869,43.276z"/>
			<path fill="#A7A8A7" d="M80.081,58.321c0,1.082-0.879,1.961-1.962,1.961H59.023c-1.082,0-1.96-0.879-1.96-1.961V44.567
				c0-1.08,0.878-1.961,1.96-1.961h19.096c1.083,0,1.962,0.881,1.962,1.961V58.321z"/>
			<path fill="#B6B6B7" d="M76.617,56.252c0,0.756-0.614,1.371-1.371,1.371H61.897c-0.757,0-1.371-0.615-1.371-1.371v-9.617
				c0-0.756,0.614-1.371,1.371-1.371h13.349c0.757,0,1.371,0.615,1.371,1.371V56.252z"/>
			<path fill="#9C9C9C" d="M74.316,48.235c0,0.371-0.301,0.67-0.671,0.67h-9.956c-0.37,0-0.67-0.299-0.67-0.67l0,0
				c0-0.371,0.3-0.67,0.67-0.67h9.956C74.015,47.565,74.316,47.864,74.316,48.235L74.316,48.235z"/>
			<path fill="#9C9C9C" d="M74.316,51.108c0,0.369-0.301,0.668-0.671,0.668h-9.956c-0.37,0-0.67-0.299-0.67-0.668l0,0
				c0-0.371,0.3-0.672,0.67-0.672h9.956C74.015,50.436,74.316,50.737,74.316,51.108L74.316,51.108z"/>
			<path fill="#9C9C9C" d="M74.316,54.051c0,0.369-0.301,0.67-0.671,0.67h-9.956c-0.37,0-0.67-0.301-0.67-0.67l0,0
				c0-0.371,0.3-0.672,0.67-0.672h9.956C74.015,53.379,74.316,53.68,74.316,54.051L74.316,54.051z"/>
			<path fill="#667580" d="M104.386,105.421c0,2.412-1.955,4.369-4.366,4.369H36.704c-2.411,0-4.367-1.957-4.367-4.369v-4.174
				c0-2.412,1.956-4.365,4.367-4.365h63.316c2.411,0,4.366,1.953,4.366,4.365V105.421z"/>
			<path fill="#838383" d="M96.733,56.282c0,0.672-0.291,1.215-0.648,1.215h-12.22c-0.357,0-0.647-0.543-0.647-1.215l0,0
				c0-0.67,0.29-1.215,0.647-1.215h12.22C96.442,55.067,96.733,55.612,96.733,56.282L96.733,56.282z"/>
			<path fill="#838383" d="M96.084,49.274h-6.11c-0.358,0-0.647,0.289-0.647,0.648c0,0.355,0.289,0.646,0.647,0.646h6.11
				c0.357,0,0.648-0.291,0.648-0.646C96.733,49.563,96.442,49.274,96.084,49.274z"/>
			<path fill="#838383" d="M96.084,44.77h-6.11c-0.358,0-0.647,0.289-0.647,0.646c0,0.359,0.289,0.648,0.647,0.648h6.11
				c0.357,0,0.648-0.289,0.648-0.648C96.733,45.059,96.442,44.77,96.084,44.77z"/>
			<g>
				<path fill="#E5E5E5" d="M58.012,86.404l-0.724-1.906h-6.17l-0.725,1.949c-0.284,0.758-0.524,1.27-0.725,1.535
					c-0.201,0.268-0.528,0.4-0.984,0.4c-0.386,0-0.728-0.143-1.023-0.424c-0.298-0.283-0.445-0.605-0.445-0.963
					c0-0.209,0.034-0.422,0.103-0.645c0.069-0.219,0.185-0.527,0.343-0.92l3.882-9.854c0.109-0.283,0.243-0.623,0.398-1.02
					c0.154-0.395,0.319-0.727,0.497-0.99c0.175-0.26,0.406-0.473,0.693-0.635c0.285-0.164,0.64-0.244,1.061-0.244
					c0.427,0,0.786,0.08,1.071,0.244c0.286,0.162,0.519,0.369,0.693,0.625c0.178,0.256,0.325,0.529,0.445,0.824
					c0.12,0.293,0.274,0.684,0.461,1.174l3.965,9.794c0.31,0.746,0.466,1.285,0.466,1.623c0,0.354-0.146,0.678-0.44,0.971
					c-0.292,0.291-0.647,0.439-1.061,0.439c-0.241,0-0.449-0.045-0.621-0.131C59,88.166,58.854,88.048,58.738,87.9
					c-0.118-0.146-0.244-0.375-0.379-0.684C58.225,86.91,58.11,86.64,58.012,86.404z M51.925,82.193h4.534l-2.287-6.265
					L51.925,82.193z"/>
				<path fill="#E5E5E5" d="M71.542,75.483h-3.354v11.026c0,0.633-0.142,1.104-0.424,1.41c-0.283,0.309-0.648,0.463-1.098,0.463
					c-0.456,0-0.826-0.156-1.113-0.467c-0.286-0.311-0.429-0.779-0.429-1.406V75.483h-3.354c-0.525,0-0.915-0.117-1.17-0.346
					c-0.255-0.232-0.383-0.537-0.383-0.918c0-0.393,0.133-0.701,0.397-0.932c0.267-0.227,0.65-0.34,1.155-0.34h9.771
					c0.531,0,0.927,0.115,1.185,0.352c0.26,0.234,0.389,0.541,0.389,0.92c0,0.381-0.13,0.686-0.393,0.918
					C72.46,75.366,72.066,75.483,71.542,75.483z"/>
				<path fill="#E5E5E5" d="M80.062,85.835l-2.432-9.668v10.475c0,0.58-0.131,1.016-0.389,1.305
					c-0.261,0.291-0.603,0.436-1.031,0.436c-0.414,0-0.751-0.143-1.014-0.43s-0.394-0.723-0.394-1.311V74.635
					c0-0.662,0.172-1.109,0.518-1.342c0.346-0.23,0.81-0.346,1.397-0.346h0.952c0.574,0,0.989,0.053,1.247,0.154
					c0.258,0.104,0.451,0.291,0.574,0.559c0.125,0.27,0.267,0.707,0.425,1.314l2.205,8.313l2.206-8.313
					c0.158-0.607,0.299-1.045,0.424-1.314c0.123-0.268,0.315-0.455,0.574-0.559C85.583,73,86,72.948,86.573,72.948h0.953
					c0.587,0,1.051,0.115,1.396,0.346c0.346,0.232,0.519,0.68,0.519,1.342v12.007c0,0.58-0.13,1.016-0.389,1.305
					c-0.259,0.291-0.605,0.436-1.041,0.436c-0.406,0-0.741-0.145-1.003-0.436c-0.262-0.289-0.395-0.725-0.395-1.305V76.167
					l-2.433,9.668c-0.159,0.629-0.288,1.088-0.388,1.381s-0.285,0.563-0.555,0.805c-0.269,0.24-0.642,0.361-1.117,0.361
					c-0.358,0-0.662-0.078-0.91-0.234c-0.25-0.154-0.442-0.354-0.58-0.596c-0.139-0.24-0.247-0.508-0.327-0.801
					C80.226,86.457,80.145,86.152,80.062,85.835z"/>
			</g>
		</g>
	</g>
</g>
</svg>
