<?xml version="1.0" encoding="utf-8"?>
<!-- Generator: Adobe Illustrator 16.0.0, SVG Export Plug-In . SVG Version: 6.00 Build 0)  -->
<!DOCTYPE svg PUBLIC "-//W3C//DTD SVG 1.1//EN" "http://www.w3.org/Graphics/SVG/1.1/DTD/svg11.dtd">
<svg version="1.1" id="Layer_1" xmlns="http://www.w3.org/2000/svg" xmlns:xlink="http://www.w3.org/1999/xlink" x="0px" y="0px"
	 width="136.914px" height="136.913px" viewBox="0 0 136.914 136.913" enable-background="new 0 0 136.914 136.913"
	 xml:space="preserve">
<g>
	<g>
		<g>
			<g>
				<g>
					<circle fill="#4ABC96" cx="68.457" cy="68.457" r="63.333"/>
				</g>
			</g>
		</g>
	</g>
	<g>
		<g>
			<path fill="#5E5F5E" d="M34.685,89.834c0,3.794-3.074,6.868-6.867,6.868l0,0c-3.795,0-6.869-3.074-6.869-6.868V74.612
				c0-3.794,3.074-6.868,6.869-6.868l0,0c3.793,0,6.867,3.074,6.867,6.868V89.834z"/>
			<path fill="#5E5F5E" d="M117.106,89.834c0,3.794-3.074,6.868-6.867,6.868l0,0c-3.795,0-6.869-3.074-6.869-6.868V74.612
				c0-3.794,3.074-6.868,6.869-6.868l0,0c3.793,0,6.867,3.074,6.867,6.868V89.834z"/>
			<path fill="#D32027" d="M108.005,52.41c-4.35-11.551-9.1-26.866-16.703-26.866c0,0-13.561-1.113-21.705-1.113
				c-7.676,0-21.725,1.113-21.725,1.113c-8.154,0-12.723,15.402-16.904,26.952c-6.328,2.735-12.246,10.421-10.762,16.361
				s7.979,24.503,17.82,24.503h63.115c9.842,0,17.451-20.048,17.822-24.503S114.44,55.099,108.005,52.41z"/>
			<path fill="#C82127" d="M51.634,29.753c0,0,11.609-0.986,17.949-0.986c6.73,0,17.936,0.986,17.936,0.986
				c6.377,0,13.52,13.736,17.477,23.958C106.888,58.604,101.835,78,94.169,78h-49.17c-7.666,0-12.787-19.407-10.961-24.313
				C37.843,43.464,44.815,29.753,51.634,29.753z"/>
			<path fill="#A81E22" d="M44.999,78c-7.666,0-12.787-19.407-10.961-24.313c0,0,1.873,9.237,4.236,14.058
				C41.37,74.057,44.999,78,44.999,78z"/>
			<path fill="#A81E22" d="M94.06,78c7.664,0,12.785-19.407,10.959-24.313c0,0-1.871,9.237-4.236,14.058
				C97.688,74.057,94.06,78,94.06,78z"/>
			<path fill="#C82127" d="M36.913,74.798c0,2.768-5.771,3.156-8.539,3.156c-2.77,0-5.012-2.245-5.012-5.013
				c0-2.767,2.242-5.012,5.012-5.012C31.142,67.93,36.913,72.031,36.913,74.798z"/>
			<path fill="#FFFFFF" d="M35.614,74.441c0,2.236-4.664,2.553-6.902,2.553s-4.051-1.816-4.051-4.053s1.813-4.051,4.051-4.051
				S35.614,72.205,35.614,74.441z"/>
			<path fill="#A81E22" d="M95.45,85.75c0,2.762-2.238,5.001-5,5.001H48.72c-2.762,0-5-2.239-5-5.001l0,0c0-2.761,2.238-5,5-5h41.73
				C93.212,80.75,95.45,82.989,95.45,85.75L95.45,85.75z"/>
			<path fill="#C82127" d="M102.442,74.798c0,2.768,5.77,3.156,8.539,3.156c2.768,0,5.012-2.245,5.012-5.013
				c0-2.767-2.244-5.012-5.012-5.012C108.212,67.93,102.442,72.031,102.442,74.798z"/>
			<path fill="#FFFFFF" d="M103.446,74.522c0,2.358,4.916,2.688,7.273,2.688c2.359,0,4.27-1.911,4.27-4.27
				c0-2.356-1.91-4.27-4.27-4.27C108.362,68.672,103.446,72.166,103.446,74.522z"/>
			<circle fill="#F9F298" cx="29.61" cy="73.064" r="3.465"/>
			<circle fill="#F9F298" cx="109.806" cy="73.064" r="3.465"/>
		</g>
		<path opacity="0.8" fill="#B1D4D7" d="M49.126,29.167c0,0,13.24-0.909,20.473-0.909c7.676,0,20.453,0.909,20.453,0.909
			c7.273,0,9.305,11.129,13.051,20.576c1.793,4.521-68.904,4.508-67.176-0.026C39.53,40.274,41.354,29.167,49.126,29.167z"/>
		<path fill="#D3E0E1" d="M49.126,29.167c0,0,13.24-0.909,20.473-0.909c3.123,0,7.088,0.15,10.697,0.33L61.53,53.041
			c-14.172-0.302-26.332-1.409-25.604-3.324C39.53,40.274,41.354,29.167,49.126,29.167z"/>
		<g>
			<g>
				<path fill="#8D191C" d="M86.854,84.065H51.819c-0.373,0-0.674-0.301-0.674-0.673c0-0.373,0.301-0.673,0.674-0.673h35.035
					c0.373,0,0.674,0.3,0.674,0.673C87.528,83.765,87.228,84.065,86.854,84.065z"/>
			</g>
			<g>
				<path fill="#8D191C" d="M86.854,86.424H51.819c-0.373,0-0.674-0.301-0.674-0.674c0-0.371,0.301-0.673,0.674-0.673h35.035
					c0.373,0,0.674,0.302,0.674,0.673C87.528,86.123,87.228,86.424,86.854,86.424z"/>
			</g>
			<g>
				<path fill="#8D191C" d="M86.854,88.781H51.819c-0.373,0-0.674-0.3-0.674-0.673c0-0.371,0.301-0.673,0.674-0.673h35.035
					c0.373,0,0.674,0.302,0.674,0.673C87.528,88.481,87.228,88.781,86.854,88.781z"/>
			</g>
		</g>
		<g>
			<g>
				<g>
					<path fill="#F1E7A4" d="M76.423,71.635c-2.781,0.489-4.943,2.779-4.943,2.779v-0.003c-0.01,0.003-0.014,0.01-0.023,0.015
						c-0.775,0.435-1.686,0.284-2.037-0.337c-0.348-0.622-0.002-1.479,0.773-1.914C72.88,70.663,76.423,71.635,76.423,71.635z"/>
				</g>
				<g>
					<path fill="#F1E7A4" d="M75.3,73.012c-2.293,0.172-4.236,1.849-4.236,1.849l0,0c-0.006,0.003-0.01,0.007-0.018,0.009
						c-0.664,0.29-1.391,0.096-1.623-0.438c-0.232-0.533,0.117-1.197,0.781-1.489C72.507,71.937,75.3,73.012,75.3,73.012z"/>
				</g>
				<g>
					<path fill="#F1E7A4" d="M73.911,73.987c-1.715-0.078-3.303,0.992-3.303,0.992l-0.002-0.003
						c-0.004,0.001-0.01,0.003-0.014,0.004c-0.518,0.155-1.039-0.054-1.162-0.471c-0.125-0.415,0.195-0.876,0.713-1.033
						C71.938,72.94,73.911,73.987,73.911,73.987z"/>
				</g>
			</g>
			<g>
				<g>
					<path fill="#F1E7A4" d="M62.292,71.635c2.781,0.489,4.943,2.779,4.943,2.779v-0.003c0.008,0.003,0.014,0.01,0.021,0.015
						c0.775,0.435,1.688,0.284,2.037-0.337c0.35-0.622,0.004-1.479-0.771-1.914C65.835,70.663,62.292,71.635,62.292,71.635z"/>
				</g>
				<g>
					<path fill="#F1E7A4" d="M63.413,73.012c2.295,0.172,4.236,1.849,4.236,1.849l0,0c0.006,0.003,0.012,0.007,0.018,0.009
						c0.666,0.29,1.391,0.096,1.625-0.438c0.232-0.533-0.117-1.197-0.781-1.489C66.208,71.937,63.413,73.012,63.413,73.012z"/>
				</g>
				<g>
					<path fill="#F1E7A4" d="M64.804,73.987c1.713-0.078,3.301,0.992,3.301,0.992l0.002-0.003c0.004,0.001,0.01,0.003,0.016,0.004
						c0.518,0.155,1.037-0.054,1.16-0.471c0.127-0.415-0.193-0.876-0.711-1.033C66.776,72.94,64.804,73.987,64.804,73.987z"/>
				</g>
			</g>
			<circle fill="#A69C60" cx="69.199" cy="73.625" r="2.06"/>
			<circle fill="#FAF3D1" cx="69.199" cy="73.625" r="0.976"/>
		</g>
	</g>
</g>
</svg>
