<?xml version="1.0" encoding="utf-8"?>
<!-- Generator: Adobe Illustrator 16.0.0, SVG Export Plug-In . SVG Version: 6.00 Build 0)  -->
<!DOCTYPE svg PUBLIC "-//W3C//DTD SVG 1.1//EN" "http://www.w3.org/Graphics/SVG/1.1/DTD/svg11.dtd">
<svg version="1.1" id="Layer_1" xmlns="http://www.w3.org/2000/svg" xmlns:xlink="http://www.w3.org/1999/xlink" x="0px" y="0px"
	 width="136.914px" height="136.914px" viewBox="0 0 136.914 136.914" enable-background="new 0 0 136.914 136.914"
	 xml:space="preserve">
<g>
	<g>
		<circle fill="#22C48A" cx="68.457" cy="68.456" r="63.333"/>
	</g>
	<g>
		<g>
			<path fill="#81BCB9" d="M47.235,98.284c-1.367,0-2.602-0.551-3.504-1.439c0.904,0.915,2.16,1.484,3.549,1.484h1.072l-0.025-0.045
				H47.235z"/>
		</g>
		<g>
			<polygon fill="#8AC5C4" points="50.892,98.284 48.327,98.284 48.353,98.329 50.931,98.329 			"/>
		</g>
		<g>
			<path fill="#EDC92C" d="M103.745,69.507l-3.756-6.67c-0.234,0.986-0.758,1.912-1.584,2.625l-8.541,7.367L69.585,90.321
				l-2.238,5.407l34.498-19.423c0.723-0.407,1.285-0.979,1.709-1.627C104.54,73.17,104.692,71.187,103.745,69.507z"/>
		</g>
		<g>
			<polygon fill="#94D0D0" points="54.712,98.284 50.892,98.284 50.931,98.329 54.819,98.329 			"/>
		</g>
		<g>
			<path fill="#F37C2A" d="M98.925,58.423L88.79,46.673c-0.664-0.771-1.516-1.285-2.43-1.541c0.654,1.261,0.785,2.78,0.201,4.195
				l-3.412,8.238l-6.32,15.264l-9.086,22.298l29.875-28.875l-0.201,0.063l0.988-0.853c0.826-0.713,1.35-1.639,1.584-2.625
				C100.347,61.331,100.015,59.685,98.925,58.423z"/>
		</g>
		<g>
			<path fill="#ED3351" d="M103.554,74.679c-0.424,0.648-0.986,1.22-1.709,1.627L67.347,95.729l-0.381,0.214
				c-0.871,1.384-2.395,2.311-4.146,2.335l-0.092,0.052H66.2h33.504c2.758,0,4.992-2.234,4.992-4.992V77.821
				C104.696,76.624,104.257,75.538,103.554,74.679z"/>
		</g>
		<g>
			<path fill="#A0D5D9" d="M60.354,98.284l-0.053,0.045h2.426l0.092-0.052c-0.023,0-0.045,0.007-0.07,0.007H60.354z"/>
		</g>
		<g>
			<polygon fill="#A0D5D9" points="54.712,98.284 54.819,98.329 60.302,98.329 60.354,98.284 			"/>
		</g>
		<g>
			<path fill="#357180" d="M86.36,45.132c-0.521-1.01-1.369-1.857-2.502-2.326L69.522,36.87c-1.27-0.526-2.633-0.488-3.813-0.002
				c1.227,0.909,2.033,2.355,2.033,4v17.367v8.004v6.59v19.082v1.382c0,0.976-0.291,1.88-0.777,2.649l0.381-0.214l2.029-4.899
				l0.117-0.077l7.336-17.923l6.32-15.264l3.412-8.238C87.146,47.912,87.015,46.393,86.36,45.132z"/>
		</g>
		<g>
			<path fill="#B3DCE2" d="M42.288,88.312l-0.045-0.054v5.035c0,1.39,0.57,2.646,1.488,3.552c-0.891-0.902-1.443-2.14-1.443-3.508
				V88.312z"/>
		</g>
		<g>
			<path fill="#B3DCE2" d="M42.288,80.952v-0.763l-0.045,0.04v0.772C42.257,80.983,42.274,80.97,42.288,80.952z"/>
		</g>
		<g>
			<polygon fill="#B3DCE2" points="42.288,87.563 42.243,87.481 42.243,88.258 42.288,88.312 			"/>
		</g>
		<g>
			<path fill="#B3DCE2" d="M42.243,81.002v6.479l0.045,0.081v-6.61C42.274,80.97,42.257,80.983,42.243,81.002z"/>
		</g>
		<g>
			<path fill="#B3DCE2" d="M42.802,88.474c-0.031,0.107-0.07,0.213-0.096,0.321l0.797,0.923L42.802,88.474z"/>
		</g>
		<g>
			<path fill="#1FA85B" d="M65.71,36.868c-0.83-0.615-1.848-0.991-2.961-0.991H47.235c-2.758,0-4.992,2.234-4.992,4.991v39.361
				l0.045-0.04v0.763v6.61v0.749v5.025c0,1.368,0.553,2.605,1.443,3.508c0.902,0.889,2.137,1.439,3.504,1.439h1.092h2.564h3.82
				h5.643h2.395c0.025,0,0.047-0.007,0.07-0.007c1.752-0.024,3.275-0.951,4.146-2.335c0.486-0.77,0.777-1.674,0.777-2.649v-1.382
				V72.829v-6.59v-8.004V40.868C67.743,39.224,66.937,37.777,65.71,36.868z"/>
		</g>
	</g>
	<g>
		<circle fill="#81BCB9" cx="61.575" cy="92.541" r="3.166"/>
	</g>
</g>
</svg>
