<?xml version="1.0" encoding="utf-8"?>
<!-- Generator: Adobe Illustrator 16.0.0, SVG Export Plug-In . SVG Version: 6.00 Build 0)  -->
<!DOCTYPE svg PUBLIC "-//W3C//DTD SVG 1.1//EN" "http://www.w3.org/Graphics/SVG/1.1/DTD/svg11.dtd">
<svg version="1.1" id="Layer_1" xmlns="http://www.w3.org/2000/svg" xmlns:xlink="http://www.w3.org/1999/xlink" x="0px" y="0px"
	 width="136.913px" height="136.914px" viewBox="0 0 136.913 136.914" enable-background="new 0 0 136.913 136.914"
	 xml:space="preserve">
<g>
	<g>
		<circle fill="#FFCE00" cx="68.457" cy="68.456" r="63.333"/>
		<g>
			<path fill="#525252" d="M105.22,91.858c0,4.297-1.008,4.215-5.51,4.215H38.972c-4.504,0-8.154-3.484-8.154-7.781V51.767
				c0-4.297,3.65-7.783,8.154-7.783h60.303c4.504,0,5.945,1.541,5.945,5.838V91.858z"/>
			<path fill="#444545" d="M103.634,90.562c0,4.297-1.236,4.215-5.547,4.215H40.208c-4.311,0-7.807-3.484-7.807-7.781v-33.23
				c0-4.297,3.496-7.781,7.807-7.781h58.387c4.313,0,5.039,1.971,5.039,6.268V90.562z"/>
			<g>
				<g>
					<g>
						
							<rect x="47.832" y="46.51" transform="matrix(0.9912 0.1322 -0.1322 0.9912 8.2736 -9.2332)" fill="#63BD6E" width="51.678" height="22.362"/>
						<path fill="#117F4A" d="M97.069,71.06l-49.484-6.598l2.686-20.143l49.484,6.6L97.069,71.06z M99.247,51.382l-48.609-6.48
							l-2.547,19.1l48.611,6.479L99.247,51.382z"/>
						<path fill="#117F4A" d="M82.411,58.856c0.645-4.828-2.748-9.264-7.576-9.91c-4.828-0.643-9.266,2.75-9.906,7.578
							c-0.646,4.828,2.746,9.266,7.576,9.908C77.333,67.077,81.769,63.685,82.411,58.856z"/>
					</g>
				</g>
				<g>
					<path fill="#63BD6E" d="M72.468,64.966l0.193-1.438c-0.586-0.166-1.051-0.391-1.391-0.676
						c-0.342-0.283-0.615-0.699-0.816-1.246c-0.207-0.547-0.281-1.201-0.227-1.959l1.232-0.1c-0.012,0.773,0.078,1.361,0.266,1.764
						c0.264,0.555,0.633,0.891,1.094,1.01l0.613-4.572c-0.477-0.174-0.949-0.471-1.422-0.887c-0.348-0.301-0.592-0.691-0.734-1.17
						c-0.145-0.479-0.178-1.008-0.102-1.584c0.137-1.023,0.545-1.811,1.229-2.361c0.465-0.369,1.1-0.551,1.9-0.543l0.092-0.688
						l0.707,0.096l-0.094,0.686c0.68,0.18,1.199,0.496,1.551,0.953c0.455,0.592,0.678,1.354,0.666,2.281l-1.268,0.049
						c0.006-0.576-0.084-1.029-0.268-1.357c-0.182-0.33-0.463-0.568-0.84-0.719l-0.553,4.146c0.576,0.254,0.955,0.449,1.141,0.584
						c0.346,0.246,0.615,0.525,0.807,0.84c0.195,0.314,0.33,0.672,0.404,1.076c0.076,0.402,0.084,0.828,0.025,1.273
						c-0.137,1.002-0.508,1.799-1.123,2.393c-0.613,0.594-1.342,0.857-2.182,0.789l-0.193,1.453L72.468,64.966z M74.146,52.394
						c-0.475,0.025-0.867,0.203-1.188,0.533c-0.314,0.328-0.506,0.738-0.57,1.229c-0.064,0.488-0.008,0.916,0.176,1.277
						c0.182,0.361,0.531,0.676,1.051,0.945L74.146,52.394z M73.526,62.415c0.473-0.004,0.891-0.195,1.25-0.574
						c0.357-0.377,0.578-0.871,0.66-1.48c0.072-0.523,0.02-0.957-0.152-1.299c-0.17-0.346-0.563-0.686-1.172-1.021L73.526,62.415z"
						/>
				</g>
			</g>
			<g>
				<g>
					<g>
						
							<rect x="42.157" y="41.646" transform="matrix(0.9105 -0.4134 0.4134 0.9105 -15.7563 32.8368)" fill="#63BD6E" width="51.68" height="22.36"/>
						<path fill="#117F4A" d="M94.927,51.759L49.466,72.396l-8.398-18.502l45.459-20.637L94.927,51.759z M86.341,33.919
							L41.687,54.19l7.967,17.547l44.654-20.273L86.341,33.919z"/>
						<circle fill="#117F4A" cx="67.997" cy="52.827" r="8.82"/>
					</g>
				</g>
				<g>
					<path fill="#63BD6E" d="M70.833,59.632l-0.598-1.318c-0.586,0.17-1.1,0.225-1.537,0.164c-0.439-0.061-0.893-0.266-1.355-0.625
						c-0.461-0.355-0.873-0.869-1.229-1.541l0.992-0.74c0.402,0.664,0.789,1.117,1.16,1.357c0.52,0.33,1.008,0.422,1.465,0.275
						l-1.908-4.199c-0.494,0.104-1.053,0.104-1.672,0c-0.455-0.07-0.869-0.273-1.244-0.602c-0.375-0.33-0.686-0.76-0.926-1.289
						c-0.426-0.941-0.496-1.826-0.211-2.656c0.199-0.561,0.641-1.049,1.324-1.467L64.81,46.36l0.648-0.295l0.287,0.631
						c0.668-0.207,1.277-0.211,1.816-0.014c0.701,0.262,1.295,0.789,1.775,1.584l-1.047,0.711c-0.305-0.49-0.619-0.824-0.949-1.008
						c-0.328-0.184-0.693-0.238-1.092-0.164l1.729,3.809c0.623-0.09,1.049-0.125,1.277-0.109c0.422,0.025,0.801,0.119,1.131,0.285
						c0.332,0.16,0.633,0.395,0.912,0.695c0.279,0.303,0.51,0.658,0.695,1.07c0.418,0.92,0.523,1.793,0.318,2.621
						c-0.209,0.83-0.686,1.439-1.434,1.826l0.605,1.334L70.833,59.632z M65.591,48.085c-0.389,0.273-0.627,0.633-0.723,1.078
						c-0.092,0.447-0.037,0.896,0.168,1.346c0.203,0.451,0.479,0.781,0.824,0.992c0.348,0.209,0.813,0.291,1.391,0.244
						L65.591,48.085z M70.382,56.909c0.398-0.252,0.646-0.635,0.752-1.148c0.104-0.51,0.029-1.045-0.227-1.607
						c-0.215-0.48-0.488-0.82-0.814-1.02c-0.328-0.201-0.84-0.283-1.537-0.244L70.382,56.909z"/>
				</g>
			</g>
			<g>
				<path fill="#616161" d="M101.817,95.425c0,4.297-1.701,5.512-5.998,5.512H35.192c-4.297,0-4.375-0.404-4.375-4.701V52.198
					c0,0,0.049-1.055,0.102-1.709c0.113-1.479,1.195-2.938,1.195-2.938s0.648,2.703,2.484,3.457
					c2.877,1.184,5.109,1.082,5.109,1.082h56.111c4.297,0,5.998,0.564,5.998,4.861V95.425z"/>
				<g>
					<g>
						<path fill="#717171" d="M35.952,55.038L35.952,55.038l-4-0.002c-0.553,0-1-0.449-1-1c0-0.553,0.447-1,1-1l0,0l4,0.002
							c0.553,0,1,0.447,1,1S36.505,55.038,35.952,55.038z"/>
					</g>
					<g>
						<path fill="#717171" d="M94.36,99.739h-1.975c-0.551,0-1-0.447-1-1s0.449-1,1-1h1.975c3.334,0,3.885-0.291,4.172-1.361
							c0.143-0.533,0.688-0.854,1.225-0.707c0.533,0.143,0.852,0.689,0.707,1.225C99.704,99.739,97.108,99.739,94.36,99.739z
							 M84.331,99.739h-8.057c-0.553,0-1-0.447-1-1s0.447-1,1-1h8.057c0.551,0,1,0.447,1,1S84.882,99.739,84.331,99.739z
							 M68.218,99.739h-8.057c-0.553,0-1-0.447-1-1s0.447-1,1-1h8.057c0.551,0,1,0.447,1,1S68.769,99.739,68.218,99.739z
							 M52.104,99.739h-8.057c-0.553,0-1-0.447-1-1s0.447-1,1-1h8.057c0.553,0,1,0.447,1,1S52.657,99.739,52.104,99.739z
							 M99.71,89.599c-0.553,0-1-0.447-1-1v-8.057c0-0.553,0.447-1,1-1s1,0.447,1,1v8.057
							C100.71,89.151,100.263,89.599,99.71,89.599z M99.71,73.485c-0.553,0-1-0.447-1-1v-8.057c0-0.551,0.447-1,1-1s1,0.449,1,1
							v8.057C100.71,73.038,100.263,73.485,99.71,73.485z M99.401,57.403c-0.424,0-0.818-0.273-0.953-0.699
							c-0.283-0.898-0.771-1.641-3.871-1.641l-2.23-0.002c-0.553,0-1-0.447-1-1s0.447-1,1-1l0,0l2.23,0.002
							c2.502,0,4.934,0.367,5.779,3.037c0.166,0.527-0.127,1.09-0.652,1.256C99.603,57.388,99.501,57.403,99.401,57.403z
							 M84.29,55.06L84.29,55.06l-8.057-0.004c-0.553,0-1-0.449-1-1c0-0.553,0.449-1,1-1h0.002l8.057,0.004
							c0.551,0,0.998,0.447,0.998,1S84.843,55.06,84.29,55.06z M68.179,55.052h-0.002l-8.057-0.004c-0.551,0-1-0.447-0.998-1
							c0-0.553,0.447-1,1-1l0,0l8.057,0.004c0.553,0,1,0.449,1,1C69.177,54.604,68.729,55.052,68.179,55.052z M52.065,55.044
							L52.065,55.044l-8.057-0.002c-0.553,0-1-0.449-1-1.002c0-0.551,0.447-0.998,1-0.998l0,0l8.057,0.002c0.553,0,1,0.449,1,1.002
							C53.065,54.597,52.618,55.044,52.065,55.044z"/>
					</g>
					<g>
						<path fill="#717171" d="M35.952,99.739h-4c-0.553,0-1-0.447-1-1s0.447-1,1-1h4c0.553,0,1,0.447,1,1
							S36.505,99.739,35.952,99.739z"/>
					</g>
				</g>
				<path fill="#616161" d="M97.976,93.524c0,3.645-1.281,3.92-5.012,3.92H30.925V55.224l62.238,0.027
					c3.734,0,4.813,1.031,4.813,4.674V93.524z"/>
			</g>
			<g>
				<path fill="#727172" d="M105.354,78.188H85.901c-1.258,0-3.605-2.254-3.605-6.803s2.348-6.674,3.605-6.674h19.453
					C106.001,64.712,105.931,78.188,105.354,78.188z"/>
				<path fill="#575656" d="M105.354,79.269H85.901c-1.258,0-3.605-2.252-3.605-6.801s2.348-6.676,3.605-6.676h19.453
					C106.001,65.792,105.931,79.269,105.354,79.269z"/>
				<ellipse fill="#D6CB78" cx="88.417" cy="72.569" rx="2.539" ry="2.971"/>
				<ellipse fill="#ECE17E" cx="88.417" cy="72.569" rx="2.045" ry="2.395"/>
			</g>
		</g>
	</g>
</g>
</svg>
