<?xml version="1.0" encoding="utf-8"?>
<!-- Generator: Adobe Illustrator 16.0.0, SVG Export Plug-In . SVG Version: 6.00 Build 0)  -->
<!DOCTYPE svg PUBLIC "-//W3C//DTD SVG 1.1//EN" "http://www.w3.org/Graphics/SVG/1.1/DTD/svg11.dtd">
<svg version="1.1" id="Layer_1" xmlns="http://www.w3.org/2000/svg" xmlns:xlink="http://www.w3.org/1999/xlink" x="0px" y="0px"
	 width="136.914px" height="136.914px" viewBox="0 0 136.914 136.914" enable-background="new 0 0 136.914 136.914"
	 xml:space="preserve">
<g>
	<circle fill="#4ABC96" cx="68.457" cy="68.457" r="63.333"/>
	<g>
		<path fill="#E1DEDB" d="M110.465,88.576c0,2.49-2.018,4.508-4.508,4.508H31.573c-2.49,0-4.508-2.018-4.508-4.508v-42.07
			c0-2.49,2.018-4.508,4.508-4.508h74.385c2.49,0,4.508,2.018,4.508,4.508V88.576z"/>
		<path fill="#EDEBE7" d="M27.065,68.045V46.506c0-2.49,2.018-4.508,4.508-4.508h74.385c2.49,0,4.508,2.018,4.508,4.508v21.539
			H27.065z"/>
		<g>
			<path fill="#5C5853" d="M35.892,84.738c0,0.297-0.229,0.537-0.511,0.537l0,0c-0.281,0-0.51-0.24-0.51-0.537V51.082
				c0-0.297,0.229-0.539,0.51-0.539l0,0c0.281,0,0.511,0.242,0.511,0.539V84.738z"/>
			<path fill="#5C5853" d="M43.02,84.738c0,0.297-0.229,0.537-0.511,0.537l0,0c-0.281,0-0.509-0.24-0.509-0.537V51.082
				c0-0.297,0.228-0.539,0.509-0.539l0,0c0.282,0,0.511,0.242,0.511,0.539V84.738z"/>
			<path fill="#5C5853" d="M53.967,84.738c0,0.297-0.228,0.537-0.51,0.537l0,0c-0.281,0-0.509-0.24-0.509-0.537V51.082
				c0-0.297,0.228-0.539,0.509-0.539l0,0c0.282,0,0.51,0.242,0.51,0.539V84.738z"/>
			<path fill="#5C5853" d="M64.658,84.738c0,0.297-0.228,0.537-0.508,0.537l0,0c-0.281,0-0.509-0.24-0.509-0.537V51.082
				c0-0.297,0.228-0.539,0.509-0.539l0,0c0.28,0,0.508,0.242,0.508,0.539V84.738z"/>
			<path fill="#5C5853" d="M87.318,84.738c0,0.297-0.228,0.537-0.51,0.537l0,0c-0.281,0-0.509-0.24-0.509-0.537V51.082
				c0-0.297,0.228-0.539,0.509-0.539l0,0c0.282,0,0.51,0.242,0.51,0.539V84.738z"/>
			<path fill="#5C5853" d="M89.195,84.738c0,0.297-0.214,0.537-0.477,0.537l0,0c-0.265,0-0.479-0.24-0.479-0.537V51.082
				c0-0.297,0.214-0.539,0.479-0.539l0,0c0.263,0,0.477,0.242,0.477,0.539V84.738z"/>
			<path fill="#5C5853" d="M102.687,84.738c0,0.297-0.214,0.537-0.477,0.537l0,0c-0.265,0-0.479-0.24-0.479-0.537V51.082
				c0-0.297,0.214-0.539,0.479-0.539l0,0c0.263,0,0.477,0.242,0.477,0.539V84.738z"/>
			<path fill="#5C5853" d="M65.38,50.543c-0.197,0-0.358,0.242-0.358,0.539v33.656c0,0.297,0.161,0.537,0.358,0.537
				c0.199,0,0.358-0.24,0.358-0.537V51.082C65.739,50.785,65.58,50.543,65.38,50.543z"/>
			<path fill="#5C5853" d="M74.546,50.543c-0.198,0-0.359,0.242-0.359,0.539v33.656c0,0.297,0.161,0.537,0.359,0.537
				c0.196,0,0.357-0.24,0.357-0.537V51.082C74.904,50.785,74.743,50.543,74.546,50.543z"/>
			<path fill="#5C5853" d="M96.865,50.543c-0.197,0-0.358,0.242-0.358,0.539v33.656c0,0.297,0.161,0.537,0.358,0.537
				c0.198,0,0.357-0.24,0.357-0.537V51.082C97.222,50.785,97.063,50.543,96.865,50.543z"/>
			<path fill="#5C5853" d="M93.045,50.543c-0.197,0-0.357,0.242-0.357,0.539v33.656c0,0.297,0.16,0.537,0.357,0.537
				s0.358-0.24,0.358-0.537V51.082C93.404,50.785,93.243,50.543,93.045,50.543z"/>
			<path fill="#5C5853" d="M81.334,50.543c-0.198,0-0.357,0.242-0.357,0.539v33.656c0,0.297,0.159,0.537,0.357,0.537
				s0.358-0.24,0.358-0.537V51.082C81.693,50.785,81.533,50.543,81.334,50.543z"/>
			<path fill="#5C5853" d="M68.86,50.543c-0.197,0-0.358,0.242-0.358,0.539v33.656c0,0.297,0.161,0.537,0.358,0.537
				s0.359-0.24,0.359-0.537V51.082C69.219,50.785,69.057,50.543,68.86,50.543z"/>
			<path fill="#5C5853" d="M49.511,50.543c-0.197,0-0.356,0.242-0.356,0.539v33.656c0,0.297,0.159,0.537,0.356,0.537
				c0.199,0,0.358-0.24,0.358-0.537V51.082C49.87,50.785,49.71,50.543,49.511,50.543z"/>
			<path fill="#5C5853" d="M41.11,50.543c-0.196,0-0.357,0.242-0.357,0.539v33.656c0,0.297,0.161,0.537,0.357,0.537
				c0.198,0,0.358-0.24,0.358-0.537V51.082C41.468,50.785,41.308,50.543,41.11,50.543z"/>
			<path fill="#5C5853" d="M60.968,50.543c-0.198,0-0.358,0.242-0.358,0.539v33.656c0,0.297,0.16,0.537,0.358,0.537
				s0.358-0.24,0.358-0.537V51.082C61.327,50.785,61.167,50.543,60.968,50.543z"/>
			<path fill="#5C5853" d="M38.152,84.738c0,0.297-0.272,0.537-0.606,0.537l0,0c-0.334,0-0.604-0.24-0.604-0.537V51.082
				c0-0.297,0.27-0.539,0.604-0.539l0,0c0.334,0,0.606,0.242,0.606,0.539V84.738z"/>
			<path fill="#5C5853" d="M45.595,84.738c0,0.297-0.354,0.537-0.793,0.537l0,0c-0.438,0-0.794-0.24-0.794-0.537V51.082
				c0-0.297,0.355-0.539,0.794-0.539l0,0c0.438,0,0.793,0.242,0.793,0.539V84.738z"/>
			<path fill="#5C5853" d="M58.325,84.738c0,0.297-0.354,0.537-0.793,0.537l0,0c-0.438,0-0.794-0.24-0.794-0.537V51.082
				c0-0.297,0.355-0.539,0.794-0.539l0,0c0.438,0,0.793,0.242,0.793,0.539V84.738z"/>
			<path fill="#5C5853" d="M73.855,84.738c0,0.297-0.355,0.537-0.795,0.537l0,0c-0.438,0-0.794-0.24-0.794-0.537V51.082
				c0-0.297,0.355-0.539,0.794-0.539l0,0c0.439,0,0.795,0.242,0.795,0.539V84.738z"/>
			<path fill="#5C5853" d="M100.727,84.738c0,0.297-0.532,0.537-1.189,0.537l0,0c-0.657,0-1.191-0.24-1.191-0.537V51.082
				c0-0.297,0.534-0.539,1.191-0.539l0,0c0.657,0,1.189,0.242,1.189,0.539V84.738z"/>
			<path fill="#5C5853" d="M80.107,84.738c0,0.297-0.533,0.537-1.191,0.537l0,0c-0.657,0-1.19-0.24-1.19-0.537V51.082
				c0-0.297,0.533-0.539,1.19-0.539l0,0c0.658,0,1.191,0.242,1.191,0.539V84.738z"/>
		</g>
		<g>
			<path fill="#45423F" d="M34.872,84.738c0,0.297,0.229,0.537,0.51,0.537s0.511-0.24,0.511-0.537V68.045h-1.021V84.738z"/>
			<path fill="#45423F" d="M42,84.738c0,0.297,0.228,0.537,0.509,0.537c0.282,0,0.511-0.24,0.511-0.537V68.045H42V84.738z"/>
			<path fill="#45423F" d="M52.949,84.738c0,0.297,0.228,0.537,0.509,0.537c0.282,0,0.51-0.24,0.51-0.537V68.045h-1.019V84.738z"/>
			<path fill="#45423F" d="M63.641,84.738c0,0.297,0.228,0.537,0.509,0.537c0.28,0,0.508-0.24,0.508-0.537V68.045h-1.017V84.738z"/>
			<path fill="#45423F" d="M86.299,84.738c0,0.297,0.228,0.537,0.509,0.537c0.282,0,0.51-0.24,0.51-0.537V68.045h-1.019V84.738z"/>
			<path fill="#45423F" d="M88.24,84.738c0,0.297,0.214,0.537,0.479,0.537c0.263,0,0.477-0.24,0.477-0.537V68.045H88.24V84.738z"/>
			<path fill="#45423F" d="M101.732,84.738c0,0.297,0.214,0.537,0.479,0.537c0.263,0,0.477-0.24,0.477-0.537V68.045h-0.955V84.738z"
				/>
			<path fill="#45423F" d="M65.022,84.738c0,0.297,0.161,0.537,0.358,0.537c0.199,0,0.358-0.24,0.358-0.537V68.045h-0.717V84.738z"
				/>
			<path fill="#45423F" d="M74.187,84.738c0,0.297,0.161,0.537,0.359,0.537c0.196,0,0.357-0.24,0.357-0.537V68.045h-0.717V84.738z"
				/>
			<path fill="#45423F" d="M96.506,84.738c0,0.297,0.161,0.537,0.358,0.537c0.198,0,0.357-0.24,0.357-0.537V68.045h-0.716V84.738z"
				/>
			<path fill="#45423F" d="M92.688,84.738c0,0.297,0.16,0.537,0.357,0.537s0.358-0.24,0.358-0.537V68.045h-0.716V84.738z"/>
			<path fill="#45423F" d="M80.977,84.738c0,0.297,0.159,0.537,0.357,0.537s0.358-0.24,0.358-0.537V68.045h-0.716V84.738z"/>
			<path fill="#45423F" d="M68.501,84.738c0,0.297,0.161,0.537,0.358,0.537s0.359-0.24,0.359-0.537V68.045h-0.718V84.738z"/>
			<path fill="#45423F" d="M49.155,84.738c0,0.297,0.159,0.537,0.356,0.537c0.199,0,0.358-0.24,0.358-0.537V68.045h-0.715V84.738z"
				/>
			<path fill="#45423F" d="M40.752,84.738c0,0.297,0.161,0.537,0.357,0.537c0.198,0,0.358-0.24,0.358-0.537V68.045h-0.716V84.738z"
				/>
			<path fill="#45423F" d="M60.61,84.738c0,0.297,0.16,0.537,0.358,0.537s0.358-0.24,0.358-0.537V68.045H60.61V84.738z"/>
			<path fill="#45423F" d="M36.942,84.738c0,0.297,0.27,0.537,0.604,0.537s0.606-0.24,0.606-0.537V68.045h-1.21V84.738z"/>
			<path fill="#45423F" d="M44.008,84.738c0,0.297,0.355,0.537,0.794,0.537s0.793-0.24,0.793-0.537V68.045h-1.587V84.738z"/>
			<path fill="#45423F" d="M56.738,84.738c0,0.297,0.355,0.537,0.794,0.537s0.793-0.24,0.793-0.537V68.045h-1.587V84.738z"/>
			<path fill="#45423F" d="M72.266,84.738c0,0.297,0.355,0.537,0.794,0.537c0.439,0,0.795-0.24,0.795-0.537V68.045h-1.589V84.738z"
				/>
			<path fill="#45423F" d="M98.346,84.738c0,0.297,0.534,0.537,1.191,0.537s1.189-0.24,1.189-0.537V68.045h-2.381V84.738z"/>
			<path fill="#45423F" d="M77.725,84.738c0,0.297,0.533,0.537,1.19,0.537c0.658,0,1.191-0.24,1.191-0.537V68.045h-2.382V84.738z"/>
		</g>
	</g>
</g>
</svg>
