<?xml version="1.0" encoding="utf-8"?>
<!-- Generator: Adobe Illustrator 16.0.0, SVG Export Plug-In . SVG Version: 6.00 Build 0)  -->
<!DOCTYPE svg PUBLIC "-//W3C//DTD SVG 1.1//EN" "http://www.w3.org/Graphics/SVG/1.1/DTD/svg11.dtd">
<svg version="1.1" id="Layer_1" xmlns="http://www.w3.org/2000/svg" xmlns:xlink="http://www.w3.org/1999/xlink" x="0px" y="0px"
	 width="136.913px" height="136.914px" viewBox="0 0 136.913 136.914" enable-background="new 0 0 136.913 136.914"
	 xml:space="preserve">
<g>
	<g>
		<g>
			<circle fill="#9CBDBF" cx="68.456" cy="68.457" r="63.333"/>
		</g>
	</g>
	<g>
		<path fill-rule="evenodd" clip-rule="evenodd" fill="#626463" d="M71.631,70.05L44.344,97.337l-4.492-3.531l27.766-27.768
			L71.631,70.05z"/>
		<path fill-rule="evenodd" clip-rule="evenodd" fill="#4C4D4D" d="M45.025,97.839c-7.182,8.625-17.24,5.029-19.035-3.947
			c-0.705-3.525,4.668-8.266,6.465-5.029c-1.436,12.213,7.141,4.264,7.141,4.264s2.273,0.4,3.666,1.791
			C44.658,96.312,45.025,97.839,45.025,97.839z"/>
		<g>
			<path fill-rule="evenodd" clip-rule="evenodd" fill="#E84849" d="M97.031,40.024c31.391,31.393,0.016,70.439,0.016,70.439
				c-0.438-11.443-11.268-22.27-22.271-22.27c0,0-2.375-9.432-9.254-16.309c-6.877-6.877-15.441-8.389-15.441-8.389
				c0.566-10.439-9.471-21.477-21.977-21.977C28.104,41.521,65.639,8.634,97.031,40.024z"/>
			<path fill-rule="evenodd" clip-rule="evenodd" fill="#F06668" d="M97.031,40.024c5.996,5.998-17.637,42.326-22.256,48.17
				c0,0-2.375-9.432-9.254-16.309c-6.877-6.877-15.441-8.389-15.441-8.389C55.408,58.366,92.621,35.616,97.031,40.024z"/>
			<path fill-rule="evenodd" clip-rule="evenodd" fill="#4B4A4B" d="M99.199,43.026c-0.912,0.916-2.811,0.498-4.24-0.93
				c-1.428-1.43-1.846-3.328-0.934-4.24c0.914-0.912,2.811-0.496,4.238,0.934C99.695,40.22,100.111,42.116,99.199,43.026z"/>
		</g>
	</g>
</g>
</svg>
