<?xml version="1.0" encoding="utf-8"?>
<!-- Generator: Adobe Illustrator 16.0.0, SVG Export Plug-In . SVG Version: 6.00 Build 0)  -->
<!DOCTYPE svg PUBLIC "-//W3C//DTD SVG 1.1//EN" "http://www.w3.org/Graphics/SVG/1.1/DTD/svg11.dtd">
<svg version="1.1" id="Layer_1" xmlns="http://www.w3.org/2000/svg" xmlns:xlink="http://www.w3.org/1999/xlink" x="0px" y="0px"
	 width="128px" height="128px" viewBox="0 0 128 128" enable-background="new 0 0 128 128" xml:space="preserve">
<g>
	<path fill="none" stroke="#646464" stroke-width="2" stroke-linecap="round" stroke-linejoin="round" stroke-miterlimit="10" d="
		M83,112H1V25.441C1,20.504,4.555,17,9.492,17h108.047c4.938,0,9.461,3.504,9.461,8.441V112H83"/>
	
		<line fill="none" stroke="#646464" stroke-width="2" stroke-linecap="round" stroke-linejoin="round" stroke-miterlimit="10" x1="1" y1="30" x2="121" y2="30"/>
	
		<line fill="none" stroke="#646464" stroke-width="2" stroke-linecap="round" stroke-linejoin="round" stroke-miterlimit="10" x1="8.516" y1="23.465" x2="8.516" y2="23.465"/>
	
		<line fill="none" stroke="#646464" stroke-width="2" stroke-linecap="round" stroke-linejoin="round" stroke-miterlimit="10" x1="13.516" y1="23.465" x2="13.516" y2="23.465"/>
	
		<line fill="none" stroke="#646464" stroke-width="2" stroke-linecap="round" stroke-linejoin="round" stroke-miterlimit="10" x1="18.516" y1="23.465" x2="18.516" y2="23.465"/>
	<path fill="none" stroke="#646464" stroke-width="2" stroke-linecap="round" stroke-linejoin="round" stroke-miterlimit="10" d="
		M101.481,77.943c0-7.594-6.14-13.906-13.731-13.906c-0.439,0-0.865-0.061-1.293-0.018c-2.033-5.051-6.972-8.658-12.752-8.658
		c-2.69,0-5.199,0.758-7.322,2.096c-1.979-5.168-6.98-8.85-12.844-8.85c-7.592,0-13.75,6.154-13.75,13.746
		c0,0.551,0.035,1.092,0.099,1.627c-0.533-0.064-1.075-0.099-1.628-0.099c-7.592,0-13.727,6.468-13.727,14.062
		C24.533,85.436,31,92,38,92h50C96,92,101.481,85.436,101.481,77.943z"/>
	<path fill="none" stroke="#646464" stroke-width="2" stroke-linecap="round" stroke-linejoin="round" stroke-miterlimit="10" d="
		M87.143,70.908c0.193-0.02,0.404-0.029,0.625-0.029c3.723,0,6.75,3.027,6.75,6.75c0,3.639-2.961,6.977-6.598,7.057
		c-0.057,0-0.113,0.314-0.17,0.314H38.277c-0.057,0-0.113-0.314-0.17-0.314c-3.637-0.08-6.598-3.262-6.598-6.902
		c0-3.721,3.029-6.826,6.75-6.826c0.254,0,0.529-0.021,0.82,0.014c0.27,0.029,0.539,0.025,0.809,0.025
		c1.848,0,3.635-0.742,4.955-2.066c1.514-1.516,2.248-3.646,1.996-5.773c-0.033-0.277-0.051-0.549-0.051-0.805
		c0-3.723,3.029-6.753,6.752-6.753 M53.541,55.598c2.777,0,5.312,1.744,6.307,4.344c0.75,1.957,2.338,3.477,4.328,4.137
		c0.721,0.24,1.467,0.359,2.209,0.359c1.307,0,2.604-0.367,3.734-1.08c1.076-0.678,2.318-1.037,3.59-1.037
		c2.77,0,5.229,1.662,6.264,4.234"/>
</g>
</svg>
