<?xml version="1.0" encoding="iso-8859-1"?>
<!-- Generator: Adobe Illustrator 19.0.0, SVG Export Plug-In . SVG Version: 6.00 Build 0)  -->
<svg version="1.1" id="Layer_1" xmlns="http://www.w3.org/2000/svg" xmlns:xlink="http://www.w3.org/1999/xlink" x="0px" y="0px"
	 viewBox="0 0 512 512" style="enable-background:new 0 0 512 512;" xml:space="preserve">
<circle style="fill:#88C5CC;" cx="256" cy="256" r="256"/>
<path style="fill:#F5F5F5;" d="M180,84h176c4.4,0,8,3.6,8,8v328c0,4.4-3.6,8-8,8H108c-4.4,0-8-3.6-8-8V168L180,84z"/>
<path style="fill:#E6E6E6;" d="M172,168c4.4,0,8-3.6,8-8V84l-80,84H172z"/>
<path style="fill:#A26BB0;" d="M412,376c0,8.8-7.2,16-16,16H252c-8.8,0-16-7.2-16-16v-64c0-8.8,7.2-16,16-16h144c8.8,0,16,7.2,16,16
	V376z"/>
<g>
	<path style="fill:#F5F5F5;" d="M301.476,351.368l6.728,2.132c-1.032,3.752-2.752,6.536-5.14,8.356
		c-2.4,1.82-5.444,2.732-9.132,2.732c-4.564,0-8.312-1.56-11.252-4.672c-2.936-3.116-4.408-7.384-4.408-12.784
		c0-5.724,1.476-10.16,4.424-13.324c2.952-3.164,6.836-4.752,11.648-4.752c4.208,0,7.616,1.248,10.248,3.728
		c1.564,1.468,2.736,3.584,3.516,6.328l-6.868,1.64c-0.412-1.776-1.252-3.188-2.548-4.22c-1.288-1.032-2.856-1.548-4.7-1.548
		c-2.552,0-4.612,0.916-6.2,2.744s-2.384,4.788-2.384,8.884c0,4.348,0.78,7.436,2.344,9.28c1.568,1.844,3.592,2.764,6.092,2.764
		c1.844,0,3.428-0.584,4.756-1.756S300.9,353.884,301.476,351.368z"/>
	<path style="fill:#F5F5F5;" d="M312.4,352.82l6.752-0.656c0.412,2.264,1.232,3.928,2.472,4.992s2.916,1.592,5.028,1.592
		c2.24,0,3.916-0.476,5.052-1.416c1.136-0.94,1.704-2.052,1.704-3.316c0-0.812-0.244-1.504-0.72-2.08
		c-0.476-0.572-1.304-1.068-2.496-1.484c-0.808-0.28-2.664-0.78-5.556-1.5c-3.724-0.92-6.328-2.056-7.828-3.4
		c-2.108-1.896-3.164-4.2-3.164-6.916c0-1.752,0.496-3.388,1.488-4.912c0.992-1.528,2.42-2.688,4.288-3.484s4.116-1.196,6.756-1.196
		c4.312,0,7.564,0.944,9.744,2.836s3.32,4.416,3.428,7.576l-6.936,0.3c-0.296-1.76-0.928-3.032-1.912-3.804s-2.44-1.16-4.396-1.16
		c-2.016,0-3.592,0.416-4.74,1.244c-0.736,0.536-1.096,1.248-1.096,2.132c0,0.812,0.344,1.508,1.032,2.084
		c0.876,0.74,3,1.5,6.376,2.296s5.876,1.62,7.488,2.472c1.616,0.852,2.888,2.016,3.796,3.492s1.372,3.3,1.372,5.472
		c0,1.968-0.548,3.812-1.64,5.532s-2.64,2.996-4.64,3.832s-4.492,1.252-7.476,1.252c-4.344,0-7.68-1.008-10.008-3.016
		S312.852,356.664,312.4,352.82z"/>
	<path style="fill:#F5F5F5;" d="M354.936,364l-12.28-34.36h7.524l8.696,25.428l8.416-25.428h7.36L362.344,364H354.936z"/>
</g>
<g>
</g>
<g>
</g>
<g>
</g>
<g>
</g>
<g>
</g>
<g>
</g>
<g>
</g>
<g>
</g>
<g>
</g>
<g>
</g>
<g>
</g>
<g>
</g>
<g>
</g>
<g>
</g>
<g>
</g>
</svg>
