<?xml version="1.0" encoding="utf-8"?>
<!-- Generator: Adobe Illustrator 16.0.0, SVG Export Plug-In . SVG Version: 6.00 Build 0)  -->
<!DOCTYPE svg PUBLIC "-//W3C//DTD SVG 1.1//EN" "http://www.w3.org/Graphics/SVG/1.1/DTD/svg11.dtd">
<svg version="1.1" id="Layer_1" xmlns="http://www.w3.org/2000/svg" xmlns:xlink="http://www.w3.org/1999/xlink" x="0px" y="0px"
	 width="136.913px" height="136.914px" viewBox="0 0 136.913 136.914" enable-background="new 0 0 136.913 136.914"
	 xml:space="preserve">
<g>
	<g>
		<g>
			<circle fill="#49A0AE" cx="68.456" cy="68.458" r="63.333"/>
		</g>
	</g>
	<g>
		<g>
			<g>
				<g>
					<g>
						<path fill="#D9E3E4" d="M71.695,51.661H37.406l-0.195,15.164c0,0-0.34,0,10.303,0c1.547,0.064,5.973,0.307,7.408,1.072
							c2.979,1.588,5.369,2.049,7.953,2.154v0.029c0.238,0,0.469-0.006,0.701-0.01c0.234,0.004,0.465,0.01,0.701,0.01v-0.029
							c2.586-0.105,4.975-0.566,7.953-2.154c0.947-0.504,3.186-0.779,5.051-0.93c12.674,0.732,11.92,0.502,11.92,11.012
							c0,0,2.951,1.15,7.504,1.15c4.555,0,7.516-1.15,7.516-1.15C104.164,56.311,101.469,51.661,71.695,51.661z"/>
					</g>
					<g>
						<path fill="#A2D4DE" d="M106.289,80.18c0,1.748-1.213,3.162-2.709,3.162H89.701c-1.496,0-2.709-1.414-2.709-3.162l0,0
							c0-1.746,1.213-3.162,2.709-3.162h13.879C105.076,77.018,106.289,78.434,106.289,80.18L106.289,80.18z"/>
					</g>
					<g>
						<circle fill="#D9E3E4" cx="64.021" cy="57.895" r="14.094"/>
					</g>
					<g>
						<path fill="#D9E3E4" d="M70.568,51.999c0,3.613-2.928,6.543-6.541,6.543l0,0c-3.615,0-6.543-2.93-6.543-6.543v-9.572
							c0-3.613,2.928-6.543,6.543-6.543l0,0c3.613,0,6.541,2.93,6.541,6.543V51.999z"/>
					</g>
					<g>
						<path fill="#8EC0C8" d="M66.158,37.776c0,0-0.066,0.789-1.93,0.789s-2.574-0.789-2.574-0.789v-8.055h4.504V37.776z"/>
					</g>
					<g>
						<path fill="#8EC0C8" d="M62.031,29.172c-0.822,0-1.488-0.666-1.488-1.488l0,0c0-0.822,0.666-1.488,1.488-1.488h3.99
							c0.822,0,1.488,0.666,1.488,1.488l0,0c0,0.822-0.666,1.488-1.488,1.488H62.031z"/>
					</g>
					<g>
						<path fill="#A2D4DE" d="M75.395,29.604c0,1.107-0.811,2.006-1.811,2.006h-19.23c-1,0-1.811-0.898-1.811-2.006l0,0
							c0-1.107,0.811-2.004,1.811-2.004h19.23C74.584,27.6,75.395,28.497,75.395,29.604L75.395,29.604z"/>
					</g>
				</g>
				<g>
					<path fill="#67B8CB" d="M42.145,71.948c0,2.996-2.4,5.426-5.359,5.426l0,0c-2.961,0-5.361-2.43-5.361-5.426V46.456
						c0-2.996,2.4-5.424,5.361-5.424l0,0c2.959,0,5.359,2.428,5.359,5.424V71.948z"/>
				</g>
			</g>
			<g>
				<path fill="#FFFFFF" d="M101.504,64.573c-1.93-5.146-4.932-8.361-11.578-9.006c0,0,4.051,2.449,6.646,4.074
					C98.936,61.118,101.504,64.573,101.504,64.573z"/>
			</g>
			<g>
				<path fill="#FFFFFF" d="M75.043,54.129c-2.061-4.594-3.168-6.918-8.885-6.918c0,0,4.732,2.039,5.557,7.328
					C72.156,57.379,75.043,54.129,75.043,54.129z"/>
			</g>
			<g>
				<path fill="#C4E7ED" d="M97.127,88.79c0,0-4.998,9.018-4.998,12.5c0,2.762,2.238,4.998,4.998,5c2.764-0.002,5-2.238,5-5.002
					C102.127,98.059,97.127,88.79,97.127,88.79z"/>
			</g>
			<g>
				<path fill="#FFFFFF" d="M96.682,105.145c3.322-0.068,4.055-0.854,4.391-4.393c0,0-0.904,1.387-1.998,2.594
					C98.08,104.446,96.682,105.145,96.682,105.145z"/>
			</g>
		</g>
	</g>
</g>
</svg>
