<?xml version="1.0" encoding="utf-8"?>
<!-- Generator: Adobe Illustrator 16.0.0, SVG Export Plug-In . SVG Version: 6.00 Build 0)  -->
<!DOCTYPE svg PUBLIC "-//W3C//DTD SVG 1.1//EN" "http://www.w3.org/Graphics/SVG/1.1/DTD/svg11.dtd">
<svg version="1.1" id="Layer_1" xmlns="http://www.w3.org/2000/svg" xmlns:xlink="http://www.w3.org/1999/xlink" x="0px" y="0px"
	 width="136.913px" height="136.914px" viewBox="0 0 136.913 136.914" enable-background="new 0 0 136.913 136.914"
	 xml:space="preserve">
<g>
	<g>
		<g>
			<g>
				<circle fill="#E23942" cx="68.456" cy="68.458" r="63.333"/>
			</g>
		</g>
	</g>
	<g>
		<g>
			<path fill="#6B4E15" d="M72.666,77.511c0,2.279-1.848,4.129-4.129,4.129l0,0c-2.279,0-4.127-1.85-4.127-4.129V41.587
				c0-2.279,1.848-2.322,4.127-2.322l0,0c2.281,0,4.129,0.043,4.129,2.322V77.511z"/>
		</g>
		<g>
			<path fill="#6B4E15" d="M102.221,77.511c0,2.279-1.848,4.129-4.129,4.129l0,0c-2.281,0-4.129-1.85-4.129-4.129V41.587
				c0-2.279,1.848-2.322,4.129-2.322l0,0c2.281,0,4.129,0.043,4.129,2.322V77.511z"/>
		</g>
		<g>
			<path fill="#6B4E15" d="M81.896,50.155v14.658L53.322,50.155v14.639L24.785,50.155v46.291c0,1.623,1.193,2.939,2.664,2.939
				h80.432c1.471,0,2.664-1.316,2.664-2.939V64.851L81.896,50.155z"/>
		</g>
		<g>
			<path fill="#D2D2D2" d="M81.896,54.196v14.658L53.322,54.196v14.639L24.785,54.196v46.291c0,1.623,1.193,2.939,2.664,2.939
				h80.432c1.471,0,2.664-1.316,2.664-2.939V68.892L81.896,54.196z"/>
		</g>
		<g>
			<path fill="#FFFFFF" d="M44.883,89.604c0,0.605-0.443,1.098-0.992,1.098h-9.117c-0.549,0-0.994-0.492-0.994-1.098V79.552
				c0-0.605,0.445-1.098,0.994-1.098h9.117c0.549,0,0.992,0.492,0.992,1.098V89.604z"/>
		</g>
		<g>
			<path fill="#FFFFFF" d="M74.09,89.604c0,0.605-0.447,1.098-0.996,1.098h-9.117c-0.549,0-0.992-0.492-0.992-1.098V79.552
				c0-0.605,0.443-1.098,0.992-1.098h9.117c0.549,0,0.996,0.492,0.996,1.098V89.604z"/>
		</g>
		<g>
			<path fill="#FFFFFF" d="M102.105,89.604c0,0.605-0.441,1.098-0.992,1.098h-9.115c-0.549,0-0.994-0.492-0.994-1.098V79.552
				c0-0.605,0.445-1.098,0.994-1.098h9.115c0.551,0,0.992,0.492,0.992,1.098V89.604z"/>
		</g>
		<g opacity="0.7">
			<g>
				<ellipse fill="#FFFFFF" cx="98.696" cy="31.831" rx="2.659" ry="2.484"/>
			</g>
			<g>
				<ellipse fill="#FFFFFF" cx="96.402" cy="29.3" rx="2.658" ry="2.482"/>
			</g>
			<g>
				<ellipse fill="#FFFFFF" cx="99.499" cy="30.292" rx="2.659" ry="2.484"/>
			</g>
			<g>
				<ellipse fill="#FFFFFF" cx="97.83" cy="35.554" rx="2.658" ry="2.482"/>
			</g>
			<g>
				<ellipse fill="#FFFFFF" cx="96.424" cy="33.021" rx="2.658" ry="2.484"/>
			</g>
			<g>
				<ellipse fill="#FFFFFF" cx="96.997" cy="26.591" rx="2.659" ry="2.484"/>
			</g>
			<g>
				<ellipse fill="#FFFFFF" cx="99.499" cy="27.81" rx="2.659" ry="2.482"/>
			</g>
		</g>
		<g opacity="0.7">
			<g>
				<ellipse fill="#FFFFFF" cx="69.84" cy="28.095" rx="4.057" ry="3.791"/>
			</g>
			<g>
				<ellipse fill="#FFFFFF" cx="66.342" cy="24.231" rx="4.057" ry="3.789"/>
			</g>
			<g>
				<ellipse fill="#FFFFFF" cx="71.066" cy="25.747" rx="4.057" ry="3.791"/>
			</g>
			<g>
				<path fill="#FFFFFF" d="M72.576,33.774c0,2.094-1.813,3.79-4.057,3.79c-2.238,0-4.057-1.696-4.057-3.79s1.818-3.789,4.057-3.789
					C70.764,29.985,72.576,31.681,72.576,33.774z"/>
			</g>
			<g>
				<path fill="#FFFFFF" d="M70.428,29.91c0,2.093-1.814,3.79-4.053,3.79c-2.246,0-4.057-1.697-4.057-3.79
					c0-2.094,1.811-3.791,4.057-3.791C68.613,26.119,70.428,27.816,70.428,29.91z"/>
			</g>
			<g>
				<ellipse fill="#FFFFFF" cx="67.248" cy="20.099" rx="4.057" ry="3.791"/>
			</g>
			<g>
				<ellipse fill="#FFFFFF" cx="71.066" cy="21.956" rx="4.057" ry="3.791"/>
			</g>
		</g>
	</g>
</g>
</svg>
