<?xml version="1.0" encoding="utf-8"?>
<!-- Generator: Adobe Illustrator 16.0.0, SVG Export Plug-In . SVG Version: 6.00 Build 0)  -->
<!DOCTYPE svg PUBLIC "-//W3C//DTD SVG 1.1//EN" "http://www.w3.org/Graphics/SVG/1.1/DTD/svg11.dtd">
<svg version="1.1" id="Layer_1" xmlns="http://www.w3.org/2000/svg" xmlns:xlink="http://www.w3.org/1999/xlink" x="0px" y="0px"
	 width="136.913px" height="136.914px" viewBox="0 0 136.913 136.914" enable-background="new 0 0 136.913 136.914"
	 xml:space="preserve">
<g>
	<g>
		<path fill="#22C48A" d="M4.94,68.456C4.94,33.378,33.378,4.94,68.458,4.94c35.078,0,63.516,28.438,63.516,63.516
			c0,35.082-28.438,63.518-63.516,63.518C33.378,131.974,4.94,103.538,4.94,68.456z"/>
	</g>
	<g>
		<g>
			<g>
				<polygon fill="#F7D98B" points="49.47,32.663 37.944,72.884 37.856,75.45 62.769,74.837 62.651,72.89 				"/>
			</g>
		</g>
		<g>
			<g>
				<polygon fill="#626463" points="49.401,32.437 44.386,50.003 55.192,50.003 				"/>
			</g>
		</g>
		<g>
			<g>
				<g>
					<path fill="#E84849" d="M60.993,70.769l-3.627,4.07l-0.023,56.146c1.777,0.313,3.576,0.557,5.4,0.721l0.025-56.869
						L60.993,70.769z"/>
				</g>
			</g>
			<g>
				<g>
					<path fill="#E84849" d="M49.015,128.931l0.025-54.096l-3.723-4.066l-3.43,4.068l-0.02,51.303
						C44.179,127.206,46.563,128.144,49.015,128.931z"/>
				</g>
			</g>
			<g>
				<g>
					<path fill="#F06668" d="M41.888,74.837l-3.014-4.07l-1.051,4.068l-0.021,49.256c1.326,0.73,2.684,1.41,4.066,2.049
						L41.888,74.837z"/>
				</g>
			</g>
			<g>
				<g>
					<path fill="#F06668" d="M57.343,130.985l0.023-56.146l-4.168-4.07l-4.158,4.066l-0.025,54.096
						C51.716,129.8,54.497,130.483,57.343,130.985z"/>
				</g>
			</g>
		</g>
	</g>
	<g>
		<g>
			<path fill="#276D69" d="M93.146,61.165c-1.098,11.266-4.859,8.617-8.814,8.617c-3.879,0-7.48,2.52-8.813-8.615
				c-1.326-11.086,8.813-30.047,8.813-30.047S94.228,50.067,93.146,61.165z"/>
		</g>
		<g>
			<path fill="#355957" d="M84.331,69.782c-3.879,0-7.48,2.52-8.813-8.615c-1.326-11.086,8.813-30.047,8.813-30.047V69.782z"/>
		</g>
		<g>
			<g>
				<g>
					<path fill="#E79E2D" d="M78.882,69.907l-4.994,56.488l-0.291,3.99c0.162-1.523,0.291-2.945,0.291-3.662l4.994-56.77
						c0-0.92,2.906-1.322,5.816-1.295c0,0,0,48.49-0.002,61.211c3.736-0.984,7.336-2.305,10.77-3.92l-4.953-56.043
						C90.513,68.3,78.882,68.077,78.882,69.907z"/>
				</g>
			</g>
			<g>
				<g>
					<path fill="#D68A28" d="M73.597,130.386c-0.049,0.455-0.1,0.918-0.152,1.375c0.018-0.002,0.035-0.002,0.053-0.004
						L73.597,130.386z"/>
				</g>
			</g>
			<g>
				<g>
					<path fill="#D68A28" d="M84.696,129.87c0.002-12.721,0.002-61.211,0.002-61.211c-2.91-0.027-5.816,0.375-5.816,1.295
						l-4.994,56.77c0,0.717-0.129,2.139-0.291,3.662l-0.1,1.371C77.335,131.454,81.081,130.825,84.696,129.87z"/>
				</g>
			</g>
		</g>
		<g>
			<path fill="#CDCCCB" d="M79.196,69.901l-4.248,45.551l19.85,0.105l-3.973-45.656C90.825,68.376,79.196,68.167,79.196,69.901z"/>
		</g>
		<g>
			<path fill="#B1B1B2" d="M78.882,69.882l-3.934,45.57l9.758-0.021c0,0,0.393-46.77-0.008-46.77
				C81.792,68.661,78.882,69.013,78.882,69.882z"/>
		</g>
		<g>
			<path fill="#BFBEBE" d="M78.167,79.401l-2.949,33.098l19.365,0.27l-2.951-33.207C91.632,78.403,78.169,78.081,78.167,79.401z"/>
		</g>
		<g>
			<path fill="#AAAAAA" d="M78.882,69.882l-3.719,42.832l9.57-0.121c0,0,0.262-43.932-0.035-43.932
				C81.792,68.661,78.882,69.013,78.882,69.882z"/>
		</g>
	</g>
</g>
</svg>
