<?xml version="1.0" encoding="utf-8"?>
<!-- Generator: Adobe Illustrator 16.0.0, SVG Export Plug-In . SVG Version: 6.00 Build 0)  -->
<!DOCTYPE svg PUBLIC "-//W3C//DTD SVG 1.1//EN" "http://www.w3.org/Graphics/SVG/1.1/DTD/svg11.dtd">
<svg version="1.1" id="Layer_1" xmlns="http://www.w3.org/2000/svg" xmlns:xlink="http://www.w3.org/1999/xlink" x="0px" y="0px"
	 width="136.913px" height="136.913px" viewBox="0 0 136.913 136.913" enable-background="new 0 0 136.913 136.913"
	 xml:space="preserve">
<g>
	<g>
		<g>
			<g>
				<g>
					<circle fill="#A2D4DE" cx="68.456" cy="68.457" r="63.333"/>
				</g>
			</g>
		</g>
	</g>
	<g>
		<g>
			<path fill="#B1B1B2" d="M5.486,75.219c0.875,8.251,3.338,16.026,7.072,23.021c10.658,19.961,31.688,33.55,55.898,33.55
				c24.207,0,45.236-13.588,55.895-33.548c3.699-6.928,6.145-14.621,7.043-22.783L5.486,75.219z"/>
			<path fill="#6CC077" d="M131.723,65.859c-0.145-3.604-0.586-7.129-1.311-10.553c-0.686-3.248-1.627-6.401-2.789-9.445
				l-12.795-12.795c0,0-8.293-9.666-15.229-10.06c-6.934-0.394-14.406,9.235-14.406,9.235l-11.42,11.422l-1.846-1.849
				c0,0-6.744-7.864-12.393-8.186c-5.645-0.321-11.721,7.518-11.721,7.518l-6.068,6.069c-0.963-1.08-6.025-6.506-10.365-6.754
				c-4.811-0.272-9.996,6.41-9.996,6.41l-8.209,8.209l-6.623-0.013c-0.164,0.767-0.309,1.54-0.445,2.315
				c-0.318,1.806-0.564,3.635-0.727,5.49c-0.16,1.841-0.258,3.699-0.258,5.582c0,2.285,0.127,4.539,0.363,6.762l125.908,0.24
				c0.254-2.3,0.395-4.634,0.395-7.002C131.789,67.586,131.758,66.723,131.723,65.859z"/>
		</g>
		<g>
			<g>
				<path fill="#FFFFFF" d="M113.195,100.22l-10.117,0.053l-0.014-2.704l10.115-0.054L113.195,100.22z M92.963,100.327
					l-10.117,0.054l-0.014-2.708l10.117-0.053L92.963,100.327z M72.73,100.433l-10.117,0.053L62.6,97.78l10.117-0.055L72.73,100.433
					z M52.498,100.54l-10.115,0.054l-0.014-2.708l10.115-0.052L52.498,100.54z M32.266,100.646l-10.115,0.053l-0.014-2.707
					l10.115-0.052L32.266,100.646z"/>
			</g>
		</g>
		<g>
			<path fill="#357180" d="M102.686,75.74l-58.938,1.178c10.275-12.689,20.441-15.901,30.061-16.094
				C84.033,60.62,95.232,64.006,102.686,75.74z"/>
			<path fill="#A2DADB" d="M72.311,76.164l-23.756,0.475c8.039-9.926,15.988-12.437,23.514-12.587L72.311,76.164z"/>
			<path fill="#A2DADB" d="M75.168,76.106l23.756-0.474c-8.426-9.598-16.471-11.789-23.998-11.639L75.168,76.106z"/>
			<path fill="#357180" d="M100.943,93.974c0,0-74.832,1.495-77.428,1.548c-1.805,0.034-2.027-3.57-2.027-3.57
				c-0.324-16.236,24.363-15.227,24.363-15.227l56.754-1.134c0,0,4.287,2.464,8.863,3.133c3.393,0.495,4.58,3.368,4.643,6.524
				C116.191,89.345,113.682,91.688,100.943,93.974z"/>
			<path fill="#818282" d="M65.465,93.329c-25.146,0.052-43.779-0.065-43.779-0.065s-0.021,0.282-0.092,1.074
				c-0.088,0.994,0.42,1.665,1.15,1.65l78.133-1.562l0.117-1.808C93.32,92.471,90.611,93.278,65.465,93.329z"/>
			<path fill="#202121" d="M28.875,92.783c-0.102-5.107,3.955-9.33,9.061-9.432c5.107-0.103,9.33,3.953,9.432,9.061
				s-3.955,9.33-9.061,9.433C33.199,101.944,28.979,97.888,28.875,92.783z"/>
			<circle fill="#202121" cx="92.245" cy="91.516" r="9.249"/>
			<circle fill="#818282" cx="38.121" cy="92.598" r="4.511"/>
			<circle fill="#818282" cx="92.246" cy="91.516" r="4.511"/>
		</g>
	</g>
</g>
</svg>
